#VRML V2.0 utf8
# 3D model generated by easyeda2kicad.py (https://github.com/uPesy/easyeda2kicad.py)

Shape{
    appearance Appearance {
        material  Material 	{
            diffuseColor 1.0 0.9215686274509803 0.6862745098039216
            specularColor 0.30196078431372547 0.2784313725490196 0.20392156862745098
            ambientIntensity 0.9182
            transparency 0.0
            shininess 0.5
        }
    }
    geometry IndexedFaceSet {
        ccw TRUE
        solid FALSE
        coord DEF co Coordinate {
            point [
                -0.9846 0.0532 0.3898, -0.7826 0.0532 0.3898, -0.7826 0.0801 0.3898, 0.0024 0.1186 0.3898, 0.001 0.1167 0.3898, 0.001 0.0801 0.3898, 1.3513 0.0501 0.3898, 1.3642 0.0532 0.3898, 1.3069 0.0513 0.3898, -1.6141 0.4094 0.3898, -1.6141 0.1493 0.3898, -0.9846 0.1493 0.3898, 1.6438 -0.4134 0.3898, 1.8308 -0.4134 0.3898, 1.8308 -0.4094 0.3898, 1.6142 -0.4094 0.3898, 1.6142 -0.2943 0.3898, 1.1706 -0.2943 0.3898, -0.288 0.0532 0.3898, -0.1373 0.0532 0.3898, -0.1373 0.0801 0.3898, -0.3869 -0.0063 0.3898, -0.3869 0.0321 0.3898, -0.483 0.0532 0.3898, -0.4082 -0.0935 0.3898, -0.4037 -0.0798 0.3898, -0.483 -0.1532 0.3898, -0.4018 -0.1444 0.3898, -0.4072 -0.1317 0.3898, -0.2975 0.0187 0.3898, -0.3109 0.0205 0.3898, -0.335 -0.0394 0.3898, -0.4097 -0.1177 0.3898, -0.41 -0.1112 0.3898, -0.3965 -0.0682 0.3898, -0.386 -0.058 0.3898, -0.3704 -0.0488 0.3898, -0.3667 0.0072 0.3898, -0.3435 -0.0408 0.3898, -0.3417 0.0171 0.3898, -0.3133 0.0206 0.3898, -0.2679 -0.0302 0.3898, -0.269 -0.0155 0.3898, -0.272 -0.004 0.3898, -0.2765 0.0045 0.3898, -0.2822 0.0109 0.3898, -0.2894 0.0157 0.3898, -0.3089 -0.1701 0.3898, -0.3255 -0.1744 0.3898, -0.483 -0.2943 0.3898, -0.3746 -0.1683 0.3898, -0.3876 -0.1605 0.3898, -0.393 -0.1558 0.3898, -0.395 -0.1532 0.3898, -0.3382 -0.1753 0.3898, -0.3587 -0.1733 0.3898, -0.2679 -0.1532 0.3898, -0.2679 -0.133 0.3898, -0.2689 -0.133 0.3898, -0.2944 -0.1624 0.3898, -0.2679 -0.1715 0.3898, -0.284 -0.1532 0.3898, -0.2814 -0.1508 0.3898, -0.2489 0.0334 0.3898, -0.2405 0.0217 0.3898, -0.2335 0.0047 0.3898, -0.2715 0.0486 0.3898, -0.2584 0.0417 0.3898, -0.2294 -0.1715 0.3898, -0.1373 -0.2943 0.3898, -0.2294 -0.1532 0.3898, -0.1373 -0.1532 0.3898, -0.2294 -0.0289 0.3898, -0.2296 -0.0222 0.3898, -0.3585 0.0469 0.3898, -0.3304 0.0532 0.3898, -0.483 0.0801 0.3898, -0.325 0.0545 0.3898, -0.3101 0.0552 0.3898, -0.2887 0.0534 0.3898, -1.8307 -0.4094 0.3898, -1.8307 -0.4134 0.3898, -1.6141 -0.4094 0.3898, -0.9846 -0.4134 0.3898, -1.6141 -0.2943 0.3898, -1.1989 0.0532 0.3898, -1.1913 0.0349 0.3898, -1.6141 -0.1532 0.3898, -1.3564 -0.1303 0.3898, -1.389 -0.1168 0.3898, -1.4518 -0.0349 0.3898, -1.6141 0.0532 0.3898, -1.4564 -0.0 0.3898, -1.1867 0.0 0.3898, -1.1913 -0.0349 0.3898, -0.9846 -0.1532 0.3898, -1.2047 -0.0674 0.3898, -1.2262 -0.0954 0.3898, -1.4169 -0.0954 0.3898, -1.4383 -0.0674 0.3898, -1.2541 -0.1168 0.3898, -1.2866 -0.1303 0.3898, -1.3215 -0.1349 0.3898, -1.4518 0.0349 0.3898, -1.4442 0.0532 0.3898, -1.6141 0.0801 0.3898, -1.4383 0.0674 0.3898, -1.4286 0.0801 0.3898, -1.4169 0.0954 0.3898, -1.389 0.1168 0.3898, -1.2866 0.1303 0.3898, -1.3215 0.1349 0.3898, -1.3564 0.1303 0.3898, 1.8308 0.4094 0.3898, 1.8308 0.4134 0.3898, 1.6438 0.4094 0.3898, 1.6438 0.4134 0.3898, 1.6142 0.4094 0.3898, 1.1706 0.4134 0.3898, 1.6142 0.1493 0.3898, 1.6142 0.0532 0.3898, 1.6142 0.0801 0.3898, 1.4008 0.0533 0.3898, 1.3692 0.0545 0.3898, 1.1706 0.0801 0.3898, 1.3814 0.0552 0.3898, 1.401 0.0532 0.3898, 1.4162 0.0483 0.3898, 1.4284 0.0407 0.3898, 1.439 0.0299 0.3898, 1.4437 0.0229 0.3898, 1.4508 0.007 0.3898, 1.4561 -0.0208 0.3898, 1.4567 -0.0361 0.3898, 1.6142 -0.1532 0.3898, 1.4567 -0.1532 0.3898, 1.4567 -0.1715 0.3898, 1.4183 -0.1715 0.3898, 1.3356 0.0421 0.3898, 1.3069 0.011 0.3898, 1.3078 0.011 0.3898, 1.3213 0.0297 0.3898, 1.2685 0.0513 0.3898, 1.1706 0.0532 0.3898, 1.2685 -0.1532 0.3898, 1.1706 -0.1532 0.3898, 1.2685 -0.1715 0.3898, 1.3069 -0.1715 0.3898, 1.3069 -0.1532 0.3898, 1.4183 -0.1532 0.3898, 1.3069 -0.0465 0.3898, 1.4183 -0.0469 0.3898, 1.3861 0.0177 0.3898, 1.3735 0.0204 0.3898, 1.4166 -0.0245 0.3898, 1.3186 -0.0053 0.3898, 1.3112 -0.0201 0.3898, 1.3076 -0.0354 0.3898, 1.4066 0.0024 0.3898, 1.4005 0.0093 0.3898, 1.3923 0.0151 0.3898, 1.3673 0.0206 0.3898, 1.3517 0.0187 0.3898, 1.3396 0.0141 0.3898, 1.3288 0.0065 0.3898, 1.4122 -0.0083 0.3898, 1.033 -0.0894 0.3898, 1.0342 -0.0748 0.3898, 0.9757 -0.1407 0.3898, 1.0342 0.0513 0.3898, 0.9228 0.0513 0.3898, 0.9061 -0.1532 0.3898, 0.9034 -0.1507 0.3898, 0.7999 -0.1532 0.3898, 0.8972 -0.1415 0.3898, 0.8893 -0.1218 0.3898, 0.8844 0.0513 0.3898, 0.7999 0.0532 0.3898, 0.8844 -0.0812 0.3898, 0.8846 -0.089 0.3898, 0.9228 -0.074 0.3898, 0.9244 -0.0947 0.3898, 0.9283 -0.1099 0.3898, 0.9337 -0.1207 0.3898, 0.9401 -0.1285 0.3898, 0.9477 -0.1341 0.3898, 1.0018 -0.1349 0.3898, 1.0123 -0.1277 0.3898, 0.9907 -0.139 0.3898, 1.0216 -0.1175 0.3898, 1.0287 -0.1047 0.3898, 0.9585 -0.1386 0.3898, 0.9722 -0.1407 0.3898, 0.9146 -0.1613 0.3898, 0.7999 -0.2943 0.3898, 0.9275 -0.1687 0.3898, 0.9942 -0.17 0.3898, 0.9778 -0.1743 0.3898, 1.0726 0.0513 0.3898, 1.0726 -0.1532 0.3898, 1.0726 -0.1715 0.3898, 1.0342 -0.1715 0.3898, 0.9642 -0.1753 0.3898, 0.9435 -0.1734 0.3898, 1.0342 -0.1532 0.3898, 1.0342 -0.133 0.3898, 1.0334 -0.133 0.3898, 1.0217 -0.1503 0.3898, 1.0186 -0.1532 0.3898, 1.0091 -0.1619 0.3898, 0.6235 -0.1753 0.3898, 0.4715 -0.2943 0.3898, 0.6476 -0.1736 0.3898, 0.6731 -0.1667 0.3898, 0.7039 0.0052 0.3898, 0.7039 0.0436 0.3898, 0.6777 0.0524 0.3898, 0.6691 0.0532 0.3898, 0.6987 -0.0691 0.3898, 0.7066 -0.0782 0.3898, 0.7083 -0.138 0.3898, 0.7008 -0.1483 0.3898, 0.695 -0.1532 0.3898, 0.6881 -0.1589 0.3898, 0.7148 -0.1004 0.3898, 0.7154 -0.1094 0.3898, 0.7131 -0.1266 0.3898, 0.7119 -0.0885 0.3898, 0.6804 0.0158 0.3898, 0.6512 -0.0437 0.3898, 0.6855 -0.0595 0.3898, 0.6042 -0.005 0.3898, 0.604 -0.007 0.3898, 0.6155 0.0127 0.3898, 0.6103 0.0084 0.3898, 0.6068 0.0038 0.3898, 0.6554 0.0203 0.3898, 0.647 0.0206 0.3898, 0.6318 0.0191 0.3898, 0.6208 0.0156 0.3898, 0.605 -0.0003 0.3898, 0.6047 -0.0136 0.3898, 0.6065 -0.0185 0.3898, 0.6094 -0.023 0.3898, 0.6133 -0.0267 0.3898, 0.6258 -0.0336 0.3898, 0.6502 0.0552 0.3898, 0.7999 0.0801 0.3898, 0.4715 0.0801 0.3898, 0.592 -0.1727 0.3898, 0.5618 -0.1638 0.3898, 0.4715 -0.1532 0.3898, 0.5618 -0.1532 0.3898, 0.4715 0.0532 0.3898, 0.5618 -0.1215 0.3898, 0.5618 -0.0088 0.3898, 0.5637 0.0062 0.3898, 0.5621 -0.0142 0.3898, 0.5681 0.0173 0.3898, 0.5755 0.0276 0.3898, 0.5879 0.0381 0.3898, 0.588 -0.0561 0.3898, 0.6217 -0.0723 0.3898, 0.5928 -0.1359 0.3898, 0.5768 -0.0477 0.3898, 0.57 -0.0392 0.3898, 0.5645 -0.0272 0.3898, 0.6048 0.0471 0.3898, 0.6268 0.0532 0.3898, 0.6269 0.0533 0.3898, 0.6222 -0.1406 0.3898, 0.6266 -0.1407 0.3898, 0.641 -0.0797 0.3898, 0.6457 -0.1392 0.3898, 0.657 -0.1358 0.3898, 0.6631 -0.1324 0.3898, 0.6611 -0.09 0.3898, 0.6704 -0.1242 0.3898, 0.6724 -0.1189 0.3898, 0.6668 -0.095 0.3898, 0.6732 -0.1117 0.3898, 0.6723 -0.105 0.3898, 0.6704 -0.1 0.3898, 0.6674 -0.1285 0.3898, 0.099 0.0801 0.3898, 0.099 0.0532 0.3898, 0.2888 0.0532 0.3898, 0.2315 0.011 0.3898, 0.2323 0.011 0.3898, 0.2315 0.0513 0.3898, 0.2458 0.0297 0.3898, 0.2602 0.0421 0.3898, 0.2758 0.0501 0.3898, 0.1931 0.0513 0.3898, 0.1931 -0.1532 0.3898, 0.099 -0.1532 0.3898, 0.1931 -0.1715 0.3898, 0.099 -0.2943 0.3898, 0.2315 -0.1715 0.3898, 0.3429 -0.0469 0.3898, 0.2315 -0.0465 0.3898, 0.3429 -0.1532 0.3898, 0.2315 -0.1532 0.3898, 0.3429 -0.1715 0.3898, 0.3106 0.0177 0.3898, 0.298 0.0204 0.3898, 0.3411 -0.0245 0.3898, 0.2431 -0.0053 0.3898, 0.2357 -0.0201 0.3898, 0.2321 -0.0354 0.3898, 0.3311 0.0024 0.3898, 0.325 0.0093 0.3898, 0.3168 0.0151 0.3898, 0.2918 0.0206 0.3898, 0.2763 0.0187 0.3898, 0.2641 0.0141 0.3898, 0.2533 0.0065 0.3898, 0.3368 -0.0083 0.3898, 0.3407 0.0483 0.3898, 0.3529 0.0407 0.3898, 0.2938 0.0545 0.3898, 0.3059 0.0552 0.3898, 0.3254 0.0533 0.3898, 0.3255 0.0532 0.3898, 0.3635 0.0299 0.3898, 0.3682 0.0229 0.3898, 0.3753 0.007 0.3898, 0.3813 -0.1715 0.3898, 0.3813 -0.1532 0.3898, 0.3813 -0.0361 0.3898, 0.3807 -0.0208 0.3898, 0.004 0.1231 0.3898, 0.0049 0.1299 0.3898, -0.0081 0.1521 0.3898, -0.0041 0.1493 0.3898, 0.001 0.1493 0.3898, -0.0037 0.149 0.3898, 0.0008 0.1439 0.3898, 0.001 0.1435 0.3898, 0.099 0.1493 0.3898, 0.0032 0.1394 0.3898, 0.0045 0.1341 0.3898, -0.0362 0.1493 0.3898, -0.0351 0.1503 0.3898, -0.1373 0.4134 0.3898, -0.0304 0.153 0.3898, -0.025 0.1546 0.3898, 0.001 0.4134 0.3898, -0.0204 0.155 0.3898, -0.0137 0.1542 0.3898, -0.0408 0.1154 0.3898, -0.0436 0.1207 0.3898, -0.0449 0.1265 0.3898, -0.0451 0.1299 0.3898, -0.1373 0.1493 0.3898, -0.0012 0.1134 0.3898, -0.0057 0.1094 0.3898, -0.0111 0.1066 0.3898, -0.0443 0.1366 0.3898, -0.0421 0.1422 0.3898, -0.039 0.1467 0.3898, -0.027 0.1058 0.3898, -0.0322 0.1078 0.3898, -0.0369 0.111 0.3898, -0.0164 0.1054 0.3898, -0.0204 0.1051 0.3898, 0.001 0.0532 0.3898, -0.0028 0.0513 0.3898, 0.001 -0.1532 0.3898, -0.0028 -0.1532 0.3898, -0.0028 -0.1715 0.3898, -0.0412 0.0513 0.3898, -0.0412 -0.1532 0.3898, -0.0412 -0.1715 0.3898, 0.001 -0.2943 0.3898, -0.6588 -0.0242 0.3898, -0.6588 -0.0252 0.3898, -0.6556 -0.0232 0.3898, -0.6445 -0.0336 0.3898, -0.5912 0.0532 0.3898, -0.5926 0.0387 0.3898, -0.6155 -0.0705 0.3898, -0.607 0.0073 0.3898, -0.634 -0.0439 0.3898, -0.614 -0.0004 0.3898, -0.6306 -0.0126 0.3898, -0.612 -0.0762 0.3898, -0.5982 0.0215 0.3898, -0.5954 0.0913 0.3898, -0.5928 0.0801 0.3898, -0.5914 0.074 0.3898, -0.5905 0.0601 0.3898, -0.6596 0.1411 0.3898, -0.6382 0.1348 0.3898, -0.483 0.1493 0.3898, -0.6211 0.1253 0.3898, -0.6135 0.119 0.3898, -0.6029 0.1065 0.3898, -0.6875 0.1435 0.3898, -0.7826 0.1435 0.3898, -0.7826 -0.1532 0.3898, -0.5667 -0.1532 0.3898, -0.5559 -0.1715 0.3898, -0.602 -0.1715 0.3898, -0.7826 -0.1715 0.3898, -0.9846 -0.2943 0.3898, -0.7403 -0.1715 0.3898, -0.7403 -0.1532 0.3898, -0.6126 -0.1532 0.3898, -0.6532 -0.0828 0.3898, -0.6946 -0.0396 0.3898, -0.7057 -0.0373 0.3898, -0.7117 -0.037 0.3898, -0.7403 -0.037 0.3898, -0.6761 -0.0511 0.3898, -0.6856 -0.0437 0.3898, -1.2541 0.1168 0.3898, -1.2262 0.0954 0.3898, -0.9846 0.0801 0.3898, -1.2145 0.0801 0.3898, -1.2047 0.0674 0.3898, 0.001 -0.4134 0.3898, -0.1373 -0.4134 0.3898, -0.483 -0.4134 0.3898, 1.6438 -0.4094 0.3898, 1.1706 -0.4134 0.3898, 0.7999 -0.4134 0.3898, 0.4715 -0.4134 0.3898, 0.099 -0.4134 0.3898, 1.1706 0.1493 0.3898, 0.7999 0.1493 0.3898, 0.4715 0.1493 0.3898, -0.483 0.4134 0.3898, -0.9846 0.4134 0.3898, -1.8307 0.4134 0.3898, -1.8307 0.4094 0.3898, 0.099 0.4134 0.3898, 0.4715 0.4134 0.3898, 0.7999 0.4134 0.3898, 1.6142 -0.4094 0.0039, 1.8308 -0.4094 0.0039, 1.8308 -0.4134 0.0039, 1.8308 0.4134 0.0039, 1.8308 0.4094 0.0039, 1.6142 0.4094 0.0039, 0.049 -0.0244 0.0039, 0.049 -0.033 0.0039, 0.0413 -0.0376 0.0039, 0.0574 -0.0365 0.0039, 0.0579 0.0327 0.0039, 0.0504 -0.0251 0.0039, 0.0675 0.034 0.0039, 0.0752 0.0331 0.0039, 0.1546 -0.0371 0.0039, 0.0753 -0.0376 0.0039, 0.1143 -0.0371 0.0039, 0.0804 -0.037 0.0039, 0.088 -0.0344 0.0039, 0.0811 0.031 0.0039, 0.0866 0.0273 0.0039, 0.0913 0.0221 0.0039, 0.097 0.0014 0.0039, 0.0962 -0.0071 0.0039, 0.0941 -0.0139 0.0039, 0.0766 -0.0286 0.0039, 0.0692 -0.0294 0.0039, 0.0823 -0.0265 0.0039, 0.0871 -0.0232 0.0039, 0.0908 -0.0193 0.0039, 0.0588 -0.0282 0.0039, 0.0413 0.4134 0.0039, 0.049 0.0395 0.0039, 0.049 0.0289 0.0039, 0.0946 0.016 0.0039, 0.0967 0.0076 0.0039, 0.0944 -0.0304 0.0039, 0.1003 -0.0241 0.0039, 0.1143 -0.0284 0.0039, 0.1045 -0.0167 0.0039, 0.1441 -0.0284 0.0039, 0.0988 0.0283 0.0039, 0.0917 0.0351 0.0039, 0.0842 0.0394 0.0039, 0.0755 0.042 0.0039, 0.1068 -0.0083 0.0039, 0.1076 0.0008 0.0039, 0.1441 0.0416 0.0039, 0.1065 0.012 0.0039, 0.1034 0.0209 0.0039, 0.0676 0.0426 0.0039, 0.0581 0.042 0.0039, 0.0654 -0.0376 0.0039, 0.0685 -0.038 0.0039, 0.0413 -0.4134 0.0039, 0.0707 -0.0381 0.0039, 1.6142 -0.0376 0.0039, 0.1546 0.0416 0.0039, -0.0086 -0.0371 0.0039, 0.0337 -0.0371 0.0039, -0.1447 -0.015 0.0039, -0.1121 -0.015 0.0039, -0.1046 -0.0371 0.0039, -0.0931 -0.0371 0.0039, -0.0834 -0.0155 0.0039, -0.0789 -0.0226 0.0039, 0.0337 0.0416 0.0039, -1.8307 0.4094 0.0039, -1.8307 0.4134 0.0039, -1.6141 0.4094 0.0039, -0.0067 0.0416 0.0039, -0.0724 -0.0288 0.0039, -0.0642 -0.0335 0.0039, -0.0551 -0.0362 0.0039, -1.6141 -0.0376 0.0039, -0.1334 0.0416 0.0039, 0.0231 0.033 0.0039, 0.0231 0.0071 0.0039, -0.0067 0.033 0.0039, -0.0048 0.0071 0.0039, -0.024 0.0416 0.0039, -0.0048 -0.0016 0.0039, 0.0231 -0.0016 0.0039, 0.0231 -0.0284 0.0039, -0.0086 -0.0284 0.0039, -0.024 -0.0371 0.0039, -0.0454 -0.0371 0.0039, -0.0576 0.0404 0.0039, -0.0668 0.0372 0.0039, -0.1229 0.0416 0.0039, -0.0753 0.0315 0.0039, -0.1642 -0.0371 0.0039, -0.1526 -0.0371 0.0039, -0.0754 0.0314 0.0039, -0.081 0.0252 0.0039, -0.0846 0.0184 0.0039, -0.0462 0.0416 0.0039, -0.0868 0.0107 0.0039, -0.0873 0.0033 0.0039, -0.0862 -0.0073 0.0039, -1.6141 -0.4094 0.0039, -1.8307 -0.4134 0.0039, -1.8307 -0.4094 0.0039
            ]
        }
        coordIndex [
            0,1,2,-1,3,4,5,-1,6,7,8,-1,9,10,11,-1,12,13,14,-1,15,16,17,-1,18,19,20,-1,21,22,23,-1,24,25,26,-1,26,27,28,-1,29,30,31,-1,28,32,26,-1,26,32,33,-1,26,33,24,-1,34,35,21,-1,21,35,36,-1,21,36,37,-1,37,36,38,-1,37,38,39,-1,39,38,31,-1,39,31,40,-1,40,31,30,-1,41,42,31,-1,31,42,43,-1,31,43,44,-1,44,45,31,-1,31,45,46,-1,31,46,29,-1,47,48,49,-1,50,51,49,-1,49,51,52,-1,49,52,26,-1,26,52,53,-1,26,53,27,-1,48,54,49,-1,49,54,55,-1,49,55,50,-1,56,57,58,-1,59,60,61,-1,61,60,56,-1,61,56,62,-1,62,56,58,-1,63,64,19,-1,19,64,65,-1,18,66,19,-1,19,66,67,-1,19,67,63,-1,59,47,60,-1,60,47,49,-1,60,49,68,-1,68,49,69,-1,68,69,70,-1,70,69,71,-1,70,71,72,-1,72,71,19,-1,72,19,73,-1,73,19,65,-1,22,74,23,-1,23,74,75,-1,23,75,76,-1,75,77,76,-1,76,77,78,-1,76,78,20,-1,20,78,79,-1,20,79,18,-1,80,81,82,-1,82,81,83,-1,82,83,84,-1,0,85,86,-1,87,88,89,-1,87,90,91,-1,91,90,92,-1,93,94,95,-1,95,94,96,-1,95,96,97,-1,89,98,87,-1,87,98,99,-1,87,99,90,-1,97,100,95,-1,95,100,101,-1,95,101,102,-1,92,103,91,-1,91,103,104,-1,91,104,105,-1,104,106,105,-1,105,106,107,-1,105,107,10,-1,10,107,108,-1,10,108,109,-1,110,11,111,-1,111,11,10,-1,111,10,112,-1,112,10,109,-1,113,114,115,-1,115,114,116,-1,115,116,117,-1,117,116,118,-1,117,118,119,-1,120,121,122,-1,7,123,124,-1,124,123,125,-1,122,126,120,-1,120,126,127,-1,120,127,128,-1,128,129,120,-1,120,129,130,-1,120,130,131,-1,131,132,120,-1,120,132,133,-1,120,133,134,-1,134,133,135,-1,134,135,16,-1,16,135,136,-1,16,136,17,-1,17,136,137,-1,6,8,138,-1,139,140,8,-1,8,140,141,-1,8,141,138,-1,142,143,144,-1,144,143,145,-1,144,145,146,-1,146,145,17,-1,146,17,147,-1,147,17,137,-1,147,137,148,-1,148,137,149,-1,148,149,150,-1,150,149,151,-1,152,153,154,-1,155,156,151,-1,151,156,157,-1,151,157,150,-1,158,159,160,-1,154,153,151,-1,151,153,161,-1,151,161,162,-1,162,163,151,-1,151,163,164,-1,151,164,155,-1,152,154,160,-1,160,154,165,-1,160,165,158,-1,166,167,168,-1,167,169,170,-1,171,172,173,-1,173,172,174,-1,173,174,175,-1,176,177,178,-1,178,177,173,-1,178,173,179,-1,179,173,175,-1,170,180,167,-1,167,180,181,-1,167,181,182,-1,182,183,167,-1,167,183,184,-1,167,184,185,-1,186,187,188,-1,188,187,189,-1,188,189,168,-1,168,189,190,-1,168,190,166,-1,185,191,167,-1,167,191,192,-1,167,192,168,-1,171,173,193,-1,193,173,194,-1,193,194,195,-1,196,197,194,-1,176,170,177,-1,177,170,169,-1,177,169,143,-1,143,169,198,-1,143,198,145,-1,145,198,199,-1,145,199,17,-1,17,199,200,-1,17,200,194,-1,194,200,201,-1,194,201,196,-1,197,202,194,-1,194,202,203,-1,194,203,195,-1,204,205,206,-1,206,207,204,-1,204,207,208,-1,204,208,201,-1,201,208,209,-1,201,209,196,-1,210,211,212,-1,212,211,194,-1,212,194,213,-1,214,173,215,-1,215,173,177,-1,215,177,216,-1,216,177,217,-1,218,219,214,-1,220,221,173,-1,173,221,222,-1,173,222,194,-1,194,222,223,-1,194,223,213,-1,224,225,173,-1,173,225,226,-1,173,226,220,-1,214,219,173,-1,173,219,227,-1,173,227,224,-1,228,229,214,-1,214,229,230,-1,214,230,218,-1,228,231,232,-1,233,234,235,-1,228,236,231,-1,231,236,237,-1,231,237,238,-1,238,239,231,-1,231,239,233,-1,231,233,240,-1,240,233,235,-1,232,241,228,-1,228,241,242,-1,228,242,243,-1,243,244,228,-1,228,244,245,-1,228,245,229,-1,246,247,248,-1,210,249,211,-1,211,249,250,-1,211,250,251,-1,251,250,252,-1,251,252,253,-1,253,252,254,-1,255,256,253,-1,255,253,257,-1,256,258,253,-1,253,258,259,-1,253,259,260,-1,261,254,262,-1,262,254,263,-1,261,264,254,-1,254,264,265,-1,254,265,253,-1,253,265,266,-1,253,266,257,-1,260,267,253,-1,253,267,268,-1,253,268,248,-1,248,268,269,-1,248,269,246,-1,263,270,262,-1,262,270,271,-1,262,271,272,-1,272,271,273,-1,273,274,272,-1,272,274,275,-1,272,275,276,-1,277,278,279,-1,278,280,279,-1,279,280,281,-1,279,281,282,-1,276,275,279,-1,279,275,283,-1,279,283,277,-1,284,285,286,-1,287,288,289,-1,289,288,290,-1,289,290,291,-1,291,292,289,-1,289,292,286,-1,289,286,293,-1,293,286,285,-1,293,285,294,-1,294,285,295,-1,294,295,296,-1,296,295,297,-1,296,297,298,-1,299,300,301,-1,301,300,302,-1,301,302,303,-1,304,305,306,-1,307,308,299,-1,299,308,309,-1,299,309,300,-1,310,311,312,-1,306,305,299,-1,299,305,313,-1,299,313,314,-1,314,315,299,-1,299,315,316,-1,299,316,307,-1,304,306,312,-1,312,306,317,-1,312,317,310,-1,318,319,253,-1,286,320,284,-1,284,320,321,-1,284,321,248,-1,248,321,322,-1,248,322,253,-1,253,322,323,-1,253,323,318,-1,319,324,253,-1,253,324,325,-1,253,325,326,-1,302,298,303,-1,303,298,297,-1,303,297,327,-1,327,297,211,-1,327,211,328,-1,328,211,251,-1,328,251,329,-1,329,251,253,-1,329,253,330,-1,330,253,326,-1,331,3,284,-1,331,284,332,-1,333,334,335,-1,335,334,336,-1,336,337,335,-1,335,337,338,-1,335,338,339,-1,339,338,340,-1,339,340,341,-1,342,343,344,-1,343,345,344,-1,344,345,346,-1,344,346,347,-1,347,346,348,-1,347,348,349,-1,350,351,20,-1,352,353,354,-1,4,355,5,-1,5,355,356,-1,5,356,357,-1,353,358,354,-1,354,358,359,-1,354,359,360,-1,361,362,20,-1,20,362,363,-1,20,363,350,-1,357,364,5,-1,5,364,365,-1,5,365,361,-1,366,367,368,-1,368,367,369,-1,368,369,370,-1,371,19,372,-1,372,19,71,-1,372,71,373,-1,373,71,69,-1,373,69,370,-1,370,69,374,-1,370,374,368,-1,375,376,377,-1,377,376,378,-1,379,380,23,-1,23,380,26,-1,23,26,21,-1,21,26,25,-1,21,25,34,-1,381,382,383,-1,383,382,384,-1,383,384,378,-1,378,384,385,-1,378,385,377,-1,381,386,382,-1,382,386,26,-1,382,26,387,-1,387,26,380,-1,388,389,76,-1,76,389,390,-1,76,390,23,-1,23,390,391,-1,23,391,379,-1,392,393,394,-1,393,395,394,-1,394,395,396,-1,394,396,397,-1,392,394,398,-1,398,394,11,-1,398,11,399,-1,400,1,95,-1,95,1,0,-1,95,0,93,-1,93,0,86,-1,386,401,26,-1,26,401,402,-1,26,402,49,-1,49,402,403,-1,400,95,404,-1,404,95,405,-1,404,405,406,-1,405,49,406,-1,406,49,403,-1,406,403,407,-1,407,403,408,-1,407,408,409,-1,410,411,407,-1,407,411,412,-1,407,412,413,-1,409,414,407,-1,407,414,415,-1,407,415,410,-1,110,416,11,-1,11,416,417,-1,11,417,418,-1,418,417,419,-1,418,419,420,-1,399,11,2,-1,2,11,418,-1,2,418,0,-1,0,418,420,-1,0,420,85,-1,421,374,422,-1,422,374,69,-1,422,69,423,-1,423,69,49,-1,423,49,83,-1,83,49,405,-1,83,405,84,-1,84,405,95,-1,84,95,87,-1,87,95,102,-1,87,102,88,-1,14,424,12,-1,12,424,15,-1,12,15,425,-1,425,15,17,-1,425,17,426,-1,426,17,194,-1,426,194,427,-1,427,194,211,-1,427,211,428,-1,428,211,297,-1,361,20,5,-1,5,20,19,-1,5,19,366,-1,366,19,371,-1,366,371,367,-1,3,5,284,-1,284,5,366,-1,284,366,285,-1,285,366,368,-1,285,368,295,-1,295,368,374,-1,295,374,297,-1,297,374,421,-1,297,421,428,-1,246,217,247,-1,247,217,177,-1,247,177,124,-1,124,177,143,-1,124,143,7,-1,7,143,142,-1,7,142,8,-1,351,352,20,-1,20,352,354,-1,20,354,76,-1,76,354,394,-1,76,394,388,-1,388,394,397,-1,124,429,247,-1,247,429,430,-1,247,430,248,-1,248,430,431,-1,248,431,284,-1,284,431,339,-1,284,339,332,-1,332,339,341,-1,360,342,354,-1,354,342,344,-1,354,344,394,-1,394,344,432,-1,394,432,11,-1,11,432,433,-1,11,433,9,-1,9,433,434,-1,9,434,435,-1,349,333,347,-1,347,333,335,-1,347,335,436,-1,436,335,339,-1,436,339,437,-1,437,339,431,-1,437,431,438,-1,438,431,430,-1,438,430,118,-1,118,430,429,-1,118,429,119,-1,119,429,124,-1,119,124,121,-1,121,124,125,-1,121,125,122,-1,439,440,441,-1,442,443,444,-1,445,446,447,-1,447,446,448,-1,445,449,450,-1,450,449,451,-1,450,451,452,-1,453,454,455,-1,455,454,456,-1,455,456,457,-1,452,458,450,-1,450,458,459,-1,450,459,460,-1,461,462,450,-1,450,462,463,-1,464,465,466,-1,466,465,467,-1,463,468,450,-1,450,468,467,-1,450,467,469,-1,469,467,465,-1,442,444,470,-1,470,471,472,-1,460,473,450,-1,450,473,474,-1,450,474,461,-1,457,475,455,-1,455,475,476,-1,455,476,477,-1,477,476,478,-1,477,478,479,-1,480,481,470,-1,470,481,482,-1,470,482,483,-1,478,484,479,-1,479,484,485,-1,479,485,486,-1,486,485,487,-1,486,487,488,-1,483,489,470,-1,470,489,490,-1,470,490,471,-1,491,492,493,-1,493,492,494,-1,493,494,454,-1,441,493,439,-1,439,493,454,-1,439,454,495,-1,495,454,453,-1,495,453,444,-1,444,453,496,-1,444,496,470,-1,470,496,486,-1,470,486,480,-1,480,486,488,-1,497,498,447,-1,499,500,501,-1,502,503,504,-1,498,505,447,-1,447,505,470,-1,447,470,445,-1,445,470,472,-1,445,472,449,-1,506,507,508,-1,508,507,470,-1,508,470,509,-1,509,470,505,-1,504,510,502,-1,502,510,511,-1,502,511,512,-1,513,508,514,-1,515,516,517,-1,517,516,518,-1,517,518,519,-1,519,518,520,-1,521,522,520,-1,520,522,523,-1,520,523,519,-1,519,523,497,-1,519,497,524,-1,524,497,447,-1,524,447,525,-1,526,527,528,-1,528,527,529,-1,514,508,528,-1,530,531,447,-1,529,532,528,-1,528,532,533,-1,528,533,534,-1,526,528,535,-1,535,528,508,-1,535,508,519,-1,519,508,509,-1,519,509,517,-1,534,536,528,-1,528,536,537,-1,528,537,502,-1,502,537,538,-1,502,538,503,-1,512,525,502,-1,502,525,447,-1,502,447,501,-1,501,447,531,-1,501,531,499,-1,514,530,513,-1,513,530,447,-1,513,447,539,-1,448,491,447,-1,447,491,493,-1,447,493,539,-1,539,493,540,-1,539,540,541,-1,443,442,113,-1,113,442,114,-1,435,434,506,-1,506,434,507,-1,14,13,440,-1,440,13,441,-1,507,434,470,-1,470,434,114,-1,470,114,442,-1,541,540,80,-1,80,540,81,-1,441,13,493,-1,493,13,81,-1,493,81,540,-1,
        ]
    }
}
Shape{
    appearance Appearance {
        material  Material 	{
            diffuseColor 0.6901960784313725 0.611764705882353 0.5294117647058824
            specularColor 0.5529411764705883 0.49019607843137253 0.4235294117647059
            ambientIntensity 0.6258
            transparency 0.0
            shininess 0.5
        }
    }
    geometry IndexedFaceSet {
        ccw TRUE
        solid FALSE
        coord DEF co Coordinate {
            point [
                -1.6141 0.4094 0.3937, -1.6141 0.4094 0.3898, -1.8307 0.4094 0.3898, -1.6141 0.4094 0.0039, -1.6141 0.4094 0.0, -1.8307 0.4094 0.0039, -1.87 0.4094 0.0, -1.87 0.4094 0.3937, -1.6141 -0.4094 0.3937, -1.6141 -0.4094 0.3898, -1.6141 -0.4094 0.0, -1.6141 -0.4094 0.0039, -1.8307 -0.4094 0.0039, -1.8307 -0.4094 0.3898, -1.87 -0.4094 0.3937, -1.87 -0.4094 0.0, -1.6141 -0.0376 0.0039, 1.6142 0.4094 0.0, 1.6142 0.4094 0.0039, 1.8308 0.4094 0.0039, 1.6142 0.4094 0.3898, 1.6142 0.4094 0.3937, 1.8308 0.4094 0.3898, 1.8701 0.4094 0.3937, 1.8701 0.4094 0.0, 1.6142 -0.4094 0.3937, 1.6142 -0.4094 0.3898, 1.8308 -0.4094 0.3898, 1.6142 -0.4094 0.0039, 1.6142 -0.4094 0.0, 1.8308 -0.4094 0.0039, 1.8701 -0.4094 0.0, 1.8701 -0.4094 0.3937, 1.6142 -0.0376 0.0039
            ]
        }
        coordIndex [
            0,1,2,-1,3,4,5,-1,5,4,6,-1,5,6,2,-1,2,6,7,-1,2,7,0,-1,0,8,1,-1,1,8,9,-1,10,11,12,-1,9,8,13,-1,13,8,14,-1,13,14,12,-1,12,14,15,-1,12,15,10,-1,7,6,14,-1,14,6,15,-1,11,10,16,-1,16,10,4,-1,16,4,3,-1,4,10,6,-1,6,10,15,-1,8,0,14,-1,14,0,7,-1,17,18,19,-1,20,21,22,-1,22,21,23,-1,22,23,19,-1,19,23,24,-1,19,24,17,-1,25,26,27,-1,28,29,30,-1,30,29,31,-1,30,31,27,-1,27,31,32,-1,27,32,25,-1,25,21,26,-1,26,21,20,-1,32,31,23,-1,23,31,24,-1,18,17,33,-1,33,17,29,-1,33,29,28,-1,31,29,24,-1,24,29,17,-1,25,32,21,-1,21,32,23,-1,
        ]
    }
}
Shape{
    appearance Appearance {
        material  Material 	{
            diffuseColor 1.0 1.0 1.0
            specularColor 0.8784313725490196 0.8784313725490196 0.8784313725490196
            ambientIntensity 1.0
            transparency 0.0
            shininess 0.5
        }
    }
    geometry IndexedFaceSet {
        ccw TRUE
        solid FALSE
        coord DEF co Coordinate {
            point [
                -0.1334 0.0416 0.0079, -0.1642 -0.0371 0.0079, -0.1334 0.0416 0.0039, -0.1642 -0.0371 0.0039, -0.1526 -0.0371 0.0079, -0.1526 -0.0371 0.0039, -0.1447 -0.015 0.0079, -0.1447 -0.015 0.0039, -0.1121 -0.015 0.0079, -0.1121 -0.015 0.0039, -0.1046 -0.0371 0.0079, -0.1046 -0.0371 0.0039, -0.0931 -0.0371 0.0079, -0.0931 -0.0371 0.0039, -0.1229 0.0416 0.0079, -0.1229 0.0416 0.0039, -0.1148 -0.0064 0.0079, -0.1411 -0.0064 0.0079, -0.1265 0.0265 0.0079, -0.1273 0.0293 0.0079, -0.1278 0.032 0.0079, -0.1281 0.032 0.0079, -0.1286 0.0293 0.0079, -0.1293 0.0265 0.0079, -0.1148 -0.0064 0.0039, -0.1411 -0.0064 0.0039, -0.1265 0.0265 0.0039, -0.1273 0.0293 0.0039, -0.1278 0.032 0.0039, -0.1281 0.032 0.0039, -0.1286 0.0293 0.0039, -0.1293 0.0265 0.0039, -0.0454 -0.0371 0.0079, -0.024 -0.0371 0.0079, -0.0454 -0.0371 0.0039, -0.024 -0.0371 0.0039, -0.024 0.0416 0.0079, -0.024 0.0416 0.0039, -0.0462 0.0416 0.0079, -0.0462 0.0416 0.0039, -0.0873 0.0033 0.0079, -0.0873 0.0033 0.0039, -0.0868 0.0107 0.0039, -0.0868 0.0107 0.0079, -0.0846 0.0184 0.0039, -0.0846 0.0184 0.0079, -0.081 0.0252 0.0039, -0.081 0.0252 0.0079, -0.0754 0.0314 0.0039, -0.0754 0.0314 0.0079, -0.0753 0.0315 0.0039, -0.0753 0.0315 0.0079, -0.0668 0.0372 0.0039, -0.0668 0.0372 0.0079, -0.0576 0.0404 0.0039, -0.0576 0.0404 0.0079, -0.0551 -0.0362 0.0039, -0.0551 -0.0362 0.0079, -0.0642 -0.0335 0.0039, -0.0642 -0.0335 0.0079, -0.0724 -0.0288 0.0039, -0.0724 -0.0288 0.0079, -0.0789 -0.0226 0.0039, -0.0789 -0.0226 0.0079, -0.0834 -0.0155 0.0039, -0.0834 -0.0155 0.0079, -0.0862 -0.0073 0.0039, -0.0862 -0.0073 0.0079, -0.0715 0.022 0.0079, -0.0677 0.026 0.0079, -0.062 0.0297 0.0079, -0.0555 0.032 0.0079, -0.0461 0.033 0.0079, -0.0345 0.033 0.0079, -0.0345 -0.0284 0.0079, -0.0457 -0.0284 0.0079, -0.054 -0.0277 0.0079, -0.0606 -0.0256 0.0079, -0.066 -0.0224 0.0079, -0.0704 -0.0181 0.0079, -0.0737 -0.0126 0.0079, -0.076 -0.0052 0.0079, -0.0768 0.003 0.0079, -0.0761 0.0109 0.0079, -0.0743 0.0171 0.0079, -0.0461 0.033 0.0039, -0.0345 0.033 0.0039, -0.0555 0.032 0.0039, -0.062 0.0297 0.0039, -0.0677 0.026 0.0039, -0.0715 0.022 0.0039, -0.0743 0.0171 0.0039, -0.0761 0.0109 0.0039, -0.0768 0.003 0.0039, -0.076 -0.0052 0.0039, -0.0737 -0.0126 0.0039, -0.0704 -0.0181 0.0039, -0.066 -0.0224 0.0039, -0.0606 -0.0256 0.0039, -0.054 -0.0277 0.0039, -0.0457 -0.0284 0.0039, -0.0345 -0.0284 0.0039, -0.0086 -0.0284 0.0079, -0.0086 -0.0371 0.0079, -0.0086 -0.0284 0.0039, -0.0086 -0.0371 0.0039, 0.0337 -0.0371 0.0079, 0.0337 -0.0371 0.0039, 0.0337 0.0416 0.0079, 0.0337 0.0416 0.0039, -0.0067 0.0416 0.0079, -0.0067 0.0416 0.0039, -0.0067 0.033 0.0079, -0.0067 0.033 0.0039, 0.0231 0.033 0.0079, 0.0231 0.033 0.0039, 0.0231 0.0071 0.0079, 0.0231 0.0071 0.0039, -0.0048 0.0071 0.0079, -0.0048 0.0071 0.0039, -0.0048 -0.0016 0.0079, -0.0048 -0.0016 0.0039, 0.0231 -0.0016 0.0079, 0.0231 -0.0016 0.0039, 0.0231 -0.0284 0.0079, 0.0231 -0.0284 0.0039, 0.049 -0.0244 0.0079, 0.049 -0.033 0.0079, 0.049 -0.0244 0.0039, 0.049 -0.033 0.0039, 0.0574 -0.0365 0.0079, 0.0707 -0.0381 0.0079, 0.0707 -0.0381 0.0039, 0.0685 -0.038 0.0039, 0.0685 -0.038 0.0079, 0.0654 -0.0376 0.0039, 0.0574 -0.0365 0.0039, 0.1076 0.0008 0.0079, 0.1076 0.0008 0.0039, 0.1068 -0.0083 0.0039, 0.1068 -0.0083 0.0079, 0.1045 -0.0167 0.0039, 0.1045 -0.0167 0.0079, 0.1003 -0.0241 0.0039, 0.1003 -0.0241 0.0079, 0.0944 -0.0304 0.0039, 0.0944 -0.0304 0.0079, 0.088 -0.0344 0.0039, 0.088 -0.0344 0.0079, 0.0804 -0.037 0.0039, 0.0804 -0.037 0.0079, 0.0753 -0.0376 0.0039, 0.0676 0.0426 0.0079, 0.0676 0.0426 0.0039, 0.0755 0.042 0.0039, 0.0755 0.042 0.0079, 0.0842 0.0394 0.0039, 0.0842 0.0394 0.0079, 0.0917 0.0351 0.0039, 0.0917 0.0351 0.0079, 0.0988 0.0283 0.0039, 0.0988 0.0283 0.0079, 0.1034 0.0209 0.0039, 0.1034 0.0209 0.0079, 0.1065 0.012 0.0039, 0.1065 0.012 0.0079, 0.049 0.0395 0.0079, 0.049 0.0395 0.0039, 0.0581 0.042 0.0039, 0.0581 0.042 0.0079, 0.049 0.0289 0.0079, 0.049 0.0289 0.0039, 0.0675 0.034 0.0079, 0.0675 0.034 0.0039, 0.0579 0.0327 0.0039, 0.0579 0.0327 0.0079, 0.097 0.0014 0.0079, 0.097 0.0014 0.0039, 0.0967 0.0076 0.0039, 0.0967 0.0076 0.0079, 0.0946 0.016 0.0039, 0.0946 0.016 0.0079, 0.0913 0.0221 0.0039, 0.0913 0.0221 0.0079, 0.0866 0.0273 0.0039, 0.0866 0.0273 0.0079, 0.0811 0.031 0.0039, 0.0811 0.031 0.0079, 0.0752 0.0331 0.0039, 0.0752 0.0331 0.0079, 0.0692 -0.0294 0.0079, 0.0692 -0.0294 0.0039, 0.0766 -0.0286 0.0039, 0.0766 -0.0286 0.0079, 0.0823 -0.0265 0.0039, 0.0823 -0.0265 0.0079, 0.0871 -0.0232 0.0039, 0.0871 -0.0232 0.0079, 0.0908 -0.0193 0.0039, 0.0908 -0.0193 0.0079, 0.0941 -0.0139 0.0039, 0.0941 -0.0139 0.0079, 0.0962 -0.0071 0.0039, 0.0962 -0.0071 0.0079, 0.0504 -0.0251 0.0039, 0.0504 -0.0251 0.0079, 0.0588 -0.0282 0.0039, 0.0588 -0.0282 0.0079, 0.1143 -0.0284 0.0079, 0.1143 -0.0371 0.0079, 0.1143 -0.0284 0.0039, 0.1143 -0.0371 0.0039, 0.1546 -0.0371 0.0079, 0.1546 -0.0371 0.0039, 0.1546 0.0416 0.0079, 0.1546 0.0416 0.0039, 0.1441 0.0416 0.0079, 0.1441 0.0416 0.0039, 0.1441 -0.0284 0.0079, 0.1441 -0.0284 0.0039
            ]
        }
        coordIndex [
            0,1,2,-1,2,1,3,-1,1,4,3,-1,3,4,5,-1,4,6,5,-1,5,6,7,-1,6,8,7,-1,7,8,9,-1,8,10,9,-1,9,10,11,-1,10,12,11,-1,11,12,13,-1,12,14,13,-1,13,14,15,-1,14,0,15,-1,15,0,2,-1,16,8,17,-1,17,8,6,-1,18,14,16,-1,16,14,12,-1,16,12,8,-1,8,12,10,-1,18,19,14,-1,14,19,20,-1,14,20,0,-1,0,20,21,-1,0,21,22,-1,22,23,0,-1,0,23,17,-1,0,17,1,-1,1,17,6,-1,1,6,4,-1,16,17,24,-1,24,17,25,-1,18,16,26,-1,26,16,24,-1,18,26,27,-1,18,27,19,-1,19,27,28,-1,19,28,20,-1,21,20,29,-1,29,20,28,-1,21,29,30,-1,21,30,22,-1,22,30,31,-1,22,31,23,-1,17,23,25,-1,25,23,31,-1,32,33,34,-1,34,33,35,-1,33,36,35,-1,35,36,37,-1,36,38,37,-1,37,38,39,-1,40,41,42,-1,40,42,43,-1,43,42,44,-1,43,44,45,-1,45,44,46,-1,45,46,47,-1,47,46,48,-1,47,48,49,-1,49,48,50,-1,49,50,51,-1,51,50,52,-1,51,52,53,-1,53,52,54,-1,53,54,55,-1,55,54,39,-1,55,39,38,-1,32,34,56,-1,32,56,57,-1,57,56,58,-1,57,58,59,-1,59,58,60,-1,59,60,61,-1,61,60,62,-1,61,62,63,-1,63,62,64,-1,63,64,65,-1,65,64,66,-1,65,66,67,-1,67,66,41,-1,67,41,40,-1,45,47,68,-1,68,47,49,-1,68,49,69,-1,69,49,51,-1,69,51,70,-1,70,51,53,-1,70,53,71,-1,71,53,55,-1,71,55,72,-1,72,55,38,-1,72,38,73,-1,73,38,36,-1,73,36,74,-1,74,36,33,-1,74,33,75,-1,75,33,32,-1,75,32,76,-1,76,32,57,-1,76,57,77,-1,77,57,59,-1,77,59,78,-1,78,59,61,-1,78,61,79,-1,79,61,63,-1,79,63,80,-1,80,63,65,-1,80,65,81,-1,81,65,67,-1,81,67,82,-1,82,67,40,-1,82,40,83,-1,83,40,43,-1,83,43,84,-1,84,43,45,-1,84,45,68,-1,72,73,85,-1,85,73,86,-1,72,85,87,-1,72,87,71,-1,71,87,88,-1,71,88,70,-1,70,88,89,-1,70,89,69,-1,69,89,90,-1,69,90,68,-1,68,90,91,-1,68,91,84,-1,84,91,92,-1,84,92,83,-1,83,92,93,-1,83,93,82,-1,82,93,94,-1,82,94,81,-1,81,94,95,-1,81,95,80,-1,80,95,96,-1,80,96,79,-1,79,96,97,-1,79,97,78,-1,78,97,98,-1,78,98,77,-1,77,98,99,-1,77,99,76,-1,76,99,100,-1,76,100,75,-1,74,75,101,-1,101,75,100,-1,73,74,86,-1,86,74,101,-1,102,103,104,-1,104,103,105,-1,103,106,105,-1,105,106,107,-1,106,108,107,-1,107,108,109,-1,108,110,109,-1,109,110,111,-1,110,112,111,-1,111,112,113,-1,112,114,113,-1,113,114,115,-1,114,116,115,-1,115,116,117,-1,116,118,117,-1,117,118,119,-1,118,120,119,-1,119,120,121,-1,120,122,121,-1,121,122,123,-1,122,124,123,-1,123,124,125,-1,124,102,125,-1,125,102,104,-1,106,103,102,-1,102,124,106,-1,106,124,122,-1,106,122,108,-1,112,110,114,-1,114,110,108,-1,114,108,116,-1,116,108,122,-1,116,122,118,-1,118,122,120,-1,126,127,128,-1,128,127,129,-1,129,127,130,-1,131,132,133,-1,131,133,134,-1,134,133,135,-1,134,135,130,-1,130,135,136,-1,130,136,129,-1,137,138,139,-1,137,139,140,-1,140,139,141,-1,140,141,142,-1,142,141,143,-1,142,143,144,-1,144,143,145,-1,144,145,146,-1,146,145,147,-1,146,147,148,-1,148,147,149,-1,148,149,150,-1,150,149,131,-1,131,149,151,-1,131,151,132,-1,152,153,154,-1,152,154,155,-1,155,154,156,-1,155,156,157,-1,157,156,158,-1,157,158,159,-1,159,158,160,-1,159,160,161,-1,161,160,162,-1,161,162,163,-1,163,162,164,-1,163,164,165,-1,165,164,138,-1,165,138,137,-1,166,167,168,-1,166,168,169,-1,169,168,153,-1,169,153,152,-1,166,170,167,-1,167,170,171,-1,172,173,174,-1,172,174,175,-1,175,174,171,-1,175,171,170,-1,176,177,178,-1,176,178,179,-1,179,178,180,-1,179,180,181,-1,181,180,182,-1,181,182,183,-1,183,182,184,-1,183,184,185,-1,185,184,186,-1,185,186,187,-1,187,186,188,-1,187,188,189,-1,189,188,173,-1,189,173,172,-1,190,191,192,-1,190,192,193,-1,193,192,194,-1,193,194,195,-1,195,194,196,-1,195,196,197,-1,197,196,198,-1,197,198,199,-1,199,198,200,-1,199,200,201,-1,201,200,202,-1,201,202,203,-1,203,202,177,-1,203,177,176,-1,126,128,204,-1,126,204,205,-1,205,204,206,-1,205,206,207,-1,207,206,191,-1,207,191,190,-1,193,131,190,-1,190,131,134,-1,190,134,207,-1,207,134,130,-1,207,130,205,-1,205,130,127,-1,205,127,126,-1,170,166,175,-1,175,166,169,-1,175,169,172,-1,172,169,152,-1,172,152,189,-1,189,152,155,-1,189,155,187,-1,187,155,157,-1,187,157,185,-1,185,157,159,-1,185,159,183,-1,183,159,161,-1,183,161,181,-1,181,161,163,-1,181,163,179,-1,179,163,165,-1,179,165,176,-1,176,165,137,-1,176,137,203,-1,203,137,140,-1,203,140,201,-1,201,140,142,-1,201,142,199,-1,199,142,144,-1,199,144,197,-1,197,144,146,-1,197,146,195,-1,195,146,148,-1,195,148,193,-1,193,148,150,-1,193,150,131,-1,208,209,210,-1,210,209,211,-1,209,212,211,-1,211,212,213,-1,212,214,213,-1,213,214,215,-1,214,216,215,-1,215,216,217,-1,216,218,217,-1,217,218,219,-1,218,208,219,-1,219,208,210,-1,216,214,218,-1,218,214,212,-1,218,212,208,-1,208,212,209,-1,
        ]
    }
}
Shape{
    appearance Appearance {
        material  Material 	{
            diffuseColor 1.0 0.9215686274509803 0.6862745098039216
            specularColor 0.30196078431372547 0.2784313725490196 0.20392156862745098
            ambientIntensity 0.9182
            transparency 0.0
            shininess 0.5
        }
    }
    geometry IndexedFaceSet {
        ccw TRUE
        solid FALSE
        coord DEF co Coordinate {
            point [
                -0.1148 -0.0064 0.0039, -0.1411 -0.0064 0.0039, -0.1265 0.0265 0.0039, -0.1293 0.0265 0.0039, -0.1273 0.0293 0.0039, -0.1286 0.0293 0.0039, -0.1278 0.032 0.0039, -0.1281 0.032 0.0039, -0.0345 0.033 0.0039, -0.0345 -0.0284 0.0039, -0.0461 0.033 0.0039, -0.0457 -0.0284 0.0039, -0.054 -0.0277 0.0039, -0.0768 0.003 0.0039, -0.0761 0.0109 0.0039, -0.0743 0.0171 0.0039, -0.0555 0.032 0.0039, -0.0606 -0.0256 0.0039, -0.066 -0.0224 0.0039, -0.0704 -0.0181 0.0039, -0.0737 -0.0126 0.0039, -0.076 -0.0052 0.0039, -0.0715 0.022 0.0039, -0.0677 0.026 0.0039, -0.062 0.0297 0.0039
            ]
        }
        coordIndex [
            0,1,2,-1,2,1,3,-1,2,3,4,-1,4,3,5,-1,4,5,6,-1,6,5,7,-1,8,9,10,-1,10,9,11,-1,10,11,12,-1,13,14,10,-1,10,14,15,-1,10,15,16,-1,12,17,10,-1,10,17,18,-1,10,18,19,-1,19,20,10,-1,10,20,21,-1,10,21,13,-1,22,23,15,-1,15,23,24,-1,15,24,16,-1,
        ]
    }
}
Shape{
    appearance Appearance {
        material  Material 	{
            diffuseColor 0.9686274509803922 0.06274509803921569 0.0
            specularColor 0.48627450980392156 0.03137254901960784 0.0
            ambientIntensity 0.3265
            transparency 0.0
            shininess 0.5
        }
    }
    geometry IndexedFaceSet {
        ccw TRUE
        solid FALSE
        coord DEF co Coordinate {
            point [
                1.4567 -0.0361 0.3898, 1.4567 -0.0361 0.3937, 1.4567 -0.1532 0.3898, 1.4567 -0.1715 0.3937, 1.4567 -0.1715 0.3898, 1.3814 0.0552 0.3898, 1.3814 0.0552 0.3937, 1.4008 0.0533 0.3937, 1.4561 -0.0208 0.3898, 1.4561 -0.0208 0.3937, 1.4508 0.007 0.3898, 1.4508 0.007 0.3937, 1.4437 0.0229 0.3898, 1.4437 0.0229 0.3937, 1.439 0.0299 0.3898, 1.439 0.0299 0.3937, 1.4284 0.0407 0.3898, 1.4284 0.0407 0.3937, 1.4162 0.0483 0.3898, 1.4162 0.0483 0.3937, 1.401 0.0532 0.3898, 1.4008 0.0533 0.3898, 1.3692 0.0545 0.3898, 1.3692 0.0545 0.3937, 1.3642 0.0532 0.3898, 1.3513 0.0501 0.3937, 1.3513 0.0501 0.3898, 1.3356 0.0421 0.3898, 1.3356 0.0421 0.3937, 1.3213 0.0297 0.3898, 1.3213 0.0297 0.3937, 1.3078 0.011 0.3898, 1.3078 0.011 0.3937, 1.3069 0.011 0.3937, 1.3069 0.011 0.3898, 1.3069 0.0513 0.3937, 1.3069 0.0513 0.3898, 1.2685 0.0513 0.3937, 1.2685 0.0513 0.3898, 1.2685 -0.1715 0.3898, 1.2685 -0.1715 0.3937, 1.2685 -0.1532 0.3898, 1.3069 -0.1715 0.3937, 1.3069 -0.1715 0.3898, 1.3069 -0.0465 0.3898, 1.3069 -0.0465 0.3937, 1.3069 -0.1532 0.3898, 1.3076 -0.0354 0.3898, 1.3076 -0.0354 0.3937, 1.3112 -0.0201 0.3898, 1.3112 -0.0201 0.3937, 1.3186 -0.0053 0.3898, 1.3186 -0.0053 0.3937, 1.3288 0.0065 0.3898, 1.3288 0.0065 0.3937, 1.3396 0.0141 0.3898, 1.3396 0.0141 0.3937, 1.3517 0.0187 0.3898, 1.3517 0.0187 0.3937, 1.3673 0.0206 0.3898, 1.3673 0.0206 0.3937, 1.3735 0.0204 0.3898, 1.3735 0.0204 0.3937, 1.3861 0.0177 0.3898, 1.3861 0.0177 0.3937, 1.3923 0.0151 0.3898, 1.3923 0.0151 0.3937, 1.4005 0.0093 0.3898, 1.4005 0.0093 0.3937, 1.4066 0.0024 0.3898, 1.4066 0.0024 0.3937, 1.4122 -0.0083 0.3898, 1.4122 -0.0083 0.3937, 1.4166 -0.0245 0.3898, 1.4166 -0.0245 0.3937, 1.4183 -0.0469 0.3898, 1.4183 -0.0469 0.3937, 1.4183 -0.1715 0.3898, 1.4183 -0.1715 0.3937, 1.4183 -0.1532 0.3898, 1.0726 0.0513 0.3898, 1.0726 0.0513 0.3937, 1.0726 -0.1532 0.3898, 1.0726 -0.1715 0.3937, 1.0726 -0.1715 0.3898, 1.0342 0.0513 0.3937, 1.0342 0.0513 0.3898, 1.0342 -0.0748 0.3937, 1.0342 -0.0748 0.3898, 1.033 -0.0894 0.3898, 1.033 -0.0894 0.3937, 1.0287 -0.1047 0.3898, 1.0287 -0.1047 0.3937, 1.0216 -0.1175 0.3898, 1.0216 -0.1175 0.3937, 1.0123 -0.1277 0.3898, 1.0123 -0.1277 0.3937, 1.0018 -0.1349 0.3898, 1.0018 -0.1349 0.3937, 0.9907 -0.139 0.3898, 0.9907 -0.139 0.3937, 0.9757 -0.1407 0.3898, 0.9757 -0.1407 0.3937, 0.9722 -0.1407 0.3898, 0.9722 -0.1407 0.3937, 0.9585 -0.1386 0.3898, 0.9585 -0.1386 0.3937, 0.9477 -0.1341 0.3898, 0.9477 -0.1341 0.3937, 0.9401 -0.1285 0.3898, 0.9401 -0.1285 0.3937, 0.9337 -0.1207 0.3898, 0.9337 -0.1207 0.3937, 0.9283 -0.1099 0.3898, 0.9283 -0.1099 0.3937, 0.9244 -0.0947 0.3898, 0.9244 -0.0947 0.3937, 0.9228 -0.074 0.3898, 0.9228 -0.074 0.3937, 0.9228 0.0513 0.3937, 0.9228 0.0513 0.3898, 0.8844 0.0513 0.3937, 0.8844 0.0513 0.3898, 0.8844 -0.0812 0.3937, 0.8844 -0.0812 0.3898, 0.8846 -0.089 0.3898, 0.8846 -0.089 0.3937, 0.8893 -0.1218 0.3898, 0.8893 -0.1218 0.3937, 0.8972 -0.1415 0.3898, 0.8972 -0.1415 0.3937, 0.9034 -0.1507 0.3898, 0.9034 -0.1507 0.3937, 0.9061 -0.1532 0.3898, 0.9146 -0.1613 0.3937, 0.9146 -0.1613 0.3898, 0.9275 -0.1687 0.3898, 0.9275 -0.1687 0.3937, 0.9435 -0.1734 0.3898, 0.9435 -0.1734 0.3937, 0.9642 -0.1753 0.3898, 0.9642 -0.1753 0.3937, 1.0091 -0.1619 0.3898, 0.9942 -0.17 0.3937, 0.9942 -0.17 0.3898, 0.9778 -0.1743 0.3937, 0.9778 -0.1743 0.3898, 1.0186 -0.1532 0.3898, 1.0217 -0.1503 0.3937, 1.0091 -0.1619 0.3937, 1.0217 -0.1503 0.3898, 1.0334 -0.133 0.3898, 1.0334 -0.133 0.3937, 1.0342 -0.133 0.3937, 1.0342 -0.133 0.3898, 1.0342 -0.1715 0.3898, 1.0342 -0.1715 0.3937, 1.0342 -0.1532 0.3898, 0.5618 -0.1215 0.3937, 0.5618 -0.1215 0.3898, 0.5618 -0.1638 0.3937, 0.5618 -0.1532 0.3898, 0.5618 -0.1638 0.3898, 0.592 -0.1727 0.3898, 0.592 -0.1727 0.3937, 0.6235 -0.1753 0.3898, 0.6235 -0.1753 0.3937, 0.6881 -0.1589 0.3898, 0.6731 -0.1667 0.3937, 0.6731 -0.1667 0.3898, 0.6476 -0.1736 0.3937, 0.6476 -0.1736 0.3898, 0.695 -0.1532 0.3898, 0.7008 -0.1483 0.3937, 0.6881 -0.1589 0.3937, 0.7008 -0.1483 0.3898, 0.7083 -0.138 0.3898, 0.7083 -0.138 0.3937, 0.7131 -0.1266 0.3898, 0.7131 -0.1266 0.3937, 0.7154 -0.1094 0.3898, 0.7154 -0.1094 0.3937, 0.7148 -0.1004 0.3898, 0.7148 -0.1004 0.3937, 0.7119 -0.0885 0.3898, 0.7119 -0.0885 0.3937, 0.7066 -0.0782 0.3898, 0.7066 -0.0782 0.3937, 0.6987 -0.0691 0.3898, 0.6987 -0.0691 0.3937, 0.6855 -0.0595 0.3898, 0.6855 -0.0595 0.3937, 0.6512 -0.0437 0.3898, 0.6512 -0.0437 0.3937, 0.6258 -0.0336 0.3898, 0.6258 -0.0336 0.3937, 0.6133 -0.0267 0.3898, 0.6133 -0.0267 0.3937, 0.6094 -0.023 0.3898, 0.6094 -0.023 0.3937, 0.6065 -0.0185 0.3898, 0.6065 -0.0185 0.3937, 0.6047 -0.0136 0.3898, 0.6047 -0.0136 0.3937, 0.604 -0.007 0.3898, 0.604 -0.007 0.3937, 0.6042 -0.005 0.3898, 0.6042 -0.005 0.3937, 0.605 -0.0003 0.3898, 0.605 -0.0003 0.3937, 0.6068 0.0038 0.3898, 0.6068 0.0038 0.3937, 0.6103 0.0084 0.3898, 0.6103 0.0084 0.3937, 0.6155 0.0127 0.3898, 0.6155 0.0127 0.3937, 0.6208 0.0156 0.3898, 0.6208 0.0156 0.3937, 0.6318 0.0191 0.3898, 0.6318 0.0191 0.3937, 0.647 0.0206 0.3898, 0.647 0.0206 0.3937, 0.6554 0.0203 0.3898, 0.6554 0.0203 0.3937, 0.6804 0.0158 0.3898, 0.6804 0.0158 0.3937, 0.7039 0.0052 0.3898, 0.7039 0.0052 0.3937, 0.7039 0.0436 0.3937, 0.7039 0.0436 0.3898, 0.6502 0.0552 0.3898, 0.6502 0.0552 0.3937, 0.6691 0.0532 0.3898, 0.6777 0.0524 0.3937, 0.6777 0.0524 0.3898, 0.6269 0.0533 0.3898, 0.6269 0.0533 0.3937, 0.6268 0.0532 0.3898, 0.6048 0.0471 0.3937, 0.6048 0.0471 0.3898, 0.5879 0.0381 0.3898, 0.5879 0.0381 0.3937, 0.5755 0.0276 0.3898, 0.5755 0.0276 0.3937, 0.5681 0.0173 0.3898, 0.5681 0.0173 0.3937, 0.5637 0.0062 0.3898, 0.5637 0.0062 0.3937, 0.5618 -0.0088 0.3898, 0.5618 -0.0088 0.3937, 0.5621 -0.0142 0.3898, 0.5621 -0.0142 0.3937, 0.5645 -0.0272 0.3898, 0.5645 -0.0272 0.3937, 0.57 -0.0392 0.3898, 0.57 -0.0392 0.3937, 0.5768 -0.0477 0.3898, 0.5768 -0.0477 0.3937, 0.588 -0.0561 0.3898, 0.588 -0.0561 0.3937, 0.6217 -0.0723 0.3898, 0.6217 -0.0723 0.3937, 0.641 -0.0797 0.3898, 0.641 -0.0797 0.3937, 0.6611 -0.09 0.3898, 0.6611 -0.09 0.3937, 0.6668 -0.095 0.3898, 0.6668 -0.095 0.3937, 0.6704 -0.1 0.3898, 0.6704 -0.1 0.3937, 0.6723 -0.105 0.3898, 0.6723 -0.105 0.3937, 0.6732 -0.1117 0.3898, 0.6732 -0.1117 0.3937, 0.6724 -0.1189 0.3898, 0.6724 -0.1189 0.3937, 0.6704 -0.1242 0.3898, 0.6704 -0.1242 0.3937, 0.6674 -0.1285 0.3898, 0.6674 -0.1285 0.3937, 0.6631 -0.1324 0.3898, 0.6631 -0.1324 0.3937, 0.657 -0.1358 0.3898, 0.657 -0.1358 0.3937, 0.6457 -0.1392 0.3898, 0.6457 -0.1392 0.3937, 0.6266 -0.1407 0.3898, 0.6266 -0.1407 0.3937, 0.6222 -0.1406 0.3898, 0.6222 -0.1406 0.3937, 0.5928 -0.1359 0.3898, 0.5928 -0.1359 0.3937, 0.3813 -0.0361 0.3898, 0.3813 -0.0361 0.3937, 0.3813 -0.1532 0.3898, 0.3813 -0.1715 0.3937, 0.3813 -0.1715 0.3898, 0.3059 0.0552 0.3898, 0.3059 0.0552 0.3937, 0.3254 0.0533 0.3937, 0.3807 -0.0208 0.3898, 0.3807 -0.0208 0.3937, 0.3753 0.007 0.3898, 0.3753 0.007 0.3937, 0.3682 0.0229 0.3898, 0.3682 0.0229 0.3937, 0.3635 0.0299 0.3898, 0.3635 0.0299 0.3937, 0.3529 0.0407 0.3898, 0.3529 0.0407 0.3937, 0.3407 0.0483 0.3898, 0.3407 0.0483 0.3937, 0.3255 0.0532 0.3898, 0.3254 0.0533 0.3898, 0.2938 0.0545 0.3898, 0.2938 0.0545 0.3937, 0.2888 0.0532 0.3898, 0.2758 0.0501 0.3937, 0.2758 0.0501 0.3898, 0.2602 0.0421 0.3898, 0.2602 0.0421 0.3937, 0.2458 0.0297 0.3898, 0.2458 0.0297 0.3937, 0.2323 0.011 0.3898, 0.2323 0.011 0.3937, 0.2315 0.011 0.3937, 0.2315 0.011 0.3898, 0.2315 0.0513 0.3937, 0.2315 0.0513 0.3898, 0.1931 0.0513 0.3937, 0.1931 0.0513 0.3898, 0.1931 -0.1715 0.3898, 0.1931 -0.1715 0.3937, 0.1931 -0.1532 0.3898, 0.2315 -0.1715 0.3937, 0.2315 -0.1715 0.3898, 0.2315 -0.0465 0.3898, 0.2315 -0.0465 0.3937, 0.2315 -0.1532 0.3898, 0.2321 -0.0354 0.3898, 0.2321 -0.0354 0.3937, 0.2357 -0.0201 0.3898, 0.2357 -0.0201 0.3937, 0.2431 -0.0053 0.3898, 0.2431 -0.0053 0.3937, 0.2533 0.0065 0.3898, 0.2533 0.0065 0.3937, 0.2641 0.0141 0.3898, 0.2641 0.0141 0.3937, 0.2763 0.0187 0.3898, 0.2763 0.0187 0.3937, 0.2918 0.0206 0.3898, 0.2918 0.0206 0.3937, 0.298 0.0204 0.3898, 0.298 0.0204 0.3937, 0.3106 0.0177 0.3898, 0.3106 0.0177 0.3937, 0.3168 0.0151 0.3898, 0.3168 0.0151 0.3937, 0.325 0.0093 0.3898, 0.325 0.0093 0.3937, 0.3311 0.0024 0.3898, 0.3311 0.0024 0.3937, 0.3368 -0.0083 0.3898, 0.3368 -0.0083 0.3937, 0.3411 -0.0245 0.3898, 0.3411 -0.0245 0.3937, 0.3429 -0.0469 0.3898, 0.3429 -0.0469 0.3937, 0.3429 -0.1715 0.3898, 0.3429 -0.1715 0.3937, 0.3429 -0.1532 0.3898, -0.0451 0.1299 0.3937, -0.0451 0.1299 0.3898, -0.0449 0.1265 0.3898, -0.0449 0.1265 0.3937, -0.0436 0.1207 0.3898, -0.0436 0.1207 0.3937, -0.0408 0.1154 0.3898, -0.0408 0.1154 0.3937, -0.0369 0.111 0.3898, -0.0369 0.111 0.3937, -0.0322 0.1078 0.3898, -0.0322 0.1078 0.3937, -0.027 0.1058 0.3898, -0.027 0.1058 0.3937, -0.0204 0.1051 0.3898, -0.0204 0.1051 0.3937, -0.0012 0.1134 0.3898, -0.0057 0.1094 0.3937, -0.0057 0.1094 0.3898, -0.0111 0.1066 0.3937, -0.0111 0.1066 0.3898, -0.0164 0.1054 0.3937, -0.0164 0.1054 0.3898, 0.001 0.1167 0.3898, 0.0024 0.1186 0.3937, -0.0012 0.1134 0.3937, 0.0024 0.1186 0.3898, 0.004 0.1231 0.3898, 0.004 0.1231 0.3937, 0.0049 0.1299 0.3898, 0.0049 0.1299 0.3937, 0.0045 0.1341 0.3898, 0.0045 0.1341 0.3937, 0.0032 0.1394 0.3898, 0.0032 0.1394 0.3937, 0.001 0.1435 0.3898, 0.0008 0.1439 0.3937, 0.0008 0.1439 0.3898, -0.0037 0.149 0.3898, -0.0037 0.149 0.3937, -0.0041 0.1493 0.3898, -0.0081 0.1521 0.3937, -0.0081 0.1521 0.3898, -0.0137 0.1542 0.3898, -0.0137 0.1542 0.3937, -0.0204 0.155 0.3898, -0.0204 0.155 0.3937, -0.025 0.1546 0.3898, -0.025 0.1546 0.3937, -0.0304 0.153 0.3898, -0.0304 0.153 0.3937, -0.0351 0.1503 0.3898, -0.0351 0.1503 0.3937, -0.0362 0.1493 0.3898, -0.039 0.1467 0.3937, -0.039 0.1467 0.3898, -0.0421 0.1422 0.3898, -0.0421 0.1422 0.3937, -0.0443 0.1366 0.3898, -0.0443 0.1366 0.3937, -0.0028 -0.1715 0.3937, -0.0412 -0.1715 0.3937, -0.0028 -0.1715 0.3898, -0.0412 -0.1715 0.3898, -0.0028 0.0513 0.3898, -0.0028 0.0513 0.3937, -0.0028 -0.1532 0.3898, -0.0412 0.0513 0.3937, -0.0412 0.0513 0.3898, -0.0412 -0.1532 0.3898, -0.2679 -0.1715 0.3937, -0.2294 -0.1715 0.3937, -0.2679 -0.133 0.3937, -0.2294 -0.0289 0.3937, -0.2765 0.0045 0.3937, -0.272 -0.004 0.3937, -0.2335 0.0047 0.3937, -0.2296 -0.0222 0.3937, -0.269 -0.0155 0.3937, -0.2679 -0.0302 0.3937, -0.3677 -0.1068 0.3937, -0.4097 -0.1177 0.3937, -0.3666 -0.1158 0.3937, -0.4072 -0.1317 0.3937, -0.364 -0.1223 0.3937, -0.4018 -0.1444 0.3937, -0.3597 -0.1282 0.3937, -0.2405 0.0217 0.3937, -0.2489 0.0334 0.3937, -0.2822 0.0109 0.3937, -0.2584 0.0417 0.3937, -0.2894 0.0157 0.3937, -0.2715 0.0486 0.3937, -0.2975 0.0187 0.3937, -0.2887 0.0534 0.3937, -0.3109 0.0205 0.3937, -0.3101 0.0552 0.3937, -0.3133 0.0206 0.3937, -0.325 0.0545 0.3937, -0.3417 0.0171 0.3937, -0.3585 0.0469 0.3937, -0.3667 0.0072 0.3937, -0.3869 0.0321 0.3937, -0.3869 -0.0063 0.3937, -0.393 -0.1558 0.3937, -0.3876 -0.1605 0.3937, -0.3531 -0.1338 0.3937, -0.3746 -0.1683 0.3937, -0.3453 -0.1377 0.3937, -0.3587 -0.1733 0.3937, -0.3342 -0.1403 0.3937, -0.3382 -0.1753 0.3937, -0.3268 -0.1407 0.3937, -0.3255 -0.1744 0.3937, -0.3115 -0.139 0.3937, -0.3089 -0.1701 0.3937, -0.2995 -0.1346 0.3937, -0.2944 -0.1624 0.3937, -0.2884 -0.1272 0.3937, -0.2814 -0.1508 0.3937, -0.2783 -0.116 0.3937, -0.2689 -0.133 0.3937, -0.2722 -0.1047 0.3937, -0.2686 -0.0914 0.3937, -0.2679 -0.0805 0.3937, -0.2679 -0.0603 0.3937, -0.3198 -0.0673 0.3937, -0.335 -0.0394 0.3937, -0.3395 -0.0712 0.3937, -0.3435 -0.0408 0.3937, -0.3512 -0.0759 0.3937, -0.3704 -0.0488 0.3937, -0.3577 -0.0805 0.3937, -0.386 -0.058 0.3937, -0.3624 -0.0863 0.3937, -0.3965 -0.0682 0.3937, -0.3657 -0.0931 0.3937, -0.4037 -0.0798 0.3937, -0.3673 -0.1006 0.3937, -0.4082 -0.0935 0.3937, -0.41 -0.1112 0.3937, -0.3869 -0.0063 0.3898, -0.3869 0.0321 0.3898, -0.3667 0.0072 0.3898, -0.3417 0.0171 0.3898, -0.3133 0.0206 0.3898, -0.3109 0.0205 0.3898, -0.2975 0.0187 0.3898, -0.2894 0.0157 0.3898, -0.2822 0.0109 0.3898, -0.2765 0.0045 0.3898, -0.272 -0.004 0.3898, -0.269 -0.0155 0.3898, -0.2679 -0.0302 0.3898, -0.335 -0.0394 0.3898, -0.3435 -0.0408 0.3898, -0.3704 -0.0488 0.3898, -0.386 -0.058 0.3898, -0.3965 -0.0682 0.3898, -0.4037 -0.0798 0.3898, -0.4082 -0.0935 0.3898, -0.41 -0.1112 0.3898, -0.4018 -0.1444 0.3898, -0.4072 -0.1317 0.3898, -0.4097 -0.1177 0.3898, -0.395 -0.1532 0.3898, -0.393 -0.1558 0.3898, -0.3876 -0.1605 0.3898, -0.3746 -0.1683 0.3898, -0.3587 -0.1733 0.3898, -0.3382 -0.1753 0.3898, -0.2944 -0.1624 0.3898, -0.3089 -0.1701 0.3898, -0.3255 -0.1744 0.3898, -0.284 -0.1532 0.3898, -0.2814 -0.1508 0.3898, -0.2689 -0.133 0.3898, -0.2679 -0.133 0.3898, -0.2679 -0.1715 0.3898, -0.2679 -0.1532 0.3898, -0.2294 -0.1715 0.3898, -0.2294 -0.0289 0.3898, -0.2294 -0.1532 0.3898, -0.3101 0.0552 0.3898, -0.2296 -0.0222 0.3898, -0.2335 0.0047 0.3898, -0.2405 0.0217 0.3898, -0.2489 0.0334 0.3898, -0.2584 0.0417 0.3898, -0.2715 0.0486 0.3898, -0.288 0.0532 0.3898, -0.2887 0.0534 0.3898, -0.325 0.0545 0.3898, -0.3304 0.0532 0.3898, -0.3585 0.0469 0.3898, -0.2679 -0.0603 0.3898, -0.3198 -0.0673 0.3898, -0.3677 -0.1068 0.3898, -0.3673 -0.1006 0.3898, -0.3657 -0.0931 0.3898, -0.3624 -0.0863 0.3898, -0.3577 -0.0805 0.3898, -0.3512 -0.0759 0.3898, -0.3395 -0.0712 0.3898, -0.3268 -0.1407 0.3898, -0.3342 -0.1403 0.3898, -0.3453 -0.1377 0.3898, -0.3531 -0.1338 0.3898, -0.3597 -0.1282 0.3898, -0.364 -0.1223 0.3898, -0.3666 -0.1158 0.3898, -0.2679 -0.0805 0.3898, -0.2686 -0.0914 0.3898, -0.2722 -0.1047 0.3898, -0.2783 -0.116 0.3898, -0.2884 -0.1272 0.3898, -0.2995 -0.1346 0.3898, -0.3115 -0.139 0.3898
            ]
        }
        coordIndex [
            0,1,2,-1,2,1,3,-1,2,3,4,-1,5,6,7,-1,1,0,8,-1,1,8,9,-1,9,8,10,-1,9,10,11,-1,11,10,12,-1,11,12,13,-1,13,12,14,-1,13,14,15,-1,15,14,16,-1,15,16,17,-1,17,16,18,-1,17,18,19,-1,19,18,20,-1,19,20,7,-1,7,20,21,-1,7,21,5,-1,6,5,22,-1,6,22,23,-1,23,22,24,-1,23,24,25,-1,24,26,25,-1,25,26,27,-1,25,27,28,-1,28,27,29,-1,28,29,30,-1,30,29,31,-1,30,31,32,-1,33,32,34,-1,34,32,31,-1,35,33,36,-1,36,33,34,-1,37,35,38,-1,38,35,36,-1,39,40,41,-1,41,40,37,-1,41,37,38,-1,42,40,43,-1,43,40,39,-1,44,45,46,-1,46,45,42,-1,46,42,43,-1,45,44,47,-1,45,47,48,-1,48,47,49,-1,48,49,50,-1,50,49,51,-1,50,51,52,-1,52,51,53,-1,52,53,54,-1,54,53,55,-1,54,55,56,-1,56,55,57,-1,56,57,58,-1,58,57,59,-1,58,59,60,-1,60,59,61,-1,60,61,62,-1,62,61,63,-1,62,63,64,-1,64,63,65,-1,64,65,66,-1,66,65,67,-1,66,67,68,-1,68,67,69,-1,68,69,70,-1,70,69,71,-1,70,71,72,-1,72,71,73,-1,72,73,74,-1,74,73,75,-1,74,75,76,-1,77,78,79,-1,79,78,76,-1,79,76,75,-1,3,78,4,-1,4,78,77,-1,35,37,33,-1,33,37,40,-1,33,52,32,-1,32,52,54,-1,32,54,30,-1,30,54,56,-1,42,45,40,-1,40,45,48,-1,40,48,33,-1,33,48,50,-1,33,50,52,-1,70,15,68,-1,68,15,17,-1,68,17,66,-1,66,17,19,-1,66,19,64,-1,64,19,7,-1,64,7,62,-1,62,7,6,-1,62,6,60,-1,60,6,23,-1,60,23,58,-1,58,23,25,-1,58,25,56,-1,56,25,28,-1,56,28,30,-1,78,3,76,-1,76,3,1,-1,76,1,74,-1,74,1,9,-1,74,9,72,-1,72,9,11,-1,72,11,70,-1,70,11,13,-1,70,13,15,-1,80,81,82,-1,82,81,83,-1,82,83,84,-1,85,81,86,-1,86,81,80,-1,87,85,88,-1,88,85,86,-1,87,88,89,-1,87,89,90,-1,90,89,91,-1,90,91,92,-1,92,91,93,-1,92,93,94,-1,94,93,95,-1,94,95,96,-1,96,95,97,-1,96,97,98,-1,98,97,99,-1,98,99,100,-1,100,99,101,-1,100,101,102,-1,102,101,103,-1,102,103,104,-1,104,103,105,-1,104,105,106,-1,106,105,107,-1,106,107,108,-1,108,107,109,-1,108,109,110,-1,110,109,111,-1,110,111,112,-1,112,111,113,-1,112,113,114,-1,114,113,115,-1,114,115,116,-1,116,115,117,-1,116,117,118,-1,119,118,120,-1,120,118,117,-1,121,119,122,-1,122,119,120,-1,123,121,124,-1,124,121,122,-1,123,124,125,-1,123,125,126,-1,126,125,127,-1,126,127,128,-1,128,127,129,-1,128,129,130,-1,130,129,131,-1,130,131,132,-1,132,131,133,-1,132,133,134,-1,133,135,134,-1,134,135,136,-1,134,136,137,-1,137,136,138,-1,137,138,139,-1,139,138,140,-1,139,140,141,-1,142,143,144,-1,144,143,145,-1,144,145,146,-1,146,145,141,-1,146,141,140,-1,147,148,142,-1,142,148,149,-1,142,149,143,-1,147,150,148,-1,148,150,151,-1,148,151,152,-1,153,152,154,-1,154,152,151,-1,155,156,157,-1,157,156,153,-1,157,153,154,-1,83,156,84,-1,84,156,155,-1,156,83,153,-1,153,83,81,-1,153,94,152,-1,152,94,96,-1,152,96,148,-1,148,96,98,-1,85,87,81,-1,81,87,90,-1,81,90,153,-1,153,90,92,-1,153,92,94,-1,112,132,110,-1,110,132,134,-1,110,134,108,-1,108,134,137,-1,108,137,106,-1,106,137,139,-1,106,139,104,-1,104,139,141,-1,104,141,102,-1,102,141,145,-1,102,145,100,-1,100,145,143,-1,100,143,98,-1,98,143,149,-1,98,149,148,-1,119,121,118,-1,118,121,123,-1,118,123,116,-1,116,123,126,-1,116,126,114,-1,114,126,128,-1,114,128,112,-1,112,128,130,-1,112,130,132,-1,158,159,160,-1,160,159,161,-1,160,161,162,-1,160,162,163,-1,160,163,164,-1,164,163,165,-1,164,165,166,-1,167,168,169,-1,169,168,170,-1,169,170,171,-1,171,170,166,-1,171,166,165,-1,172,173,167,-1,167,173,174,-1,167,174,168,-1,172,175,173,-1,173,175,176,-1,173,176,177,-1,177,176,178,-1,177,178,179,-1,179,178,180,-1,179,180,181,-1,181,180,182,-1,181,182,183,-1,183,182,184,-1,183,184,185,-1,185,184,186,-1,185,186,187,-1,187,186,188,-1,187,188,189,-1,189,188,190,-1,189,190,191,-1,191,190,192,-1,191,192,193,-1,193,192,194,-1,193,194,195,-1,195,194,196,-1,195,196,197,-1,197,196,198,-1,197,198,199,-1,199,198,200,-1,199,200,201,-1,201,200,202,-1,201,202,203,-1,203,202,204,-1,203,204,205,-1,205,204,206,-1,205,206,207,-1,207,206,208,-1,207,208,209,-1,209,208,210,-1,209,210,211,-1,211,210,212,-1,211,212,213,-1,213,212,214,-1,213,214,215,-1,215,214,216,-1,215,216,217,-1,217,216,218,-1,217,218,219,-1,219,218,220,-1,219,220,221,-1,221,220,222,-1,221,222,223,-1,223,222,224,-1,223,224,225,-1,225,224,226,-1,225,226,227,-1,228,227,229,-1,229,227,226,-1,230,231,232,-1,232,231,233,-1,232,233,234,-1,234,233,228,-1,234,228,229,-1,231,230,235,-1,231,235,236,-1,236,235,237,-1,236,237,238,-1,237,239,238,-1,238,239,240,-1,238,240,241,-1,241,240,242,-1,241,242,243,-1,243,242,244,-1,243,244,245,-1,245,244,246,-1,245,246,247,-1,247,246,248,-1,247,248,249,-1,249,248,250,-1,249,250,251,-1,251,250,252,-1,251,252,253,-1,253,252,254,-1,253,254,255,-1,255,254,256,-1,255,256,257,-1,257,256,258,-1,257,258,259,-1,259,258,260,-1,259,260,261,-1,261,260,262,-1,261,262,263,-1,263,262,264,-1,263,264,265,-1,265,264,266,-1,265,266,267,-1,267,266,268,-1,267,268,269,-1,269,268,270,-1,269,270,271,-1,271,270,272,-1,271,272,273,-1,273,272,274,-1,273,274,275,-1,275,274,276,-1,275,276,277,-1,277,276,278,-1,277,278,279,-1,279,278,280,-1,279,280,281,-1,281,280,282,-1,281,282,283,-1,283,282,284,-1,283,284,285,-1,285,284,286,-1,285,286,287,-1,287,286,288,-1,287,288,289,-1,289,288,290,-1,289,290,291,-1,291,290,159,-1,291,159,158,-1,227,228,225,-1,225,228,233,-1,225,233,223,-1,223,233,231,-1,247,249,205,-1,205,249,251,-1,205,251,203,-1,203,251,253,-1,203,253,201,-1,201,253,255,-1,201,255,199,-1,199,255,257,-1,199,257,197,-1,197,257,259,-1,197,259,195,-1,195,259,261,-1,195,261,193,-1,193,261,263,-1,193,263,191,-1,191,263,265,-1,191,265,189,-1,189,265,267,-1,189,267,187,-1,187,267,269,-1,187,269,185,-1,185,269,271,-1,185,271,183,-1,241,243,211,-1,211,243,245,-1,211,245,209,-1,209,245,247,-1,209,247,207,-1,207,247,205,-1,211,213,241,-1,241,213,215,-1,241,215,238,-1,238,215,217,-1,238,217,236,-1,236,217,219,-1,236,219,231,-1,231,219,221,-1,231,221,223,-1,158,160,291,-1,291,160,164,-1,291,164,289,-1,289,164,166,-1,183,271,181,-1,181,271,273,-1,181,273,179,-1,179,273,275,-1,179,275,177,-1,177,275,277,-1,177,277,173,-1,173,277,279,-1,173,279,174,-1,174,279,281,-1,174,281,168,-1,168,281,283,-1,168,283,170,-1,170,283,285,-1,170,285,166,-1,166,285,287,-1,166,287,289,-1,292,293,294,-1,294,293,295,-1,294,295,296,-1,297,298,299,-1,293,292,300,-1,293,300,301,-1,301,300,302,-1,301,302,303,-1,303,302,304,-1,303,304,305,-1,305,304,306,-1,305,306,307,-1,307,306,308,-1,307,308,309,-1,309,308,310,-1,309,310,311,-1,311,310,312,-1,311,312,299,-1,299,312,313,-1,299,313,297,-1,298,297,314,-1,298,314,315,-1,315,314,316,-1,315,316,317,-1,316,318,317,-1,317,318,319,-1,317,319,320,-1,320,319,321,-1,320,321,322,-1,322,321,323,-1,322,323,324,-1,325,324,326,-1,326,324,323,-1,327,325,328,-1,328,325,326,-1,329,327,330,-1,330,327,328,-1,331,332,333,-1,333,332,329,-1,333,329,330,-1,334,332,335,-1,335,332,331,-1,336,337,338,-1,338,337,334,-1,338,334,335,-1,337,336,339,-1,337,339,340,-1,340,339,341,-1,340,341,342,-1,342,341,343,-1,342,343,344,-1,344,343,345,-1,344,345,346,-1,346,345,347,-1,346,347,348,-1,348,347,349,-1,348,349,350,-1,350,349,351,-1,350,351,352,-1,352,351,353,-1,352,353,354,-1,354,353,355,-1,354,355,356,-1,356,355,357,-1,356,357,358,-1,358,357,359,-1,358,359,360,-1,360,359,361,-1,360,361,362,-1,362,361,363,-1,362,363,364,-1,364,363,365,-1,364,365,366,-1,366,365,367,-1,366,367,368,-1,369,370,371,-1,371,370,368,-1,371,368,367,-1,295,370,296,-1,296,370,369,-1,327,329,325,-1,325,329,332,-1,325,344,324,-1,324,344,346,-1,324,346,322,-1,322,346,348,-1,334,337,332,-1,332,337,340,-1,332,340,325,-1,325,340,342,-1,325,342,344,-1,362,307,360,-1,360,307,309,-1,360,309,358,-1,358,309,311,-1,358,311,356,-1,356,311,299,-1,356,299,354,-1,354,299,298,-1,354,298,352,-1,352,298,315,-1,352,315,350,-1,350,315,317,-1,350,317,348,-1,348,317,320,-1,348,320,322,-1,370,295,368,-1,368,295,293,-1,368,293,366,-1,366,293,301,-1,366,301,364,-1,364,301,303,-1,364,303,362,-1,362,303,305,-1,362,305,307,-1,372,373,374,-1,372,374,375,-1,375,374,376,-1,375,376,377,-1,377,376,378,-1,377,378,379,-1,379,378,380,-1,379,380,381,-1,381,380,382,-1,381,382,383,-1,383,382,384,-1,383,384,385,-1,385,384,386,-1,385,386,387,-1,388,389,390,-1,390,389,391,-1,390,391,392,-1,392,391,393,-1,392,393,394,-1,394,393,387,-1,394,387,386,-1,395,396,388,-1,388,396,397,-1,388,397,389,-1,395,398,396,-1,396,398,399,-1,396,399,400,-1,400,399,401,-1,400,401,402,-1,402,401,403,-1,402,403,404,-1,404,403,405,-1,404,405,406,-1,406,405,407,-1,406,407,408,-1,407,409,408,-1,408,409,410,-1,408,410,411,-1,411,410,412,-1,411,412,413,-1,412,414,413,-1,413,414,415,-1,413,415,416,-1,416,415,417,-1,416,417,418,-1,418,417,419,-1,418,419,420,-1,420,419,421,-1,420,421,422,-1,422,421,423,-1,422,423,424,-1,424,423,425,-1,424,425,426,-1,425,427,426,-1,426,427,428,-1,426,428,429,-1,429,428,430,-1,429,430,431,-1,431,430,373,-1,431,373,372,-1,402,404,375,-1,387,393,375,-1,387,375,385,-1,375,377,379,-1,416,418,404,-1,404,418,420,-1,404,420,422,-1,379,381,375,-1,375,381,383,-1,375,383,385,-1,404,406,408,-1,422,424,404,-1,404,424,426,-1,404,426,429,-1,393,391,375,-1,375,391,389,-1,375,389,397,-1,397,396,375,-1,375,396,400,-1,375,400,402,-1,408,411,404,-1,404,411,413,-1,404,413,416,-1,429,431,404,-1,404,431,372,-1,404,372,375,-1,432,433,434,-1,434,433,435,-1,436,437,438,-1,438,437,432,-1,438,432,434,-1,439,437,440,-1,440,437,436,-1,435,433,441,-1,441,433,439,-1,441,439,440,-1,437,439,432,-1,432,439,433,-1,442,443,444,-1,444,443,445,-1,446,447,448,-1,448,447,449,-1,449,447,450,-1,449,450,451,-1,452,453,454,-1,454,453,455,-1,454,455,456,-1,456,455,457,-1,456,457,458,-1,448,459,446,-1,446,459,460,-1,446,460,461,-1,461,460,462,-1,461,462,463,-1,463,462,464,-1,463,464,465,-1,465,464,466,-1,465,466,467,-1,467,466,468,-1,467,468,469,-1,469,468,470,-1,469,470,471,-1,471,470,472,-1,471,472,473,-1,473,472,474,-1,473,474,475,-1,457,476,458,-1,458,476,477,-1,458,477,478,-1,478,477,479,-1,478,479,480,-1,480,479,481,-1,480,481,482,-1,482,481,483,-1,482,483,484,-1,484,483,485,-1,484,485,486,-1,486,485,487,-1,486,487,488,-1,488,487,489,-1,488,489,490,-1,490,489,491,-1,490,491,492,-1,492,491,493,-1,492,493,494,-1,494,493,444,-1,494,444,495,-1,495,444,445,-1,495,445,496,-1,496,445,497,-1,445,449,497,-1,497,449,451,-1,497,451,498,-1,498,451,499,-1,498,499,500,-1,500,499,501,-1,500,501,502,-1,502,501,503,-1,502,503,504,-1,504,503,505,-1,504,505,506,-1,506,505,507,-1,506,507,508,-1,508,507,509,-1,508,509,510,-1,510,509,511,-1,510,511,452,-1,452,511,512,-1,452,512,453,-1,475,474,513,-1,513,474,514,-1,475,513,515,-1,475,515,473,-1,473,515,516,-1,473,516,471,-1,471,516,517,-1,471,517,469,-1,469,517,518,-1,469,518,467,-1,467,518,519,-1,467,519,465,-1,465,519,520,-1,465,520,463,-1,463,520,521,-1,463,521,461,-1,461,521,522,-1,461,522,446,-1,446,522,523,-1,446,523,447,-1,447,523,524,-1,447,524,450,-1,450,524,525,-1,450,525,451,-1,499,451,526,-1,526,451,525,-1,499,526,527,-1,499,527,501,-1,501,527,528,-1,501,528,503,-1,503,528,529,-1,503,529,505,-1,505,529,530,-1,505,530,507,-1,507,530,531,-1,507,531,509,-1,509,531,532,-1,509,532,511,-1,511,532,533,-1,511,533,512,-1,534,455,535,-1,535,455,453,-1,535,453,536,-1,536,453,512,-1,536,512,533,-1,537,476,534,-1,534,476,457,-1,534,457,455,-1,537,538,476,-1,476,538,539,-1,476,539,477,-1,477,539,540,-1,477,540,479,-1,479,540,541,-1,479,541,481,-1,481,541,542,-1,481,542,483,-1,543,487,544,-1,544,487,485,-1,544,485,545,-1,545,485,483,-1,545,483,542,-1,546,491,543,-1,543,491,489,-1,543,489,487,-1,546,547,491,-1,491,547,548,-1,491,548,493,-1,444,493,549,-1,549,493,548,-1,550,442,551,-1,551,442,444,-1,551,444,549,-1,443,442,552,-1,552,442,550,-1,553,445,554,-1,554,445,443,-1,554,443,552,-1,555,468,466,-1,445,553,556,-1,445,556,449,-1,449,556,557,-1,449,557,448,-1,448,557,558,-1,448,558,459,-1,459,558,559,-1,459,559,460,-1,460,559,560,-1,460,560,462,-1,462,560,561,-1,462,561,464,-1,464,561,562,-1,464,562,466,-1,466,562,563,-1,466,563,555,-1,514,474,472,-1,468,555,564,-1,468,564,470,-1,470,564,565,-1,470,565,472,-1,472,565,566,-1,472,566,514,-1,497,498,567,-1,567,498,568,-1,452,569,570,-1,452,570,510,-1,510,570,571,-1,510,571,508,-1,508,571,572,-1,508,572,506,-1,506,572,573,-1,506,573,504,-1,504,573,574,-1,504,574,502,-1,502,574,575,-1,502,575,500,-1,500,575,568,-1,500,568,498,-1,484,576,577,-1,484,577,482,-1,482,577,578,-1,482,578,480,-1,480,578,579,-1,480,579,478,-1,478,579,580,-1,478,580,458,-1,458,580,581,-1,458,581,456,-1,456,581,582,-1,456,582,454,-1,454,582,569,-1,454,569,452,-1,496,583,584,-1,496,584,495,-1,495,584,585,-1,495,585,494,-1,494,585,586,-1,494,586,492,-1,492,586,587,-1,492,587,490,-1,490,587,588,-1,490,588,488,-1,488,588,589,-1,488,589,486,-1,486,589,576,-1,486,576,484,-1,496,497,583,-1,583,497,567,-1,
        ]
    }
}
Shape{
    appearance Appearance {
        material  Material 	{
            diffuseColor 1.0 0.9215686274509803 0.6862745098039216
            specularColor 0.30196078431372547 0.2784313725490196 0.20392156862745098
            ambientIntensity 0.9182
            transparency 0.0
            shininess 0.5
        }
    }
    geometry IndexedFaceSet {
        ccw TRUE
        solid FALSE
        coord DEF co Coordinate {
            point [
                -0.2679 -0.0805 0.3898, -0.2679 -0.0603 0.3898, -0.3198 -0.0673 0.3898, -0.2686 -0.0914 0.3898, -0.3657 -0.0931 0.3898, -0.3673 -0.1006 0.3898, -0.3115 -0.139 0.3898, -0.3453 -0.1377 0.3898, -0.3342 -0.1403 0.3898, -0.3677 -0.1068 0.3898, -0.3268 -0.1407 0.3898, -0.3395 -0.0712 0.3898, -0.3512 -0.0759 0.3898, -0.2884 -0.1272 0.3898, -0.2783 -0.116 0.3898, -0.2722 -0.1047 0.3898, -0.2995 -0.1346 0.3898, -0.3577 -0.0805 0.3898, -0.3624 -0.0863 0.3898, -0.3666 -0.1158 0.3898, -0.364 -0.1223 0.3898, -0.3531 -0.1338 0.3898, -0.3597 -0.1282 0.3898
            ]
        }
        coordIndex [
            0,1,2,-1,0,2,3,-1,4,5,6,-1,7,8,9,-1,9,8,5,-1,5,8,10,-1,5,10,6,-1,6,11,12,-1,13,14,2,-1,2,14,15,-1,2,15,3,-1,11,6,2,-1,2,6,16,-1,2,16,13,-1,12,17,6,-1,6,17,18,-1,6,18,4,-1,9,19,7,-1,7,19,20,-1,7,20,21,-1,21,20,22,-1,
        ]
    }
}
Shape{
    appearance Appearance {
        material  Material 	{
            diffuseColor 0.9686274509803922 0.06274509803921569 0.0
            specularColor 0.48627450980392156 0.03137254901960784 0.0
            ambientIntensity 0.3265
            transparency 0.0
            shininess 0.5
        }
    }
    geometry IndexedFaceSet {
        ccw TRUE
        solid FALSE
        coord DEF co Coordinate {
            point [
                -0.7826 0.1435 0.3937, -0.7826 -0.1715 0.3937, -0.7403 -0.037 0.3937, -0.7403 -0.1715 0.3937, -0.6588 -0.0252 0.3937, -0.6588 -0.0242 0.3937, -0.6937 -0.0025 0.3937, -0.6439 0.0203 0.3937, -0.614 -0.0004 0.3937, -0.607 0.0073 0.3937, -0.6155 -0.0705 0.3937, -0.6532 -0.0828 0.3937, -0.612 -0.0762 0.3937, -0.602 -0.1715 0.3937, -0.5559 -0.1715 0.3937, -0.6371 0.0324 0.3937, -0.5982 0.0215 0.3937, -0.6336 0.0451 0.3937, -0.5926 0.0387 0.3937, -0.6328 0.0566 0.3937, -0.5905 0.0601 0.3937, -0.6341 0.0702 0.3937, -0.5914 0.074 0.3937, -0.6375 0.0808 0.3937, -0.7057 -0.0373 0.3937, -0.6946 -0.0396 0.3937, -0.6856 -0.0437 0.3937, -0.6761 -0.0511 0.3937, -0.6445 -0.0336 0.3937, -0.634 -0.0439 0.3937, -0.5954 0.0913 0.3937, -0.6029 0.1065 0.3937, -0.643 0.0896 0.3937, -0.6135 0.119 0.3937, -0.6502 0.0968 0.3937, -0.6211 0.1253 0.3937, -0.6594 0.1025 0.3937, -0.6382 0.1348 0.3937, -0.6738 0.1072 0.3937, -0.6596 0.1411 0.3937, -0.6931 0.1089 0.3937, -0.6875 0.1435 0.3937, -0.7403 0.1089 0.3937, -0.7403 -0.0025 0.3937, -0.7117 -0.037 0.3937, -0.6306 -0.0126 0.3937, -0.6537 0.0103 0.3937, -0.6556 -0.0232 0.3937, -0.6644 0.0036 0.3937, -0.6774 -0.0008 0.3937, -0.612 -0.0762 0.3898, -0.5667 -0.1532 0.3898, -0.5559 -0.1715 0.3898, -0.6155 -0.0705 0.3898, -0.634 -0.0439 0.3898, -0.6445 -0.0336 0.3898, -0.6588 -0.0252 0.3898, -0.6588 -0.0242 0.3898, -0.6556 -0.0232 0.3898, -0.6306 -0.0126 0.3898, -0.614 -0.0004 0.3898, -0.607 0.0073 0.3898, -0.5982 0.0215 0.3898, -0.5926 0.0387 0.3898, -0.5912 0.0532 0.3898, -0.5905 0.0601 0.3898, -0.5914 0.074 0.3898, -0.5928 0.0801 0.3898, -0.5954 0.0913 0.3898, -0.6029 0.1065 0.3898, -0.6135 0.119 0.3898, -0.6211 0.1253 0.3898, -0.6382 0.1348 0.3898, -0.6596 0.1411 0.3898, -0.6875 0.1435 0.3898, -0.7826 0.1435 0.3898, -0.7826 0.0801 0.3898, -0.7826 0.0532 0.3898, -0.7826 -0.1532 0.3898, -0.7826 -0.1715 0.3898, -0.7403 -0.1715 0.3898, -0.7403 -0.037 0.3898, -0.7403 -0.1532 0.3898, -0.7117 -0.037 0.3898, -0.7057 -0.0373 0.3898, -0.6946 -0.0396 0.3898, -0.6856 -0.0437 0.3898, -0.6761 -0.0511 0.3898, -0.6532 -0.0828 0.3898, -0.602 -0.1715 0.3898, -0.6126 -0.1532 0.3898, -0.6931 0.1089 0.3898, -0.7403 0.1089 0.3898, -0.7403 -0.0025 0.3898, -0.6937 -0.0025 0.3898, -0.6328 0.0566 0.3898, -0.6336 0.0451 0.3898, -0.6371 0.0324 0.3898, -0.6439 0.0203 0.3898, -0.6537 0.0103 0.3898, -0.6644 0.0036 0.3898, -0.6774 -0.0008 0.3898, -0.6738 0.1072 0.3898, -0.6594 0.1025 0.3898, -0.6502 0.0968 0.3898, -0.643 0.0896 0.3898, -0.6375 0.0808 0.3898, -0.6341 0.0702 0.3898
            ]
        }
        coordIndex [
            0,1,2,-1,2,1,3,-1,4,5,6,-1,7,8,9,-1,10,11,12,-1,12,11,13,-1,12,13,14,-1,7,9,15,-1,15,9,16,-1,15,16,17,-1,17,16,18,-1,17,18,19,-1,19,18,20,-1,19,20,21,-1,21,20,22,-1,21,22,23,-1,24,25,6,-1,6,25,26,-1,6,26,4,-1,4,26,27,-1,4,27,28,-1,28,27,11,-1,28,11,29,-1,29,11,10,-1,22,30,23,-1,23,30,31,-1,23,31,32,-1,32,31,33,-1,32,33,34,-1,34,33,35,-1,34,35,36,-1,36,35,37,-1,36,37,38,-1,38,37,39,-1,38,39,40,-1,40,39,41,-1,40,41,42,-1,42,41,0,-1,42,0,43,-1,43,0,2,-1,43,2,6,-1,6,2,44,-1,6,44,24,-1,8,7,45,-1,45,7,46,-1,45,46,47,-1,47,46,48,-1,47,48,5,-1,5,48,49,-1,5,49,6,-1,50,12,51,-1,51,12,14,-1,51,14,52,-1,12,50,53,-1,12,53,10,-1,10,53,54,-1,10,54,29,-1,29,54,55,-1,29,55,28,-1,28,55,56,-1,28,56,4,-1,5,4,57,-1,57,4,56,-1,5,57,58,-1,5,58,47,-1,47,58,59,-1,47,59,45,-1,45,59,60,-1,45,60,8,-1,8,60,61,-1,8,61,9,-1,9,61,62,-1,9,62,16,-1,16,62,63,-1,16,63,18,-1,18,63,20,-1,20,63,64,-1,20,64,65,-1,20,65,66,-1,20,66,22,-1,22,66,67,-1,22,67,30,-1,67,68,30,-1,30,68,69,-1,30,69,31,-1,31,69,70,-1,31,70,33,-1,33,70,71,-1,33,71,35,-1,35,71,72,-1,35,72,37,-1,37,72,73,-1,37,73,39,-1,39,73,74,-1,39,74,41,-1,0,41,75,-1,75,41,74,-1,75,76,0,-1,0,76,77,-1,0,77,1,-1,1,77,78,-1,1,78,79,-1,3,1,80,-1,80,1,79,-1,81,2,82,-1,82,2,3,-1,82,3,80,-1,44,2,83,-1,83,2,81,-1,44,83,84,-1,44,84,24,-1,24,84,85,-1,24,85,25,-1,25,85,86,-1,25,86,26,-1,26,86,87,-1,26,87,27,-1,27,87,88,-1,27,88,11,-1,89,13,90,-1,90,13,11,-1,90,11,88,-1,14,13,52,-1,52,13,89,-1,40,42,91,-1,91,42,92,-1,42,43,92,-1,92,43,93,-1,43,6,93,-1,93,6,94,-1,19,95,96,-1,19,96,17,-1,17,96,97,-1,17,97,15,-1,15,97,98,-1,15,98,7,-1,7,98,99,-1,7,99,46,-1,46,99,100,-1,46,100,48,-1,48,100,101,-1,48,101,49,-1,49,101,94,-1,49,94,6,-1,40,91,102,-1,40,102,38,-1,38,102,103,-1,38,103,36,-1,36,103,104,-1,36,104,34,-1,34,104,105,-1,34,105,32,-1,32,105,106,-1,32,106,23,-1,23,106,107,-1,23,107,21,-1,21,107,95,-1,21,95,19,-1,
        ]
    }
}
Shape{
    appearance Appearance {
        material  Material 	{
            diffuseColor 1.0 0.9215686274509803 0.6862745098039216
            specularColor 0.30196078431372547 0.2784313725490196 0.20392156862745098
            ambientIntensity 0.9182
            transparency 0.0
            shininess 0.5
        }
    }
    geometry IndexedFaceSet {
        ccw TRUE
        solid FALSE
        coord DEF co Coordinate {
            point [
                -0.6931 0.1089 0.3898, -0.6328 0.0566 0.3898, -0.6341 0.0702 0.3898, -0.7403 0.1089 0.3898, -0.7403 -0.0025 0.3898, -0.6937 -0.0025 0.3898, -0.6774 -0.0008 0.3898, -0.6502 0.0968 0.3898, -0.643 0.0896 0.3898, -0.6375 0.0808 0.3898, -0.6594 0.1025 0.3898, -0.6738 0.1072 0.3898, -0.6644 0.0036 0.3898, -0.6537 0.0103 0.3898, -0.6439 0.0203 0.3898, -0.6371 0.0324 0.3898, -0.6336 0.0451 0.3898
            ]
        }
        coordIndex [
            0,1,2,-1,3,4,0,-1,0,4,5,-1,0,5,6,-1,7,2,8,-1,8,2,9,-1,7,10,2,-1,2,10,11,-1,2,11,0,-1,6,12,0,-1,0,12,13,-1,0,13,14,-1,14,15,0,-1,0,15,16,-1,0,16,1,-1,
        ]
    }
}
Shape{
    appearance Appearance {
        material  Material 	{
            diffuseColor 0.9686274509803922 0.06274509803921569 0.0
            specularColor 0.48627450980392156 0.03137254901960784 0.0
            ambientIntensity 0.3265
            transparency 0.0
            shininess 0.5
        }
    }
    geometry IndexedFaceSet {
        ccw TRUE
        solid FALSE
        coord DEF co Coordinate {
            point [
                -1.2262 0.0954 0.3937, -1.2047 0.0674 0.3937, -1.2145 0.0801 0.3898, -1.2262 0.0954 0.3898, -1.2541 0.1168 0.3898, -1.2541 0.1168 0.3937, -1.2866 0.1303 0.3898, -1.2866 0.1303 0.3937, -1.3215 0.1349 0.3898, -1.3215 0.1349 0.3937, -1.3564 0.1303 0.3898, -1.3564 0.1303 0.3937, -1.389 0.1168 0.3898, -1.389 0.1168 0.3937, -1.4169 0.0954 0.3898, -1.4169 0.0954 0.3937, -1.4286 0.0801 0.3898, -1.4383 0.0674 0.3937, -1.4383 0.0674 0.3898, -1.4442 0.0532 0.3898, -1.4518 0.0349 0.3937, -1.4518 0.0349 0.3898, -1.4564 -0.0 0.3898, -1.4564 0.0 0.3937, -1.4518 -0.0349 0.3898, -1.4518 -0.0349 0.3937, -1.4383 -0.0674 0.3898, -1.4383 -0.0674 0.3937, -1.4169 -0.0954 0.3898, -1.4169 -0.0954 0.3937, -1.389 -0.1168 0.3898, -1.389 -0.1168 0.3937, -1.3564 -0.1303 0.3898, -1.3564 -0.1303 0.3937, -1.3215 -0.1349 0.3898, -1.3215 -0.1349 0.3937, -1.2866 -0.1303 0.3898, -1.2866 -0.1303 0.3937, -1.2541 -0.1168 0.3898, -1.2541 -0.1168 0.3937, -1.2262 -0.0954 0.3898, -1.2262 -0.0954 0.3937, -1.2047 -0.0674 0.3898, -1.2047 -0.0674 0.3937, -1.1913 -0.0349 0.3898, -1.1913 -0.0349 0.3937, -1.1867 0.0 0.3898, -1.1867 0.0 0.3937, -1.1913 0.0349 0.3898, -1.1913 0.0349 0.3937, -1.1989 0.0532 0.3898, -1.2047 0.0674 0.3898, -1.3215 0.0 0.3937
            ]
        }
        coordIndex [
            0,1,2,-1,2,3,0,-1,0,3,4,-1,0,4,5,-1,5,4,6,-1,5,6,7,-1,7,6,8,-1,7,8,9,-1,9,8,10,-1,9,10,11,-1,11,10,12,-1,11,12,13,-1,13,12,14,-1,13,14,15,-1,15,14,16,-1,15,16,17,-1,16,18,17,-1,17,18,19,-1,17,19,20,-1,19,21,20,-1,20,21,22,-1,20,22,23,-1,23,22,24,-1,23,24,25,-1,25,24,26,-1,25,26,27,-1,27,26,28,-1,27,28,29,-1,29,28,30,-1,29,30,31,-1,31,30,32,-1,31,32,33,-1,33,32,34,-1,33,34,35,-1,35,34,36,-1,35,36,37,-1,37,36,38,-1,37,38,39,-1,39,38,40,-1,39,40,41,-1,41,40,42,-1,41,42,43,-1,43,42,44,-1,43,44,45,-1,45,44,46,-1,45,46,47,-1,47,46,48,-1,47,48,49,-1,49,48,50,-1,49,50,1,-1,1,50,51,-1,1,51,2,-1,43,45,52,-1,52,45,47,-1,52,47,49,-1,37,39,52,-1,52,39,41,-1,52,41,43,-1,31,33,52,-1,52,33,35,-1,52,35,37,-1,25,27,52,-1,52,27,29,-1,52,29,31,-1,17,20,52,-1,52,20,23,-1,52,23,25,-1,11,13,52,-1,52,13,15,-1,52,15,17,-1,5,7,52,-1,52,7,9,-1,52,9,11,-1,49,1,52,-1,52,1,0,-1,52,0,5,-1,
        ]
    }
}