#VRML V2.0 utf8
# 3D model generated by easyeda2kicad.py (https://github.com/uPesy/easyeda2kicad.py)

Shape{
    appearance Appearance {
        material  Material 	{
            diffuseColor 0.07058823529411765 0.07058823529411765 0.07058823529411765
            specularColor 0.00392156862745098 0.00392156862745098 0.00392156862745098
            ambientIntensity 0.102
            transparency 0.0
            shininess 0.5
        }
    }
    geometry IndexedFaceSet {
        ccw TRUE
        solid FALSE
        coord DEF co Coordinate {
            point [
                0.012 0.0182 0.4803, 0.012 0.0021 0.4803, 0.0193 0.0021 0.4803, 0.0657 -0.0055 0.4803, 0.0714 -0.0055 0.4803, 0.0714 -0.0002 0.4803, 0.2643 -0.3406 0.4803, 0.4232 -0.3406 0.4803, 0.4232 -0.0362 0.4803, 0.0406 -0.0289 0.4803, 0.04 -0.029 0.4803, 0.0445 -0.029 0.4803, 0.0884 -0.0002 0.4803, 0.0826 0.0 0.4803, 0.08 0.0 0.4803, 0.0756 0.0182 0.4803, 0.0884 0.0183 0.4803, 0.0714 0.0183 0.4803, 0.0688 0.0 0.4803, 0.0662 0.0 0.4803, 0.0657 -0.0002 0.4803, 0.0714 0.005 0.4803, 0.0705 0.005 0.4803, 0.0657 0.0183 0.4803, 0.0714 0.0137 0.4803, 0.0731 0.0182 0.4803, 0.0227 0.0111 0.4803, 0.0328 0.0026 0.4803, 0.0233 0.0127 0.4803, 0.0241 0.014 0.4803, 0.0225 0.0089 0.4803, 0.0225 0.0087 0.4803, 0.0319 0.0022 0.4803, 0.0298 0.0018 0.4803, 0.0328 0.0156 0.4803, 0.0314 0.0161 0.4803, 0.0227 0.0065 0.4803, 0.0233 0.005 0.4803, 0.0242 0.0037 0.4803, 0.0293 0.0163 0.4803, 0.0285 0.0163 0.4803, 0.0269 0.016 0.4803, 0.0246 0.0034 0.4803, 0.0258 0.0025 0.4803, 0.0255 0.0153 0.4803, 0.0244 0.0143 0.4803, 0.027 0.002 0.4803, 0.0289 0.0018 0.4803, 0.0333 0.0154 0.4803, 0.0336 0.003 0.4803, 0.0336 0.0153 0.4803, 0.0362 -0.0002 0.4803, 0.0362 0.0183 0.4803, 0.0312 0.0183 0.4803, 0.0318 0.0183 0.4803, 0.0328 0.0183 0.4803, 0.0328 0.018 0.4803, 0.0336 0.0177 0.4803, 0.0295 0.0185 0.4803, 0.0328 0.3406 0.4803, 0.0293 0.0185 0.4803, 0.0208 0.3406 0.4803, 0.0278 0.0183 0.4803, 0.0208 0.0183 0.4803, 0.0251 0.0176 0.4803, 0.027 0.0182 0.4803, 0.0214 0.0142 0.4803, 0.0226 0.0158 0.4803, 0.0233 0.0164 0.4803, 0.0197 0.0183 0.4803, 0.0205 0.0122 0.4803, 0.0208 0.0129 0.4803, 0.0208 0.0046 0.4803, 0.0203 0.0058 0.4803, 0.0197 -0.0002 0.4803, 0.02 0.0087 0.4803, 0.02 0.0099 0.4803, 0.0255 0.0002 0.4803, 0.0238 0.001 0.4803, 0.0208 -0.0002 0.4803, 0.0223 0.0022 0.4803, 0.0222 0.0024 0.4803, 0.0211 0.0039 0.4803, 0.027 -0.0002 0.4803, 0.0208 -0.0055 0.4803, 0.0274 -0.0003 0.4803, 0.0286 -0.0003 0.4803, 0.0328 -0.0055 0.4803, 0.0302 -0.0002 0.4803, 0.0336 0.0008 0.4803, 0.0333 0.0006 0.4803, 0.0328 -0.0002 0.4803, 0.0328 0.0004 0.4803, 0.0313 -0.0 0.4803, 0.0487 -0.019 0.4803, 0.051 -0.0256 0.4803, 0.0516 -0.0256 0.4803, 0.0487 -0.0055 0.4803, 0.0552 -0.0158 0.4803, 0.0575 -0.0158 0.4803, 0.0513 -0.0267 0.4803, 0.0513 -0.0267 0.4803, 0.0514 -0.0262 0.4803, 0.0476 -0.0158 0.4803, 0.0451 -0.0158 0.4803, 0.0501 -0.029 0.4803, 0.0502 -0.0288 0.4803, 0.0487 -0.0251 0.4803, 0.0487 -0.029 0.4803, 0.0487 -0.032 0.4803, 0.0492 -0.0311 0.4803, 0.0445 -0.0362 0.4803, 0.0455 -0.0347 0.4803, 0.0455 -0.0327 0.4803, 0.0468 -0.033 0.4803, 0.0474 -0.0329 0.4803, 0.0487 -0.0345 0.4803, 0.0479 -0.0348 0.4803, 0.0487 -0.0362 0.4803, 0.047 -0.0349 0.4803, 0.0465 -0.0349 0.4803, 0.0479 -0.0327 0.4803, 0.0483 -0.0324 0.4803, 0.0516 -0.0308 0.4803, 0.0506 -0.0328 0.4803, 0.0657 -0.0362 0.4803, 0.0523 -0.029 0.4803, 0.0498 -0.0338 0.4803, 0.0496 -0.0339 0.4803, 0.0488 -0.0345 0.4803, 0.0431 -0.0231 0.4803, 0.0435 -0.0238 0.4803, 0.0433 -0.0183 0.4803, 0.0371 -0.0162 0.4803, 0.0362 -0.0055 0.4803, 0.0366 -0.0166 0.4803, 0.0362 -0.0169 0.4803, 0.0438 -0.0244 0.4803, 0.0439 -0.0253 0.4803, 0.0438 -0.0262 0.4803, 0.0435 -0.0269 0.4803, 0.0431 -0.0275 0.4803, 0.0383 -0.0158 0.4803, 0.0402 -0.0155 0.4803, 0.0445 -0.0055 0.4803, 0.0433 -0.0161 0.4803, 0.0415 -0.0156 0.4803, 0.0424 -0.0281 0.4803, 0.0419 -0.0284 0.4803, 0.04 -0.0174 0.4803, 0.0393 -0.0174 0.4803, 0.0375 -0.0191 0.4803, 0.0387 -0.0176 0.4803, 0.0382 -0.0179 0.4803, 0.0375 -0.0194 0.4803, 0.0376 -0.0198 0.4803, 0.0378 -0.0201 0.4803, 0.038 -0.0203 0.4803, 0.0388 -0.0208 0.4803, 0.0415 -0.0176 0.4803, 0.0402 -0.0215 0.4803, 0.0427 -0.018 0.4803, 0.0411 -0.0218 0.4803, 0.0426 -0.0226 0.4803, 0.0378 -0.0182 0.4803, 0.0376 -0.0185 0.4803, 0.0375 -0.0188 0.4803, 0.0351 -0.026 0.4803, 0.0328 -0.029 0.4803, 0.0359 -0.0172 0.4803, 0.0355 -0.0178 0.4803, 0.036 -0.0266 0.4803, 0.0362 -0.0266 0.4803, 0.0362 -0.0218 0.4803, 0.0358 -0.0214 0.4803, 0.0355 -0.0209 0.4803, 0.0352 -0.0202 0.4803, 0.0351 -0.0193 0.4803, 0.0352 -0.0185 0.4803, 0.0362 -0.0218 0.4803, 0.0374 -0.0271 0.4803, 0.0386 -0.0231 0.4803, 0.0372 -0.0225 0.4803, 0.0389 -0.0273 0.4803, 0.039 -0.0273 0.4803, 0.0401 -0.0237 0.4803, 0.0401 -0.0271 0.4803, 0.0415 -0.0255 0.4803, 0.0415 -0.0252 0.4803, 0.0407 -0.0269 0.4803, 0.0409 -0.0268 0.4803, 0.0412 -0.0266 0.4803, 0.0414 -0.0263 0.4803, 0.0415 -0.0259 0.4803, 0.0414 -0.0249 0.4803, 0.0412 -0.0246 0.4803, 0.041 -0.0243 0.4803, 0.0371 -0.029 0.4803, 0.0368 -0.0289 0.4803, 0.0362 -0.029 0.4803, 0.0362 -0.0287 0.4803, 0.0351 -0.0284 0.4803, 0.0386 -0.0291 0.4803, 0.0362 -0.0362 0.4803, 0.046 -0.0329 0.4803, 0.0225 -0.0226 0.4803, 0.0229 -0.019 0.4803, 0.0221 -0.0233 0.4803, 0.0218 -0.0241 0.4803, 0.0208 -0.029 0.4803, 0.022 -0.0271 0.4803, 0.0217 -0.0264 0.4803, 0.031 -0.017 0.4803, 0.0315 -0.0177 0.4803, 0.0279 -0.0175 0.4803, 0.0271 -0.0174 0.4803, 0.0259 -0.0211 0.4803, 0.0232 -0.022 0.4803, 0.0242 -0.0215 0.4803, 0.0245 -0.018 0.4803, 0.0259 -0.0175 0.4803, 0.0235 -0.0286 0.4803, 0.0227 -0.0281 0.4803, 0.0225 -0.0278 0.4803, 0.0287 -0.0157 0.4803, 0.0297 -0.0159 0.4803, 0.0304 -0.0164 0.4803, 0.0298 -0.0268 0.4803, 0.0297 -0.0268 0.4803, 0.0298 -0.0288 0.4803, 0.0294 -0.0273 0.4803, 0.0286 -0.0281 0.4803, 0.0319 -0.0187 0.4803, 0.032 -0.0205 0.4803, 0.032 -0.0288 0.4803, 0.0216 -0.0253 0.4803, 0.0216 -0.0251 0.4803, 0.0229 -0.0167 0.4803, 0.0298 -0.0206 0.4803, 0.0297 -0.0196 0.4803, 0.0295 -0.0187 0.4803, 0.0292 -0.0183 0.4803, 0.0235 -0.0164 0.4803, 0.0252 -0.0158 0.4803, 0.0274 -0.0155 0.4803, 0.0288 -0.0179 0.4803, 0.0284 -0.0177 0.4803, 0.027 -0.029 0.4803, 0.0269 -0.029 0.4803, 0.0328 -0.0362 0.4803, 0.0208 -0.0362 0.4803, 0.0257 -0.0291 0.4803, 0.0244 -0.029 0.4803, 0.0244 -0.029 0.4803, -0.0135 0.004 0.4803, -0.01 0.001 0.4803, 0.0022 0.0183 0.4803, 0.0022 -0.0002 0.4803, -0.0307 0.0202 0.4803, -0.0279 0.0183 0.4803, -0.0249 0.0163 0.4803, -0.0207 0.0114 0.4803, -0.018 0.0061 0.4803, -0.0173 0.0059 0.4803, -0.0372 0.0225 0.4803, 0.0022 0.3406 0.4803, -0.0425 0.023 0.4803, -0.0489 0.0222 0.4803, -0.0548 0.0199 0.4803, -0.4232 0.3406 0.4803, -0.0575 0.0183 0.4803, -0.4232 0.0183 0.4803, -0.058 0.018 0.4803, -0.0717 0.0119 0.4803, -0.0666 0.0126 0.4803, -0.061 0.0154 0.4803, -0.0652 0.0125 0.4803, -0.0637 0.0123 0.4803, -0.0815 0.0064 0.4803, -0.0806 0.0072 0.4803, -0.0765 0.0101 0.4803, -0.4232 -0.0002 0.4803, -0.4232 -0.0055 0.4803, -0.0872 -0.0055 0.4803, -0.0867 -0.0023 0.4803, -0.0857 -0.0002 0.4803, -0.0846 0.0024 0.4803, -0.0781 -0.0258 0.4803, -0.0821 -0.0224 0.4803, -0.4232 -0.029 0.4803, -0.0851 -0.0182 0.4803, -0.0734 -0.0281 0.4803, -0.0716 -0.029 0.4803, -0.0718 -0.0286 0.4803, -0.0869 -0.0134 0.4803, -0.0876 -0.0083 0.4803, -0.0875 -0.0071 0.4803, -0.4232 -0.0362 0.4803, -0.0649 -0.0362 0.4803, -0.0661 -0.0357 0.4803, -0.0686 -0.0338 0.4803, -0.0705 -0.0314 0.4803, 0.0022 -0.3406 0.4803, 0.0022 -0.0362 0.4803, -0.0542 -0.0362 0.4803, -0.0564 -0.037 0.4803, -0.0595 -0.0374 0.4803, -0.06 -0.0374 0.4803, -0.4232 -0.3406 0.4803, -0.0631 -0.0369 0.4803, 0.0022 -0.029 0.4803, -0.0474 -0.029 0.4803, -0.0475 -0.029 0.4803, -0.049 -0.0319 0.4803, -0.051 -0.0341 0.4803, -0.0535 -0.0359 0.4803, -0.0058 -0.0066 0.4803, -0.0052 -0.0108 0.4803, 0.0022 -0.0055 0.4803, -0.031 -0.0213 0.4803, -0.0301 -0.021 0.4803, -0.0286 -0.0136 0.4803, -0.01 -0.0231 0.4803, -0.0135 -0.026 0.4803, -0.0499 -0.0158 0.4803, -0.0326 -0.0068 0.4803, -0.0521 -0.0138 0.4803, -0.0549 -0.0123 0.4803, -0.0318 -0.0219 0.4803, -0.0074 -0.0195 0.4803, -0.0058 -0.0154 0.4803, -0.0291 -0.0209 0.4803, -0.0289 -0.0209 0.4803, -0.0286 -0.021 0.4803, -0.0783 -0.0133 0.4803, -0.0768 -0.0158 0.4803, -0.0703 -0.0172 0.4803, -0.0745 -0.0182 0.4803, -0.0717 -0.02 0.4803, -0.0655 -0.0129 0.4803, -0.0791 -0.0055 0.4803, -0.0681 -0.0148 0.4803, -0.0794 -0.0081 0.4803, -0.0793 -0.0101 0.4803, -0.0626 -0.0118 0.4803, -0.0595 -0.0114 0.4803, -0.058 -0.0115 0.4803, -0.0283 -0.021 0.4803, -0.0225 -0.021 0.4803, -0.0213 -0.0208 0.4803, -0.0331 -0.0249 0.4803, -0.033 -0.0244 0.4803, -0.0466 -0.0232 0.4803, -0.0328 -0.0234 0.4803, -0.0323 -0.0225 0.4803, -0.0301 -0.0288 0.4803, -0.0309 -0.0284 0.4803, -0.0318 -0.0278 0.4803, -0.0321 -0.0275 0.4803, -0.0326 -0.0267 0.4803, -0.033 -0.0258 0.4803, -0.0467 -0.0258 0.4803, -0.0466 -0.0245 0.4803, -0.0156 -0.0175 0.4803, -0.0142 -0.0154 0.4803, -0.0134 -0.0131 0.4803, -0.0132 -0.0109 0.4803, -0.0133 -0.0097 0.4803, -0.0174 -0.028 0.4803, -0.0217 -0.0289 0.4803, -0.0293 -0.0289 0.4803, -0.0189 -0.0201 0.4803, -0.0168 -0.0187 0.4803, -0.0233 -0.0009 0.4803, -0.0243 -0.0009 0.4803, -0.0149 -0.0055 0.4803, -0.0212 -0.0011 0.4803, -0.0139 -0.0072 0.4803, -0.079 -0.0049 0.4803, -0.0779 -0.0021 0.4803, -0.0151 -0.005 0.4803, -0.0168 -0.0032 0.4803, -0.0189 -0.0019 0.4803, -0.0271 0.0069 0.4803, -0.03 0.0104 0.4803, -0.0597 0.0029 0.4803, -0.0303 0.0107 0.4803, -0.0339 0.0132 0.4803, -0.0577 0.007 0.4803, -0.0766 -0.0002 0.4803, -0.0606 0.0034 0.4803, -0.0245 -0.0002 0.4803, -0.0251 0.0028 0.4803, -0.0635 0.0044 0.4803, -0.0665 0.0048 0.4803, -0.0679 0.0048 0.4803, -0.0548 0.0104 0.4803, -0.038 0.0147 0.4803, -0.0513 0.013 0.4803, -0.0424 0.0153 0.4803, -0.0471 0.0147 0.4803, -0.0711 0.004 0.4803, -0.0739 0.0025 0.4803, -0.0761 0.0005 0.4803, -0.0091 -0.0002 0.4803, -0.0074 -0.0026 0.4803, -0.0062 -0.0055 0.4803, 0.0693 -0.0106 0.4803, 0.0657 -0.0106 0.4803, 0.06 -0.0106 0.4803, 0.0693 -0.0127 0.4803, 0.0697 -0.0267 0.4803, 0.0714 -0.029 0.4803, 0.0697 -0.0288 0.4803, 0.0657 -0.029 0.4803, 0.0657 -0.0288 0.4803, 0.06 -0.0288 0.4803, 0.0623 -0.0206 0.4803, 0.0623 -0.0267 0.4803, 0.0657 -0.0206 0.4803, 0.0657 -0.0267 0.4803, 0.0688 -0.0206 0.4803, 0.0688 -0.0185 0.4803, 0.0657 -0.0185 0.4803, 0.0657 -0.0127 0.4803, 0.0623 -0.0185 0.4803, 0.0623 -0.0127 0.4803, 0.047 0.0021 0.4803, 0.047 0.0 0.4803, 0.0487 -0.0002 0.4803, 0.0466 0.0161 0.4803, 0.0487 0.0183 0.4803, 0.0466 0.0182 0.4803, 0.0445 0.0183 0.4803, 0.0445 0.0182 0.4803, 0.0396 0.0082 0.4803, 0.0396 0.0021 0.4803, 0.0445 0.0082 0.4803, 0.0445 0.0021 0.4803, 0.0461 0.0082 0.4803, 0.0461 0.0103 0.4803, 0.0396 0.0161 0.4803, 0.0396 0.0103 0.4803, 0.0445 0.0161 0.4803, 0.0445 0.0103 0.4803, 0.0445 -0.0002 0.4803, 0.0445 0.0 0.4803, 0.0372 0.0 0.4803, 0.0372 0.0182 0.4803, 0.2643 -0.0362 0.4803, 0.0884 -0.3406 0.4803, 0.0884 -0.0362 0.4803, 0.0714 -0.3406 0.4803, 0.0714 -0.0362 0.4803, 0.0657 -0.3406 0.4803, 0.0487 -0.3406 0.4803, 0.0445 -0.3406 0.4803, 0.0362 -0.3406 0.4803, 0.0328 -0.3406 0.4803, 0.0208 -0.3406 0.4803, 0.0278 -0.0286 0.4803, 0.0097 -0.0106 0.4803, 0.0097 -0.0288 0.4803, 0.0197 -0.029 0.4803, 0.0197 -0.0362 0.4803, 0.0197 -0.3406 0.4803, 0.019 -0.0106 0.4803, 0.0197 -0.0055 0.4803, 0.019 -0.0127 0.4803, 0.0194 -0.0267 0.4803, 0.0194 -0.0288 0.4803, 0.012 -0.0206 0.4803, 0.012 -0.0267 0.4803, 0.0185 -0.0206 0.4803, 0.0185 -0.0185 0.4803, 0.012 -0.0185 0.4803, 0.012 -0.0127 0.4803, 0.0874 -0.0229 0.4803, 0.0865 -0.0247 0.4803, 0.0884 -0.029 0.4803, 0.0833 -0.0276 0.4803, 0.0812 -0.0284 0.4803, 0.0782 -0.0288 0.4803, 0.0732 -0.0288 0.4803, 0.0732 -0.0106 0.4803, 0.0783 -0.0106 0.4803, 0.0884 -0.0055 0.4803, 0.0813 -0.011 0.4803, 0.0835 -0.0119 0.4803, 0.0871 -0.0155 0.4803, 0.0877 -0.0173 0.4803, 0.0879 -0.0195 0.4803, 0.0879 -0.0208 0.4803, 0.0852 -0.0263 0.4803, 0.085 -0.0264 0.4803, 0.0852 -0.0131 0.4803, 0.086 -0.0139 0.4803, 0.0915 -0.0288 0.4803, 0.089 -0.0288 0.4803, 0.1008 -0.0238 0.4803, 0.0933 -0.0238 0.4803, 0.0959 -0.0106 0.4803, 0.0984 -0.0106 0.4803, 0.2643 -0.029 0.4803, 0.0781 0.005 0.4803, 0.0097 0.0 0.4803, 0.0097 0.0182 0.4803, 0.0193 0.0 0.4803, 0.0605 0.0012 0.4803, 0.0585 0.0004 0.4803, 0.0554 0.0 0.4803, 0.0504 0.0 0.4803, 0.0647 0.0059 0.4803, 0.0638 0.0041 0.4803, 0.0504 0.0182 0.4803, 0.0556 0.0182 0.4803, 0.0586 0.0178 0.4803, 0.0608 0.0169 0.4803, 0.0644 0.0133 0.4803, 0.065 0.0115 0.4803, 0.0652 0.0093 0.4803, 0.0651 0.008 0.4803, 0.0625 0.0025 0.4803, 0.0623 0.0024 0.4803, 0.0625 0.0158 0.4803, 0.0633 0.0149 0.4803, 0.1027 -0.0288 0.4803, 0.1053 -0.0288 0.4803, 0.2643 -0.0055 0.4803, 0.2643 -0.0002 0.4803, 0.2643 0.0183 0.4803, 0.4232 -0.029 0.4803, 0.4232 -0.0055 0.4803, 0.4232 -0.0002 0.4803, 0.4232 0.0183 0.4803, 0.0197 0.3406 0.4803, 0.4232 0.3406 0.4803, 0.2643 0.3406 0.4803, 0.0884 0.3406 0.4803, 0.0714 0.3406 0.4803, 0.0657 0.3406 0.4803, 0.0487 0.3406 0.4803, 0.0445 0.3406 0.4803, 0.0362 0.3406 0.4803
            ]
        }
        coordIndex [
            0,1,2,-1,3,4,5,-1,6,7,8,-1,9,10,11,-1,12,13,14,-1,13,12,15,-1,15,12,16,-1,15,16,17,-1,18,19,20,-1,5,21,22,-1,20,19,23,-1,23,19,24,-1,23,24,17,-1,17,24,25,-1,17,25,15,-1,26,27,28,-1,28,27,29,-1,26,30,27,-1,27,30,31,-1,27,31,32,-1,32,31,33,-1,27,34,35,-1,36,37,38,-1,35,39,27,-1,27,39,40,-1,27,40,41,-1,36,38,31,-1,31,38,42,-1,31,42,43,-1,41,44,27,-1,27,44,45,-1,27,45,29,-1,43,46,31,-1,31,46,47,-1,31,47,33,-1,34,27,48,-1,48,27,49,-1,48,49,50,-1,50,49,51,-1,50,51,52,-1,53,54,55,-1,55,54,56,-1,55,56,52,-1,52,56,57,-1,52,57,50,-1,58,59,60,-1,60,59,61,-1,60,61,62,-1,63,64,65,-1,66,67,63,-1,63,67,68,-1,63,68,64,-1,69,70,63,-1,63,70,71,-1,63,71,66,-1,72,73,74,-1,74,73,75,-1,74,75,69,-1,69,75,76,-1,69,76,70,-1,77,78,79,-1,79,78,80,-1,80,81,79,-1,79,81,82,-1,79,82,72,-1,77,79,83,-1,83,79,84,-1,83,84,85,-1,85,84,86,-1,86,84,87,-1,86,87,88,-1,49,89,51,-1,51,89,90,-1,51,90,91,-1,91,90,92,-1,91,92,93,-1,94,95,96,-1,97,98,99,-1,100,101,95,-1,95,101,102,-1,95,102,96,-1,96,98,94,-1,94,98,97,-1,94,97,103,-1,103,97,104,-1,105,106,107,-1,108,109,110,-1,111,112,113,-1,108,114,115,-1,116,117,118,-1,118,117,119,-1,118,119,111,-1,111,119,120,-1,111,120,112,-1,115,121,108,-1,108,121,122,-1,108,122,109,-1,123,124,125,-1,123,125,126,-1,124,127,125,-1,125,127,128,-1,125,128,118,-1,118,128,129,-1,118,129,116,-1,130,131,132,-1,133,134,135,-1,135,134,136,-1,137,138,11,-1,138,139,11,-1,11,139,140,-1,11,140,141,-1,133,142,134,-1,134,142,143,-1,134,143,144,-1,131,137,132,-1,132,137,11,-1,132,11,145,-1,145,11,144,-1,145,144,146,-1,146,144,143,-1,141,147,11,-1,11,147,148,-1,11,148,9,-1,149,150,151,-1,151,150,152,-1,151,152,153,-1,151,154,149,-1,149,154,155,-1,149,155,156,-1,156,157,149,-1,149,157,158,-1,149,158,159,-1,159,158,160,-1,159,160,161,-1,161,160,162,-1,161,162,132,-1,132,162,163,-1,132,163,130,-1,164,165,153,-1,153,165,166,-1,153,166,151,-1,167,87,168,-1,136,134,169,-1,169,134,87,-1,169,87,170,-1,171,172,173,-1,174,175,167,-1,175,176,167,-1,167,176,177,-1,167,177,87,-1,87,177,178,-1,87,178,170,-1,171,173,167,-1,167,173,179,-1,167,179,174,-1,180,181,172,-1,172,181,182,-1,172,182,173,-1,180,183,181,-1,181,183,184,-1,181,184,185,-1,185,184,186,-1,185,187,188,-1,186,189,185,-1,185,189,190,-1,185,190,191,-1,191,192,185,-1,185,192,193,-1,185,193,187,-1,188,194,185,-1,185,194,195,-1,185,195,196,-1,197,198,199,-1,199,198,200,-1,199,200,168,-1,168,200,201,-1,168,201,167,-1,202,203,10,-1,10,203,111,-1,10,111,11,-1,11,111,113,-1,11,113,108,-1,108,113,204,-1,108,204,114,-1,205,206,207,-1,207,206,208,-1,209,210,211,-1,87,212,213,-1,214,215,216,-1,205,217,206,-1,206,217,218,-1,206,218,219,-1,219,218,216,-1,219,216,220,-1,220,216,215,-1,221,222,209,-1,209,222,223,-1,209,223,210,-1,224,225,87,-1,87,225,226,-1,87,226,212,-1,227,228,229,-1,229,228,230,-1,229,230,231,-1,213,232,87,-1,87,232,233,-1,87,233,168,-1,168,233,234,-1,168,234,229,-1,211,235,209,-1,209,235,236,-1,209,236,84,-1,84,236,208,-1,84,208,237,-1,237,208,206,-1,238,239,216,-1,216,239,240,-1,216,240,241,-1,237,242,84,-1,84,242,243,-1,84,243,87,-1,87,243,244,-1,87,244,224,-1,241,245,216,-1,216,245,246,-1,216,246,214,-1,247,248,249,-1,249,248,250,-1,248,251,250,-1,250,251,252,-1,250,252,209,-1,209,252,253,-1,209,253,221,-1,254,255,256,-1,256,255,257,-1,258,259,256,-1,256,259,260,-1,256,260,261,-1,261,262,256,-1,256,262,263,-1,256,263,254,-1,264,265,266,-1,266,265,267,-1,267,265,268,-1,268,265,269,-1,268,269,270,-1,270,269,271,-1,270,271,272,-1,271,273,272,-1,272,273,274,-1,272,274,275,-1,275,274,276,-1,275,276,277,-1,278,279,271,-1,271,279,280,-1,271,280,273,-1,281,282,283,-1,283,284,281,-1,281,284,285,-1,281,285,271,-1,271,285,286,-1,271,286,278,-1,287,288,289,-1,289,288,290,-1,287,289,291,-1,291,289,292,-1,291,292,293,-1,290,294,289,-1,289,294,295,-1,289,295,282,-1,282,295,296,-1,282,296,283,-1,297,298,289,-1,289,298,299,-1,299,300,289,-1,289,300,301,-1,289,301,292,-1,302,303,304,-1,304,305,302,-1,302,305,306,-1,302,306,307,-1,297,308,298,-1,298,308,302,-1,298,302,309,-1,309,302,307,-1,310,311,303,-1,303,311,312,-1,303,312,313,-1,313,314,303,-1,303,314,315,-1,303,315,304,-1,316,317,318,-1,319,320,321,-1,322,323,310,-1,324,325,326,-1,326,325,327,-1,319,321,328,-1,322,310,329,-1,318,317,310,-1,310,317,330,-1,310,330,329,-1,320,331,321,-1,321,331,332,-1,321,332,333,-1,334,335,336,-1,336,335,337,-1,336,337,338,-1,339,340,341,-1,341,340,342,-1,341,342,336,-1,336,342,343,-1,336,343,334,-1,339,344,340,-1,340,344,345,-1,340,345,325,-1,325,345,346,-1,325,346,327,-1,333,347,321,-1,321,347,348,-1,321,348,349,-1,350,351,352,-1,352,351,353,-1,352,353,321,-1,321,353,354,-1,321,354,328,-1,355,356,311,-1,311,356,357,-1,311,357,358,-1,358,359,311,-1,311,359,360,-1,311,360,361,-1,361,360,350,-1,361,350,362,-1,362,350,352,-1,363,364,321,-1,321,364,365,-1,321,365,325,-1,325,365,366,-1,325,366,367,-1,323,368,310,-1,310,368,369,-1,310,369,311,-1,311,369,370,-1,311,370,355,-1,349,371,321,-1,321,371,372,-1,321,372,363,-1,373,374,375,-1,373,375,376,-1,367,377,325,-1,325,377,375,-1,325,375,340,-1,340,375,374,-1,340,374,378,-1,378,374,379,-1,380,381,375,-1,375,381,382,-1,375,382,376,-1,383,384,385,-1,384,386,385,-1,385,386,387,-1,385,387,388,-1,389,385,390,-1,379,374,389,-1,389,374,391,-1,389,391,385,-1,385,391,392,-1,385,392,383,-1,390,393,389,-1,389,393,394,-1,389,394,395,-1,388,387,396,-1,396,387,397,-1,396,397,398,-1,398,397,399,-1,398,399,400,-1,401,402,395,-1,395,402,403,-1,395,403,389,-1,255,404,257,-1,257,404,405,-1,257,405,318,-1,318,405,406,-1,318,406,316,-1,407,4,408,-1,408,4,3,-1,408,3,409,-1,407,410,4,-1,4,410,411,-1,4,411,412,-1,412,411,413,-1,412,413,414,-1,414,413,415,-1,414,415,416,-1,417,418,419,-1,419,418,420,-1,419,420,421,-1,421,420,411,-1,421,411,422,-1,422,411,410,-1,422,410,423,-1,423,410,424,-1,423,424,425,-1,425,424,426,-1,427,428,429,-1,430,431,432,-1,432,431,433,-1,432,433,434,-1,435,436,437,-1,437,436,438,-1,437,438,439,-1,439,438,427,-1,439,427,440,-1,441,442,443,-1,443,442,444,-1,443,444,430,-1,429,428,445,-1,445,428,446,-1,445,446,447,-1,434,433,448,-1,448,433,52,-1,448,52,447,-1,447,52,51,-1,447,51,445,-1,6,449,450,-1,450,449,451,-1,450,451,452,-1,452,451,453,-1,452,453,454,-1,454,453,125,-1,454,125,455,-1,455,125,118,-1,455,118,456,-1,456,118,111,-1,456,111,457,-1,457,111,203,-1,457,203,458,-1,458,203,249,-1,458,249,459,-1,459,249,250,-1,202,197,203,-1,203,197,199,-1,203,199,249,-1,249,199,168,-1,249,168,247,-1,247,168,229,-1,247,229,460,-1,460,229,231,-1,461,318,462,-1,462,318,310,-1,462,310,463,-1,463,310,303,-1,463,303,464,-1,464,303,302,-1,464,302,465,-1,461,466,467,-1,466,468,467,-1,467,468,469,-1,467,469,463,-1,463,469,470,-1,463,470,462,-1,471,472,473,-1,473,472,469,-1,473,469,474,-1,474,469,468,-1,474,468,475,-1,475,468,476,-1,477,478,479,-1,480,481,479,-1,479,481,482,-1,479,482,412,-1,412,482,483,-1,412,483,4,-1,4,483,484,-1,4,484,485,-1,486,487,488,-1,489,490,486,-1,486,490,491,-1,486,491,479,-1,479,491,492,-1,479,492,477,-1,478,493,479,-1,479,493,494,-1,479,494,480,-1,488,495,486,-1,486,495,496,-1,486,496,489,-1,497,498,479,-1,499,500,497,-1,479,498,486,-1,486,498,501,-1,486,501,502,-1,72,74,79,-1,79,74,467,-1,79,467,84,-1,84,467,463,-1,84,463,209,-1,209,463,464,-1,209,464,250,-1,250,464,465,-1,250,465,459,-1,93,88,91,-1,91,88,87,-1,91,87,51,-1,51,87,134,-1,51,134,445,-1,445,134,144,-1,445,144,429,-1,449,503,451,-1,451,503,479,-1,451,479,453,-1,453,479,412,-1,453,412,125,-1,125,412,414,-1,125,414,126,-1,126,414,416,-1,126,416,99,-1,99,416,409,-1,99,409,97,-1,97,409,3,-1,97,3,20,-1,20,3,5,-1,20,5,18,-1,18,5,22,-1,504,21,14,-1,14,21,5,-1,14,5,12,-1,12,5,4,-1,12,4,486,-1,486,4,485,-1,486,485,487,-1,461,467,318,-1,318,467,74,-1,318,74,257,-1,257,74,505,-1,257,505,256,-1,505,506,256,-1,256,506,0,-1,256,0,69,-1,69,0,2,-1,69,2,74,-1,74,2,507,-1,74,507,505,-1,508,509,20,-1,510,511,429,-1,429,511,431,-1,429,431,427,-1,427,431,430,-1,427,430,440,-1,440,430,444,-1,512,513,20,-1,509,510,20,-1,20,510,429,-1,20,429,97,-1,97,429,144,-1,97,144,104,-1,104,144,11,-1,104,11,107,-1,107,11,108,-1,107,108,105,-1,105,108,110,-1,511,514,431,-1,431,514,515,-1,431,515,23,-1,23,515,516,-1,23,516,517,-1,518,519,23,-1,23,519,520,-1,23,520,20,-1,20,520,521,-1,20,521,512,-1,513,522,20,-1,20,522,523,-1,20,523,508,-1,517,524,23,-1,23,524,525,-1,23,525,518,-1,499,497,526,-1,526,497,479,-1,526,479,527,-1,527,479,503,-1,527,503,502,-1,502,503,528,-1,502,528,486,-1,486,528,529,-1,486,529,12,-1,12,529,530,-1,12,530,16,-1,6,8,449,-1,449,8,531,-1,449,531,503,-1,503,531,532,-1,503,532,528,-1,528,532,533,-1,528,533,529,-1,529,533,534,-1,529,534,530,-1,65,62,63,-1,63,62,61,-1,63,61,69,-1,69,61,535,-1,69,535,256,-1,256,535,265,-1,256,265,258,-1,258,265,264,-1,534,536,530,-1,530,536,537,-1,530,537,16,-1,16,537,538,-1,16,538,17,-1,17,538,539,-1,17,539,23,-1,23,539,540,-1,23,540,431,-1,431,540,541,-1,431,541,433,-1,433,541,542,-1,433,542,52,-1,52,542,543,-1,52,543,55,-1,55,543,59,-1,55,59,53,-1,53,59,58,-1,
        ]
    }
}
Shape{
    appearance Appearance {
        material  Material 	{
            diffuseColor 0.6666666666666666 0.6666666666666666 0.6666666666666666
            specularColor 0.4666666666666667 0.4666666666666667 0.4666666666666667
            ambientIntensity 0.6667
            transparency 0.0
            shininess 0.5
        }
    }
    geometry IndexedFaceSet {
        ccw TRUE
        solid FALSE
        coord DEF co Coordinate {
            point [
                -0.4232 -0.3406 0.4764, -0.6594 -0.3445 0.4764, 0.4232 -0.3406 0.4764, 0.6594 -0.3445 0.4764, -0.6594 0.3445 0.4764, -0.6594 0.1772 0.4764, -0.6249 0.1738 0.4764, 0.4232 0.3406 0.4764, 0.6594 0.3445 0.4764, -0.4232 0.3406 0.4764, -0.561 0.1473 0.4764, -0.5342 0.1253 0.4764, -0.5121 0.0984 0.4764, -0.4958 0.0678 0.4764, 0.6594 -0.1772 0.4764, 0.6249 -0.1738 0.4764, -0.5917 0.1637 0.4764, -0.5342 -0.1253 0.4764, -0.5121 -0.0984 0.4764, -0.4958 -0.0678 0.4764, -0.561 -0.1473 0.4764, -0.5917 -0.1637 0.4764, -0.6249 -0.1738 0.4764, -0.6594 -0.1772 0.4764, 0.561 -0.1473 0.4764, 0.5342 -0.1253 0.4764, 0.5121 -0.0984 0.4764, 0.4958 -0.0678 0.4764, 0.5342 0.1253 0.4764, 0.5121 0.0984 0.4764, 0.4958 0.0678 0.4764, -0.4857 0.0346 0.4764, -0.4823 -0.0 0.4764, -0.4857 -0.0346 0.4764, 0.5917 -0.1637 0.4764, 0.4857 -0.0346 0.4764, 0.4823 0.0 0.4764, 0.4857 0.0346 0.4764, 0.561 0.1473 0.4764, 0.5917 0.1637 0.4764, 0.6249 0.1738 0.4764, 0.6594 0.1772 0.4764, 0.6594 -0.3445 0.0039, 0.6594 -0.1772 0.0039, 0.6594 0.3445 0.0039, 0.6594 0.1772 0.0039, -0.6594 0.1772 0.0039, -0.6594 0.3445 0.0039, -0.6594 -0.1772 0.0039, -0.6594 -0.3445 0.0039, 0.6555 0.1771 0.0039, 0.6555 0.3307 0.0039, 0.4193 0.3307 0.0039, 0.6555 -0.1771 0.0039, 0.6555 -0.3307 0.0039, 0.4193 -0.3307 0.0039, -0.4193 -0.3307 0.0039, -0.6555 -0.3307 0.0039, -0.6555 -0.1771 0.0039, -0.6555 0.1771 0.0039, -0.6555 0.3307 0.0039, -0.4193 0.3307 0.0039
            ]
        }
        coordIndex [
            0,1,2,-1,2,1,3,-1,4,5,6,-1,7,8,9,-1,9,8,4,-1,10,11,9,-1,9,11,12,-1,9,12,13,-1,3,14,15,-1,4,6,9,-1,9,6,16,-1,9,16,10,-1,17,0,18,-1,18,0,19,-1,17,20,0,-1,0,20,21,-1,0,21,1,-1,1,21,22,-1,1,22,23,-1,24,25,2,-1,2,25,26,-1,2,26,27,-1,28,7,29,-1,29,7,30,-1,13,31,9,-1,9,31,32,-1,9,32,0,-1,0,32,33,-1,0,33,19,-1,3,15,2,-1,2,15,34,-1,2,34,24,-1,27,35,2,-1,2,35,36,-1,2,36,7,-1,7,36,37,-1,7,37,30,-1,28,38,7,-1,7,38,39,-1,7,39,8,-1,8,39,40,-1,8,40,41,-1,3,42,14,-1,14,42,43,-1,44,8,45,-1,45,8,41,-1,5,4,46,-1,46,4,47,-1,4,8,47,-1,47,8,44,-1,48,49,23,-1,23,49,1,-1,3,1,42,-1,42,1,49,-1,45,50,51,-1,45,51,44,-1,44,51,52,-1,44,52,47,-1,53,43,54,-1,54,43,42,-1,54,42,55,-1,56,49,57,-1,57,49,48,-1,57,48,58,-1,59,46,60,-1,60,46,47,-1,60,47,61,-1,61,47,52,-1,61,52,56,-1,56,52,55,-1,56,55,49,-1,49,55,42,-1,
        ]
    }
}
Shape{
    appearance Appearance {
        material  Material 	{
            diffuseColor 0.8274509803921568 0.6666666666666666 0.12941176470588237
            specularColor 0.8274509803921568 0.6666666666666666 0.12941176470588237
            ambientIntensity 0.6535
            transparency 0.0
            shininess 0.5
        }
    }
    geometry IndexedFaceSet {
        ccw TRUE
        solid FALSE
        coord DEF co Coordinate {
            point [
                -0.6555 0.1771 0.0039, -0.6555 0.1771 0.0, -0.6249 0.1738 0.0, -0.6594 -0.1772 0.0039, -0.6594 -0.1772 0.4764, -0.6555 -0.1771 0.0039, -0.6249 -0.1738 0.4764, -0.6249 0.1738 0.4764, -0.6594 0.1772 0.4764, -0.6594 0.1772 0.0039, -0.6555 -0.1771 0.0, -0.6249 -0.1738 0.0, -0.5917 -0.1637 0.0, -0.5917 -0.1637 0.4764, -0.561 -0.1473 0.0, -0.561 -0.1473 0.4764, -0.5342 -0.1253 0.0, -0.5342 -0.1253 0.4764, -0.5121 -0.0984 0.0, -0.5121 -0.0984 0.4764, -0.4958 -0.0678 0.0, -0.4958 -0.0678 0.4764, -0.4857 -0.0346 0.0, -0.4857 -0.0346 0.4764, -0.4823 -0.0 0.0, -0.4823 -0.0 0.4764, -0.4857 0.0346 0.0, -0.4857 0.0346 0.4764, -0.4958 0.0678 0.0, -0.4958 0.0678 0.4764, -0.5121 0.0984 0.0, -0.5121 0.0984 0.4764, -0.5342 0.1253 0.0, -0.5342 0.1253 0.4764, -0.561 0.1473 0.0, -0.561 0.1473 0.4764, -0.5917 0.1637 0.0, -0.5917 0.1637 0.4764, 0.6555 -0.1771 0.0039, 0.6555 -0.1771 0.0, 0.6249 -0.1738 0.0, 0.6594 0.1772 0.0039, 0.6594 0.1772 0.4764, 0.6555 0.1771 0.0039, 0.6249 0.1738 0.4764, 0.6249 -0.1738 0.4764, 0.6594 -0.1772 0.4764, 0.6594 -0.1772 0.0039, 0.6555 0.1771 0.0, 0.6249 0.1738 0.0, 0.5917 0.1637 0.0, 0.5917 0.1637 0.4764, 0.561 0.1473 0.0, 0.561 0.1473 0.4764, 0.5342 0.1253 0.0, 0.5342 0.1253 0.4764, 0.5121 0.0984 0.0, 0.5121 0.0984 0.4764, 0.4958 0.0678 0.0, 0.4958 0.0678 0.4764, 0.4857 0.0346 0.0, 0.4857 0.0346 0.4764, 0.4823 0.0 0.0, 0.4823 0.0 0.4764, 0.4857 -0.0346 0.0, 0.4857 -0.0346 0.4764, 0.4958 -0.0678 0.0, 0.4958 -0.0678 0.4764, 0.5121 -0.0984 0.0, 0.5121 -0.0984 0.4764, 0.5342 -0.1253 0.0, 0.5342 -0.1253 0.4764, 0.561 -0.1473 0.0, 0.561 -0.1473 0.4764, 0.5917 -0.1637 0.0, 0.5917 -0.1637 0.4764
            ]
        }
        coordIndex [
            0,1,2,-1,3,4,5,-1,5,4,6,-1,7,8,9,-1,10,5,11,-1,11,5,6,-1,11,6,12,-1,12,6,13,-1,12,13,14,-1,14,13,15,-1,14,15,16,-1,16,15,17,-1,16,17,18,-1,18,17,19,-1,18,19,20,-1,20,19,21,-1,20,21,22,-1,22,21,23,-1,22,23,24,-1,24,23,25,-1,24,25,26,-1,26,25,27,-1,26,27,28,-1,28,27,29,-1,28,29,30,-1,30,29,31,-1,30,31,32,-1,32,31,33,-1,32,33,34,-1,34,33,35,-1,34,35,36,-1,36,35,37,-1,36,37,2,-1,2,37,7,-1,2,7,0,-1,0,7,9,-1,38,39,40,-1,41,42,43,-1,43,42,44,-1,45,46,47,-1,48,43,49,-1,49,43,44,-1,49,44,50,-1,50,44,51,-1,50,51,52,-1,52,51,53,-1,52,53,54,-1,54,53,55,-1,54,55,56,-1,56,55,57,-1,56,57,58,-1,58,57,59,-1,58,59,60,-1,60,59,61,-1,60,61,62,-1,62,61,63,-1,62,63,64,-1,64,63,65,-1,64,65,66,-1,66,65,67,-1,66,67,68,-1,68,67,69,-1,68,69,70,-1,70,69,71,-1,70,71,72,-1,72,71,73,-1,72,73,74,-1,74,73,75,-1,74,75,40,-1,40,75,45,-1,40,45,38,-1,38,45,47,-1,
        ]
    }
}
Shape{
    appearance Appearance {
        material  Material 	{
            diffuseColor 0.07058823529411765 0.07058823529411765 0.07058823529411765
            specularColor 0.00392156862745098 0.00392156862745098 0.00392156862745098
            ambientIntensity 0.102
            transparency 0.0
            shininess 0.5
        }
    }
    geometry IndexedFaceSet {
        ccw TRUE
        solid FALSE
        coord DEF co Coordinate {
            point [
                0.4232 0.3406 0.4803, 0.4232 -0.3406 0.4803, 0.4232 0.3406 0.4764, 0.4232 -0.3406 0.4764, -0.4232 0.3406 0.4803, -0.4232 0.3406 0.4764, -0.4232 -0.3406 0.4803, -0.4232 -0.3406 0.4764
            ]
        }
        coordIndex [
            0,1,2,-1,2,1,3,-1,4,0,5,-1,5,0,2,-1,6,4,7,-1,7,4,5,-1,1,6,3,-1,3,6,7,-1,
        ]
    }
}
Shape{
    appearance Appearance {
        material  Material 	{
            diffuseColor 0.8274509803921568 0.6666666666666666 0.12941176470588237
            specularColor 0.8274509803921568 0.6666666666666666 0.12941176470588237
            ambientIntensity 0.6535
            transparency 0.0
            shininess 0.5
        }
    }
    geometry IndexedFaceSet {
        ccw TRUE
        solid FALSE
        coord DEF co Coordinate {
            point [
                -0.6555 -0.3307 0.0, -0.4193 -0.3307 0.0, -0.6555 -0.3307 0.0039, -0.4193 -0.3307 0.0039, -0.6555 -0.1771 0.0, -0.6555 -0.1771 0.0039, -0.6555 0.3307 0.0, -0.6555 0.1771 0.0, -0.6555 0.3307 0.0039, -0.6555 0.1771 0.0039, -0.4193 0.3307 0.0, -0.4193 0.3307 0.0039, -0.4958 0.0678 0.0, -0.5121 0.0984 0.0, -0.5342 0.1253 0.0, -0.5917 -0.1637 0.0, -0.561 -0.1473 0.0, -0.561 0.1473 0.0, -0.5917 0.1637 0.0, -0.6249 0.1738 0.0, -0.6249 -0.1738 0.0, -0.5342 -0.1253 0.0, -0.5121 -0.0984 0.0, -0.4958 -0.0678 0.0, -0.4857 -0.0346 0.0, -0.4823 -0.0 0.0, -0.4857 0.0346 0.0, 0.4193 -0.3307 0.0, 0.6555 -0.3307 0.0, 0.4193 -0.3307 0.0039, 0.6555 -0.3307 0.0039, 0.4193 0.3307 0.0, 0.4193 0.3307 0.0039, 0.6555 0.3307 0.0, 0.6555 0.3307 0.0039, 0.6555 0.1771 0.0, 0.6555 0.1771 0.0039, 0.6555 -0.1771 0.0, 0.6555 -0.1771 0.0039, 0.6249 0.1738 0.0, 0.4958 -0.0678 0.0, 0.5121 -0.0984 0.0, 0.5342 -0.1253 0.0, 0.5917 0.1637 0.0, 0.561 0.1473 0.0, 0.5342 0.1253 0.0, 0.5121 0.0984 0.0, 0.4958 0.0678 0.0, 0.561 -0.1473 0.0, 0.5917 -0.1637 0.0, 0.6249 -0.1738 0.0, 0.4857 0.0346 0.0, 0.4823 0.0 0.0, 0.4857 -0.0346 0.0
            ]
        }
        coordIndex [
            0,1,2,-1,2,1,3,-1,4,0,5,-1,5,0,2,-1,6,7,8,-1,8,7,9,-1,10,6,11,-1,11,6,8,-1,1,10,3,-1,3,10,11,-1,12,13,10,-1,10,13,14,-1,1,15,16,-1,14,17,10,-1,10,17,18,-1,10,18,6,-1,6,18,19,-1,6,19,7,-1,15,1,20,-1,20,1,0,-1,20,0,4,-1,16,21,1,-1,1,21,22,-1,1,22,23,-1,23,24,1,-1,1,24,25,-1,1,25,10,-1,10,25,26,-1,10,26,12,-1,27,28,29,-1,29,28,30,-1,31,27,32,-1,32,27,29,-1,33,31,34,-1,34,31,32,-1,35,33,36,-1,36,33,34,-1,28,37,30,-1,30,37,38,-1,33,35,39,-1,40,41,27,-1,27,41,42,-1,33,39,31,-1,31,39,43,-1,31,43,44,-1,44,45,31,-1,31,45,46,-1,31,46,47,-1,42,48,27,-1,27,48,49,-1,27,49,28,-1,28,49,50,-1,28,50,37,-1,47,51,31,-1,31,51,52,-1,31,52,27,-1,27,52,53,-1,27,53,40,-1,
        ]
    }
}
Shape{
    appearance Appearance {
        material  Material 	{
            diffuseColor 1.0 1.0 1.0
            specularColor 0.5019607843137255 0.5019607843137255 0.5019607843137255
            ambientIntensity 1.0
            transparency 0.0
            shininess 0.5
        }
    }
    geometry IndexedFaceSet {
        ccw TRUE
        solid FALSE
        coord DEF co Coordinate {
            point [
                0.0841 -0.015 0.4843, 0.086 -0.0139 0.4843, 0.0835 -0.0144 0.4843, 0.0852 -0.0131 0.4843, 0.0821 -0.0135 0.4843, 0.0835 -0.0119 0.4843, 0.0805 -0.013 0.4843, 0.0813 -0.011 0.4843, 0.0782 -0.0127 0.4843, 0.0783 -0.0106 0.4843, 0.0755 -0.0127 0.4843, 0.0732 -0.0106 0.4843, 0.0755 -0.0267 0.4843, 0.0732 -0.0288 0.4843, 0.0781 -0.0267 0.4843, 0.0782 -0.0288 0.4843, 0.0804 -0.0265 0.4843, 0.0812 -0.0284 0.4843, 0.082 -0.026 0.4843, 0.0833 -0.0276 0.4843, 0.0832 -0.0252 0.4843, 0.085 -0.0264 0.4843, 0.0835 -0.0248 0.4843, 0.0852 -0.0263 0.4843, 0.0845 -0.0236 0.4843, 0.0865 -0.0247 0.4843, 0.0851 -0.0223 0.4843, 0.0874 -0.0229 0.4843, 0.0854 -0.0206 0.4843, 0.0879 -0.0208 0.4843, 0.0855 -0.0196 0.4843, 0.0879 -0.0195 0.4843, 0.0852 -0.0174 0.4843, 0.0877 -0.0173 0.4843, 0.0848 -0.0161 0.4843, 0.0871 -0.0155 0.4843, 0.0852 -0.0263 0.4803, 0.0865 -0.0247 0.4803, 0.0874 -0.0229 0.4803, 0.0879 -0.0208 0.4803, 0.0879 -0.0195 0.4803, 0.0877 -0.0173 0.4803, 0.0871 -0.0155 0.4803, 0.086 -0.0139 0.4803, 0.0852 -0.0131 0.4803, 0.0835 -0.0119 0.4803, 0.0813 -0.011 0.4803, 0.0783 -0.0106 0.4803, 0.0732 -0.0106 0.4803, 0.0732 -0.0288 0.4803, 0.0782 -0.0288 0.4803, 0.0812 -0.0284 0.4803, 0.0833 -0.0276 0.4803, 0.085 -0.0264 0.4803, 0.0835 -0.0144 0.4803, 0.0841 -0.015 0.4803, 0.0848 -0.0161 0.4803, 0.0852 -0.0174 0.4803, 0.0855 -0.0196 0.4803, 0.0782 -0.0127 0.4803, 0.0805 -0.013 0.4803, 0.0821 -0.0135 0.4803, 0.0755 -0.0127 0.4803, 0.0755 -0.0267 0.4803, 0.0781 -0.0267 0.4803, 0.0835 -0.0248 0.4803, 0.0832 -0.0252 0.4803, 0.082 -0.026 0.4803, 0.0804 -0.0265 0.4803, 0.0854 -0.0206 0.4803, 0.0851 -0.0223 0.4803, 0.0845 -0.0236 0.4803
            ]
        }
        coordIndex [
            0,1,2,-1,2,1,3,-1,2,3,4,-1,4,3,5,-1,4,5,6,-1,6,5,7,-1,6,7,8,-1,8,7,9,-1,8,9,10,-1,10,9,11,-1,10,11,12,-1,12,11,13,-1,12,13,14,-1,14,13,15,-1,14,15,16,-1,16,15,17,-1,16,17,18,-1,18,17,19,-1,18,19,20,-1,20,19,21,-1,20,21,22,-1,22,21,23,-1,22,23,24,-1,24,23,25,-1,24,25,26,-1,26,25,27,-1,26,27,28,-1,28,27,29,-1,28,29,30,-1,30,29,31,-1,30,31,32,-1,32,31,33,-1,32,33,34,-1,34,33,35,-1,34,35,0,-1,0,35,1,-1,23,36,37,-1,23,37,25,-1,25,37,38,-1,25,38,27,-1,27,38,39,-1,27,39,29,-1,29,39,40,-1,29,40,31,-1,31,40,41,-1,31,41,33,-1,33,41,42,-1,33,42,35,-1,35,42,43,-1,35,43,1,-1,1,43,44,-1,1,44,3,-1,3,44,45,-1,3,45,5,-1,5,45,46,-1,5,46,7,-1,7,46,47,-1,7,47,9,-1,11,9,48,-1,48,9,47,-1,13,11,49,-1,49,11,48,-1,15,13,50,-1,50,13,49,-1,15,50,51,-1,15,51,17,-1,17,51,52,-1,17,52,19,-1,19,52,53,-1,19,53,21,-1,21,53,36,-1,21,36,23,-1,2,54,55,-1,2,55,0,-1,0,55,56,-1,0,56,34,-1,34,56,57,-1,34,57,32,-1,32,57,58,-1,32,58,30,-1,8,59,60,-1,8,60,6,-1,6,60,61,-1,6,61,4,-1,4,61,54,-1,4,54,2,-1,8,10,59,-1,59,10,62,-1,10,12,62,-1,62,12,63,-1,12,14,63,-1,63,14,64,-1,22,65,66,-1,22,66,20,-1,20,66,67,-1,20,67,18,-1,18,67,68,-1,18,68,16,-1,16,68,64,-1,16,64,14,-1,30,58,69,-1,30,69,28,-1,28,69,70,-1,28,70,26,-1,26,70,71,-1,26,71,24,-1,24,71,65,-1,24,65,22,-1,
        ]
    }
}
Shape{
    appearance Appearance {
        material  Material 	{
            diffuseColor 0.07058823529411765 0.07058823529411765 0.07058823529411765
            specularColor 0.00392156862745098 0.00392156862745098 0.00392156862745098
            ambientIntensity 0.102
            transparency 0.0
            shininess 0.5
        }
    }
    geometry IndexedFaceSet {
        ccw TRUE
        solid FALSE
        coord DEF co Coordinate {
            point [
                0.0755 -0.0127 0.4803, 0.0755 -0.0267 0.4803, 0.0782 -0.0127 0.4803, 0.0781 -0.0267 0.4803, 0.0804 -0.0265 0.4803, 0.082 -0.026 0.4803, 0.0832 -0.0252 0.4803, 0.0835 -0.0248 0.4803, 0.0845 -0.0236 0.4803, 0.0851 -0.0223 0.4803, 0.0854 -0.0206 0.4803, 0.0855 -0.0196 0.4803, 0.0852 -0.0174 0.4803, 0.0848 -0.0161 0.4803, 0.0841 -0.015 0.4803, 0.0835 -0.0144 0.4803, 0.0805 -0.013 0.4803, 0.0821 -0.0135 0.4803
            ]
        }
        coordIndex [
            0,1,2,-1,2,1,3,-1,2,3,4,-1,4,5,2,-1,2,5,6,-1,2,6,7,-1,7,8,2,-1,2,8,9,-1,2,9,10,-1,10,11,2,-1,2,11,12,-1,2,12,13,-1,13,14,2,-1,2,14,15,-1,2,15,16,-1,16,15,17,-1,
        ]
    }
}
Shape{
    appearance Appearance {
        material  Material 	{
            diffuseColor 1.0 1.0 1.0
            specularColor 0.5019607843137255 0.5019607843137255 0.5019607843137255
            ambientIntensity 1.0
            transparency 0.0
            shininess 0.5
        }
    }
    geometry IndexedFaceSet {
        ccw TRUE
        solid FALSE
        coord DEF co Coordinate {
            point [
                0.0516 -0.0256 0.4843, 0.0516 -0.0256 0.4803, 0.0514 -0.0262 0.4803, 0.0514 -0.0262 0.4843, 0.0513 -0.0267 0.4803, 0.0513 -0.0267 0.4843, 0.0513 -0.0267 0.4843, 0.0513 -0.0267 0.4803, 0.051 -0.0256 0.4843, 0.051 -0.0256 0.4803, 0.0476 -0.0158 0.4843, 0.0487 -0.019 0.4803, 0.0476 -0.0158 0.4803, 0.0451 -0.0158 0.4843, 0.0451 -0.0158 0.4803, 0.0502 -0.0288 0.4843, 0.0487 -0.0251 0.4803, 0.0502 -0.0288 0.4803, 0.0492 -0.0311 0.4803, 0.0492 -0.0311 0.4843, 0.0501 -0.029 0.4803, 0.0487 -0.032 0.4803, 0.0487 -0.032 0.4843, 0.0483 -0.0324 0.4803, 0.0483 -0.0324 0.4843, 0.0479 -0.0327 0.4803, 0.0479 -0.0327 0.4843, 0.0474 -0.0329 0.4803, 0.0474 -0.0329 0.4843, 0.0468 -0.033 0.4803, 0.0468 -0.033 0.4843, 0.046 -0.0329 0.4803, 0.046 -0.0329 0.4843, 0.0455 -0.0327 0.4803, 0.0455 -0.0327 0.4843, 0.0455 -0.0347 0.4843, 0.0455 -0.0347 0.4803, 0.0465 -0.0349 0.4803, 0.0465 -0.0349 0.4843, 0.047 -0.0349 0.4803, 0.047 -0.0349 0.4843, 0.0479 -0.0348 0.4803, 0.0479 -0.0348 0.4843, 0.0487 -0.0345 0.4803, 0.0488 -0.0345 0.4843, 0.0488 -0.0345 0.4803, 0.0496 -0.0339 0.4803, 0.0496 -0.0339 0.4843, 0.0498 -0.0338 0.4803, 0.0498 -0.0338 0.4843, 0.0506 -0.0328 0.4803, 0.0506 -0.0328 0.4843, 0.0516 -0.0308 0.4803, 0.0516 -0.0308 0.4843, 0.0575 -0.0158 0.4803, 0.0575 -0.0158 0.4843, 0.0523 -0.029 0.4803, 0.0552 -0.0158 0.4843, 0.0552 -0.0158 0.4803, 0.0386 -0.0291 0.4803, 0.04 -0.029 0.4803, 0.0386 -0.0291 0.4843, 0.0406 -0.0289 0.4843, 0.0406 -0.0289 0.4803, 0.0419 -0.0284 0.4803, 0.0419 -0.0284 0.4843, 0.0424 -0.0281 0.4803, 0.0424 -0.0281 0.4843, 0.0431 -0.0275 0.4803, 0.0431 -0.0275 0.4843, 0.0435 -0.0269 0.4803, 0.0435 -0.0269 0.4843, 0.0438 -0.0262 0.4803, 0.0438 -0.0262 0.4843, 0.0439 -0.0253 0.4803, 0.0439 -0.0253 0.4843, 0.0438 -0.0244 0.4803, 0.0438 -0.0244 0.4843, 0.0435 -0.0238 0.4803, 0.0435 -0.0238 0.4843, 0.0431 -0.0231 0.4803, 0.0431 -0.0231 0.4843, 0.0426 -0.0226 0.4803, 0.0426 -0.0226 0.4843, 0.0411 -0.0218 0.4803, 0.0411 -0.0218 0.4843, 0.0402 -0.0215 0.4803, 0.0402 -0.0215 0.4843, 0.0388 -0.0208 0.4803, 0.0388 -0.0208 0.4843, 0.038 -0.0203 0.4803, 0.038 -0.0203 0.4843, 0.0378 -0.0201 0.4803, 0.0378 -0.0201 0.4843, 0.0376 -0.0198 0.4803, 0.0376 -0.0198 0.4843, 0.0375 -0.0194 0.4803, 0.0375 -0.0194 0.4843, 0.0375 -0.0191 0.4803, 0.0375 -0.0191 0.4843, 0.0375 -0.0188 0.4803, 0.0375 -0.0188 0.4843, 0.0376 -0.0185 0.4803, 0.0376 -0.0185 0.4843, 0.0378 -0.0182 0.4803, 0.0378 -0.0182 0.4843, 0.0382 -0.0179 0.4803, 0.0382 -0.0179 0.4843, 0.0387 -0.0176 0.4803, 0.0387 -0.0176 0.4843, 0.0393 -0.0174 0.4803, 0.0393 -0.0174 0.4843, 0.04 -0.0174 0.4803, 0.04 -0.0174 0.4843, 0.0415 -0.0176 0.4803, 0.0415 -0.0176 0.4843, 0.0427 -0.018 0.4803, 0.0427 -0.018 0.4843, 0.0433 -0.0183 0.4803, 0.0433 -0.0183 0.4843, 0.0433 -0.0161 0.4843, 0.0433 -0.0161 0.4803, 0.0415 -0.0156 0.4803, 0.0415 -0.0156 0.4843, 0.0402 -0.0155 0.4803, 0.0402 -0.0155 0.4843, 0.0383 -0.0158 0.4803, 0.0383 -0.0158 0.4843, 0.0371 -0.0162 0.4803, 0.0371 -0.0162 0.4843, 0.0366 -0.0166 0.4803, 0.0366 -0.0166 0.4843, 0.0362 -0.0169 0.4803, 0.0359 -0.0172 0.4843, 0.0359 -0.0172 0.4803, 0.0355 -0.0178 0.4803, 0.0355 -0.0178 0.4843, 0.0352 -0.0185 0.4803, 0.0352 -0.0185 0.4843, 0.0351 -0.0193 0.4803, 0.0351 -0.0193 0.4843, 0.0352 -0.0202 0.4803, 0.0352 -0.0202 0.4843, 0.0355 -0.0209 0.4803, 0.0355 -0.0209 0.4843, 0.0358 -0.0214 0.4803, 0.0358 -0.0214 0.4843, 0.0386 -0.0231 0.4803, 0.0386 -0.0231 0.4843, 0.0372 -0.0225 0.4843, 0.0362 -0.0218 0.4803, 0.0362 -0.0218 0.4843, 0.0362 -0.0218 0.4803, 0.0372 -0.0225 0.4803, 0.0401 -0.0237 0.4803, 0.0401 -0.0237 0.4843, 0.041 -0.0243 0.4803, 0.041 -0.0243 0.4843, 0.0412 -0.0246 0.4803, 0.0412 -0.0246 0.4843, 0.0414 -0.0249 0.4803, 0.0414 -0.0249 0.4843, 0.0415 -0.0252 0.4803, 0.0415 -0.0252 0.4843, 0.0415 -0.0255 0.4803, 0.0415 -0.0255 0.4843, 0.0415 -0.0259 0.4803, 0.0415 -0.0259 0.4843, 0.0414 -0.0263 0.4803, 0.0414 -0.0263 0.4843, 0.0412 -0.0266 0.4803, 0.0412 -0.0266 0.4843, 0.0409 -0.0268 0.4803, 0.0409 -0.0268 0.4843, 0.0407 -0.0269 0.4803, 0.0407 -0.0269 0.4843, 0.0401 -0.0271 0.4803, 0.0401 -0.0271 0.4843, 0.039 -0.0273 0.4803, 0.039 -0.0273 0.4843, 0.0389 -0.0273 0.4803, 0.0389 -0.0273 0.4843, 0.0351 -0.026 0.4803, 0.0351 -0.026 0.4843, 0.036 -0.0266 0.4843, 0.0374 -0.0271 0.4803, 0.0374 -0.0271 0.4843, 0.0362 -0.0266 0.4803, 0.036 -0.0266 0.4803, 0.0351 -0.0284 0.4843, 0.0351 -0.0284 0.4803, 0.0362 -0.0287 0.4803, 0.0368 -0.0289 0.4843, 0.0371 -0.029 0.4803, 0.0368 -0.0289 0.4803, 0.0298 -0.0288 0.4843, 0.032 -0.0288 0.4843, 0.0298 -0.0268 0.4843, 0.032 -0.0205 0.4843, 0.0298 -0.0206 0.4843, 0.0249 -0.0233 0.4843, 0.0254 -0.023 0.4843, 0.0297 -0.0268 0.4843, 0.0285 -0.0265 0.4843, 0.0294 -0.0273 0.4843, 0.0279 -0.0269 0.4843, 0.0267 -0.0227 0.4843, 0.0298 -0.0223 0.4843, 0.0298 -0.0235 0.4843, 0.0298 -0.0237 0.4843, 0.0296 -0.0247 0.4843, 0.0293 -0.0255 0.4843, 0.0288 -0.0262 0.4843, 0.0297 -0.0196 0.4843, 0.0319 -0.0187 0.4843, 0.0295 -0.0187 0.4843, 0.0315 -0.0177 0.4843, 0.0292 -0.0183 0.4843, 0.031 -0.017 0.4843, 0.0288 -0.0179 0.4843, 0.0304 -0.0164 0.4843, 0.0284 -0.0177 0.4843, 0.0297 -0.0159 0.4843, 0.0279 -0.0175 0.4843, 0.0287 -0.0157 0.4843, 0.0271 -0.0174 0.4843, 0.0274 -0.0155 0.4843, 0.0259 -0.0175 0.4843, 0.0252 -0.0158 0.4843, 0.0245 -0.018 0.4843, 0.0235 -0.0164 0.4843, 0.0229 -0.019 0.4843, 0.0229 -0.0167 0.4843, 0.0244 -0.0265 0.4843, 0.0227 -0.0281 0.4843, 0.0246 -0.0267 0.4843, 0.0235 -0.0286 0.4843, 0.025 -0.027 0.4843, 0.0244 -0.029 0.4843, 0.0256 -0.0272 0.4843, 0.0257 -0.0291 0.4843, 0.0263 -0.0272 0.4843, 0.0269 -0.029 0.4843, 0.0272 -0.0272 0.4843, 0.0278 -0.0286 0.4843, 0.0286 -0.0281 0.4843, 0.0239 -0.0248 0.4843, 0.0216 -0.0251 0.4843, 0.0239 -0.0251 0.4843, 0.0216 -0.0253 0.4843, 0.024 -0.0257 0.4843, 0.0217 -0.0264 0.4843, 0.0241 -0.0261 0.4843, 0.022 -0.0271 0.4843, 0.0225 -0.0278 0.4843, 0.0259 -0.0211 0.4843, 0.0242 -0.0215 0.4843, 0.0245 -0.0235 0.4843, 0.0232 -0.022 0.4843, 0.0243 -0.0238 0.4843, 0.0225 -0.0226 0.4843, 0.0241 -0.0243 0.4843, 0.0221 -0.0233 0.4843, 0.0218 -0.0241 0.4843, 0.0271 -0.0174 0.4803, 0.0279 -0.0175 0.4803, 0.0284 -0.0177 0.4803, 0.0288 -0.0179 0.4803, 0.0292 -0.0183 0.4803, 0.0295 -0.0187 0.4803, 0.0297 -0.0196 0.4803, 0.0298 -0.0206 0.4803, 0.0259 -0.0211 0.4803, 0.0242 -0.0215 0.4803, 0.0232 -0.022 0.4803, 0.0225 -0.0226 0.4803, 0.0221 -0.0233 0.4803, 0.0218 -0.0241 0.4803, 0.0216 -0.0251 0.4803, 0.0216 -0.0253 0.4803, 0.0217 -0.0264 0.4803, 0.022 -0.0271 0.4803, 0.0225 -0.0278 0.4803, 0.0227 -0.0281 0.4803, 0.0257 -0.0291 0.4803, 0.0244 -0.029 0.4803, 0.0244 -0.029 0.4803, 0.0235 -0.0286 0.4803, 0.0269 -0.029 0.4803, 0.027 -0.029 0.4803, 0.0278 -0.0286 0.4803, 0.0286 -0.0281 0.4803, 0.0294 -0.0273 0.4803, 0.0297 -0.0268 0.4803, 0.0298 -0.0268 0.4803, 0.0298 -0.0288 0.4803, 0.032 -0.0288 0.4803, 0.032 -0.0205 0.4803, 0.0319 -0.0187 0.4803, 0.0315 -0.0177 0.4803, 0.031 -0.017 0.4803, 0.0304 -0.0164 0.4803, 0.0297 -0.0159 0.4803, 0.0287 -0.0157 0.4803, 0.0274 -0.0155 0.4803, 0.0252 -0.0158 0.4803, 0.0235 -0.0164 0.4803, 0.0229 -0.0167 0.4803, 0.0229 -0.019 0.4803, 0.0245 -0.018 0.4803, 0.0259 -0.0175 0.4803, 0.0288 -0.0262 0.4803, 0.0285 -0.0265 0.4803, 0.0279 -0.0269 0.4803, 0.0272 -0.0272 0.4803, 0.0263 -0.0272 0.4803, 0.0298 -0.0235 0.4803, 0.0298 -0.0237 0.4803, 0.0296 -0.0247 0.4803, 0.0293 -0.0255 0.4803, 0.0298 -0.0223 0.4803, 0.0267 -0.0227 0.4803, 0.0245 -0.0235 0.4803, 0.0249 -0.0233 0.4803, 0.0254 -0.023 0.4803, 0.0239 -0.0251 0.4803, 0.0239 -0.0248 0.4803, 0.0241 -0.0243 0.4803, 0.0243 -0.0238 0.4803, 0.0246 -0.0267 0.4803, 0.0244 -0.0265 0.4803, 0.0241 -0.0261 0.4803, 0.024 -0.0257 0.4803, 0.0256 -0.0272 0.4803, 0.025 -0.027 0.4803
            ]
        }
        coordIndex [
            0,1,2,-1,0,2,3,-1,3,2,4,-1,3,4,5,-1,6,5,7,-1,7,5,4,-1,8,6,9,-1,9,6,7,-1,8,9,10,-1,10,9,11,-1,10,11,12,-1,13,10,14,-1,14,10,12,-1,13,14,15,-1,15,14,16,-1,15,16,17,-1,18,19,20,-1,20,19,15,-1,20,15,17,-1,19,18,21,-1,19,21,22,-1,22,21,23,-1,22,23,24,-1,24,23,25,-1,24,25,26,-1,26,25,27,-1,26,27,28,-1,28,27,29,-1,28,29,30,-1,30,29,31,-1,30,31,32,-1,32,31,33,-1,32,33,34,-1,35,34,36,-1,36,34,33,-1,35,36,37,-1,35,37,38,-1,38,37,39,-1,38,39,40,-1,40,39,41,-1,40,41,42,-1,42,41,43,-1,42,43,44,-1,43,45,44,-1,44,45,46,-1,44,46,47,-1,47,46,48,-1,47,48,49,-1,49,48,50,-1,49,50,51,-1,51,50,52,-1,51,52,53,-1,54,55,56,-1,56,55,53,-1,56,53,52,-1,57,55,58,-1,58,55,54,-1,0,57,1,-1,1,57,58,-1,3,5,53,-1,55,57,53,-1,53,57,0,-1,53,0,3,-1,10,13,8,-1,8,13,15,-1,8,15,6,-1,51,22,49,-1,49,22,24,-1,34,35,32,-1,32,35,38,-1,32,38,30,-1,30,38,40,-1,30,40,28,-1,28,40,42,-1,28,42,26,-1,26,42,44,-1,26,44,24,-1,24,44,47,-1,24,47,49,-1,5,6,53,-1,53,6,15,-1,53,15,51,-1,51,15,19,-1,51,19,22,-1,59,60,61,-1,61,60,62,-1,60,63,62,-1,62,63,64,-1,62,64,65,-1,65,64,66,-1,65,66,67,-1,67,66,68,-1,67,68,69,-1,69,68,70,-1,69,70,71,-1,71,70,72,-1,71,72,73,-1,73,72,74,-1,73,74,75,-1,75,74,76,-1,75,76,77,-1,77,76,78,-1,77,78,79,-1,79,78,80,-1,79,80,81,-1,81,80,82,-1,81,82,83,-1,83,82,84,-1,83,84,85,-1,85,84,86,-1,85,86,87,-1,87,86,88,-1,87,88,89,-1,89,88,90,-1,89,90,91,-1,91,90,92,-1,91,92,93,-1,93,92,94,-1,93,94,95,-1,95,94,96,-1,95,96,97,-1,97,96,98,-1,97,98,99,-1,99,98,100,-1,99,100,101,-1,101,100,102,-1,101,102,103,-1,103,102,104,-1,103,104,105,-1,105,104,106,-1,105,106,107,-1,107,106,108,-1,107,108,109,-1,109,108,110,-1,109,110,111,-1,111,110,112,-1,111,112,113,-1,113,112,114,-1,113,114,115,-1,115,114,116,-1,115,116,117,-1,117,116,118,-1,117,118,119,-1,120,119,121,-1,121,119,118,-1,120,121,122,-1,120,122,123,-1,123,122,124,-1,123,124,125,-1,125,124,126,-1,125,126,127,-1,127,126,128,-1,127,128,129,-1,129,128,130,-1,129,130,131,-1,130,132,131,-1,131,132,133,-1,132,134,133,-1,133,134,135,-1,133,135,136,-1,136,135,137,-1,136,137,138,-1,138,137,139,-1,138,139,140,-1,140,139,141,-1,140,141,142,-1,142,141,143,-1,142,143,144,-1,144,143,145,-1,144,145,146,-1,147,148,149,-1,146,145,150,-1,146,150,151,-1,151,150,152,-1,151,152,149,-1,149,152,153,-1,149,153,147,-1,148,147,154,-1,148,154,155,-1,155,154,156,-1,155,156,157,-1,157,156,158,-1,157,158,159,-1,159,158,160,-1,159,160,161,-1,161,160,162,-1,161,162,163,-1,163,162,164,-1,163,164,165,-1,165,164,166,-1,165,166,167,-1,167,166,168,-1,167,168,169,-1,169,168,170,-1,169,170,171,-1,171,170,172,-1,171,172,173,-1,173,172,174,-1,173,174,175,-1,175,174,176,-1,175,176,177,-1,177,176,178,-1,177,178,179,-1,179,178,180,-1,179,180,181,-1,182,183,184,-1,181,180,185,-1,181,185,186,-1,186,185,187,-1,186,187,184,-1,184,187,188,-1,184,188,182,-1,189,183,190,-1,190,183,182,-1,190,191,189,-1,189,191,192,-1,59,61,193,-1,193,61,192,-1,193,192,194,-1,194,192,191,-1,105,107,129,-1,129,107,127,-1,155,87,148,-1,148,87,89,-1,65,67,171,-1,171,67,69,-1,171,69,169,-1,169,69,71,-1,169,71,167,-1,167,71,73,-1,167,73,165,-1,165,73,75,-1,165,75,163,-1,163,75,77,-1,163,77,161,-1,161,77,79,-1,161,79,159,-1,159,79,81,-1,159,81,157,-1,157,81,83,-1,157,83,155,-1,155,83,85,-1,155,85,87,-1,61,181,192,-1,192,181,186,-1,192,186,189,-1,189,186,184,-1,189,184,183,-1,107,109,127,-1,127,109,111,-1,127,111,125,-1,125,111,113,-1,125,113,123,-1,123,113,115,-1,123,115,120,-1,120,115,117,-1,120,117,119,-1,171,173,65,-1,65,173,175,-1,65,175,62,-1,62,175,177,-1,62,177,61,-1,61,177,179,-1,61,179,181,-1,129,131,105,-1,105,131,133,-1,105,133,103,-1,103,133,136,-1,103,136,101,-1,101,136,138,-1,101,138,99,-1,99,138,140,-1,99,140,97,-1,97,140,142,-1,97,142,95,-1,95,142,144,-1,95,144,93,-1,93,144,146,-1,93,146,91,-1,91,146,151,-1,91,151,89,-1,89,151,149,-1,89,149,148,-1,195,196,197,-1,197,196,198,-1,199,200,201,-1,202,203,204,-1,204,203,205,-1,206,207,198,-1,198,207,208,-1,208,209,198,-1,198,209,210,-1,198,210,197,-1,197,210,211,-1,197,211,202,-1,202,211,212,-1,202,212,203,-1,201,206,199,-1,199,206,198,-1,199,198,213,-1,213,198,214,-1,213,214,215,-1,215,214,216,-1,215,216,217,-1,217,216,218,-1,217,218,219,-1,219,218,220,-1,219,220,221,-1,221,220,222,-1,221,222,223,-1,223,222,224,-1,223,224,225,-1,225,224,226,-1,225,226,227,-1,227,226,228,-1,227,228,229,-1,229,228,230,-1,229,230,231,-1,231,230,232,-1,233,234,235,-1,235,234,236,-1,235,236,237,-1,237,236,238,-1,237,238,239,-1,239,238,240,-1,239,240,241,-1,241,240,242,-1,241,242,243,-1,243,242,244,-1,243,244,205,-1,205,244,245,-1,205,245,204,-1,246,247,248,-1,248,247,249,-1,248,249,250,-1,250,249,251,-1,250,251,252,-1,252,251,253,-1,252,253,233,-1,233,253,254,-1,233,254,234,-1,199,255,200,-1,200,255,256,-1,200,256,257,-1,257,256,258,-1,257,258,259,-1,259,258,260,-1,259,260,261,-1,261,260,262,-1,261,262,246,-1,246,262,263,-1,246,263,247,-1,225,264,265,-1,225,265,223,-1,223,265,266,-1,223,266,221,-1,221,266,267,-1,221,267,219,-1,219,267,268,-1,219,268,217,-1,217,268,269,-1,217,269,215,-1,215,269,270,-1,215,270,213,-1,213,270,271,-1,213,271,199,-1,255,199,272,-1,272,199,271,-1,255,272,273,-1,255,273,256,-1,256,273,274,-1,256,274,258,-1,258,274,275,-1,258,275,260,-1,260,275,276,-1,260,276,262,-1,262,276,277,-1,262,277,263,-1,263,277,278,-1,263,278,247,-1,247,278,279,-1,247,279,249,-1,249,279,280,-1,249,280,251,-1,251,280,281,-1,251,281,253,-1,253,281,282,-1,253,282,254,-1,254,282,283,-1,254,283,234,-1,284,240,285,-1,285,240,238,-1,285,238,286,-1,286,238,236,-1,286,236,287,-1,287,236,234,-1,287,234,283,-1,240,284,288,-1,240,288,242,-1,242,288,289,-1,242,289,244,-1,289,290,244,-1,244,290,291,-1,244,291,245,-1,245,291,292,-1,245,292,204,-1,204,292,293,-1,204,293,202,-1,197,202,294,-1,294,202,293,-1,195,197,295,-1,295,197,294,-1,196,195,296,-1,296,195,295,-1,198,196,297,-1,297,196,296,-1,198,297,298,-1,198,298,214,-1,214,298,299,-1,214,299,216,-1,216,299,300,-1,216,300,218,-1,218,300,301,-1,218,301,220,-1,220,301,302,-1,220,302,222,-1,222,302,303,-1,222,303,224,-1,224,303,304,-1,224,304,226,-1,226,304,305,-1,226,305,228,-1,228,305,306,-1,228,306,230,-1,230,306,307,-1,230,307,232,-1,231,232,308,-1,308,232,307,-1,231,308,309,-1,231,309,229,-1,229,309,310,-1,229,310,227,-1,227,310,264,-1,227,264,225,-1,212,311,312,-1,212,312,203,-1,203,312,313,-1,203,313,205,-1,205,313,314,-1,205,314,243,-1,243,314,315,-1,243,315,241,-1,208,316,317,-1,208,317,209,-1,209,317,318,-1,209,318,210,-1,210,318,319,-1,210,319,211,-1,211,319,311,-1,211,311,212,-1,208,207,316,-1,316,207,320,-1,207,206,320,-1,320,206,321,-1,257,322,323,-1,257,323,200,-1,200,323,324,-1,200,324,201,-1,201,324,321,-1,201,321,206,-1,248,325,326,-1,248,326,246,-1,246,326,327,-1,246,327,261,-1,261,327,328,-1,261,328,259,-1,259,328,322,-1,259,322,257,-1,235,329,330,-1,235,330,233,-1,233,330,331,-1,233,331,252,-1,252,331,332,-1,252,332,250,-1,250,332,325,-1,250,325,248,-1,241,315,333,-1,241,333,239,-1,239,333,334,-1,239,334,237,-1,237,334,329,-1,237,329,235,-1,
        ]
    }
}
Shape{
    appearance Appearance {
        material  Material 	{
            diffuseColor 0.07058823529411765 0.07058823529411765 0.07058823529411765
            specularColor 0.00392156862745098 0.00392156862745098 0.00392156862745098
            ambientIntensity 0.102
            transparency 0.0
            shininess 0.5
        }
    }
    geometry IndexedFaceSet {
        ccw TRUE
        solid FALSE
        coord DEF co Coordinate {
            point [
                0.0298 -0.0223 0.4803, 0.0267 -0.0227 0.4803, 0.0298 -0.0235 0.4803, 0.0254 -0.023 0.4803, 0.0249 -0.0233 0.4803, 0.0245 -0.0235 0.4803, 0.0298 -0.0237 0.4803, 0.0296 -0.0247 0.4803, 0.0243 -0.0238 0.4803, 0.0293 -0.0255 0.4803, 0.0244 -0.0265 0.4803, 0.0246 -0.0267 0.4803, 0.0285 -0.0265 0.4803, 0.0241 -0.0261 0.4803, 0.0279 -0.0269 0.4803, 0.0272 -0.0272 0.4803, 0.0263 -0.0272 0.4803, 0.0241 -0.0243 0.4803, 0.0239 -0.0248 0.4803, 0.0288 -0.0262 0.4803, 0.0239 -0.0251 0.4803, 0.024 -0.0257 0.4803, 0.025 -0.027 0.4803, 0.0256 -0.0272 0.4803
            ]
        }
        coordIndex [
            0,1,2,-1,2,1,3,-1,3,4,2,-1,2,4,5,-1,2,5,6,-1,6,5,7,-1,7,5,8,-1,7,8,9,-1,10,11,12,-1,10,12,13,-1,14,12,15,-1,15,12,16,-1,8,17,9,-1,9,17,18,-1,9,18,19,-1,19,18,20,-1,19,20,12,-1,12,20,21,-1,12,21,13,-1,11,22,12,-1,12,22,23,-1,12,23,16,-1,
        ]
    }
}
Shape{
    appearance Appearance {
        material  Material 	{
            diffuseColor 1.0 1.0 1.0
            specularColor 0.5019607843137255 0.5019607843137255 0.5019607843137255
            ambientIntensity 1.0
            transparency 0.0
            shininess 0.5
        }
    }
    geometry IndexedFaceSet {
        ccw TRUE
        solid FALSE
        coord DEF co Coordinate {
            point [
                -0.0705 -0.0314 0.4843, -0.0686 -0.0338 0.4843, -0.0717 -0.02 0.4843, -0.0466 -0.0232 0.4843, -0.0286 -0.0136 0.4843, -0.0547 -0.024 0.4843, -0.055 -0.0228 0.4843, -0.0739 0.0025 0.4843, -0.0711 0.004 0.4843, -0.0717 0.0119 0.4843, -0.0499 -0.0158 0.4843, -0.0597 -0.0196 0.4843, -0.0586 -0.0197 0.4843, -0.0637 0.0123 0.4843, -0.0597 0.0029 0.4843, -0.0577 0.007 0.4843, -0.0574 -0.0201 0.4843, -0.0564 -0.0208 0.4843, -0.0555 -0.0217 0.4843, -0.0745 -0.0182 0.4843, -0.0734 -0.0281 0.4843, -0.0718 -0.0286 0.4843, -0.0666 0.0126 0.4843, -0.0326 -0.0068 0.4843, -0.0466 -0.0245 0.4843, -0.0547 -0.0252 0.4843, -0.0467 -0.0258 0.4843, -0.0609 -0.0197 0.4843, -0.0626 -0.0118 0.4843, -0.0621 -0.0202 0.4843, -0.0655 -0.0129 0.4843, -0.0631 -0.0209 0.4843, -0.0681 -0.0148 0.4843, -0.0636 -0.0214 0.4843, -0.0703 -0.0172 0.4843, -0.0642 -0.0225 0.4843, -0.0646 -0.0237 0.4843, -0.0647 -0.025 0.4843, -0.0549 -0.0123 0.4843, -0.058 -0.0115 0.4843, -0.0595 -0.0114 0.4843, -0.061 0.0154 0.4843, -0.0548 0.0104 0.4843, -0.058 0.018 0.4843, -0.0513 0.013 0.4843, -0.0548 0.0199 0.4843, -0.0679 0.0048 0.4843, -0.0665 0.0048 0.4843, -0.0652 0.0125 0.4843, -0.0635 0.0044 0.4843, -0.0606 0.0034 0.4843, -0.0217 -0.0289 0.4843, -0.0225 -0.021 0.4843, -0.0293 -0.0289 0.4843, -0.0283 -0.021 0.4843, -0.0301 -0.0288 0.4843, -0.0521 -0.0138 0.4843, -0.0243 -0.0009 0.4843, -0.0233 -0.0009 0.4843, -0.018 0.0061 0.4843, -0.0212 -0.0011 0.4843, -0.0173 0.0059 0.4843, -0.0189 -0.0019 0.4843, -0.0135 0.004 0.4843, -0.0168 -0.0032 0.4843, -0.01 0.001 0.4843, -0.0151 -0.005 0.4843, -0.0074 -0.0026 0.4843, -0.0139 -0.0072 0.4843, -0.0058 -0.0066 0.4843, -0.0133 -0.0097 0.4843, -0.0052 -0.0108 0.4843, -0.0132 -0.0109 0.4843, -0.0058 -0.0154 0.4843, -0.0134 -0.0131 0.4843, -0.0074 -0.0195 0.4843, -0.0142 -0.0154 0.4843, -0.01 -0.0231 0.4843, -0.0156 -0.0175 0.4843, -0.0135 -0.026 0.4843, -0.0168 -0.0187 0.4843, -0.0174 -0.028 0.4843, -0.0189 -0.0201 0.4843, -0.0213 -0.0208 0.4843, -0.0249 0.0163 0.4843, -0.03 0.0104 0.4843, -0.0207 0.0114 0.4843, -0.0271 0.0069 0.4843, -0.0251 0.0028 0.4843, -0.079 -0.0049 0.4843, -0.0875 -0.0071 0.4843, -0.0794 -0.0081 0.4843, -0.0876 -0.0083 0.4843, -0.0793 -0.0101 0.4843, -0.0869 -0.0134 0.4843, -0.0783 -0.0133 0.4843, -0.0851 -0.0182 0.4843, -0.0768 -0.0158 0.4843, -0.0821 -0.0224 0.4843, -0.0781 -0.0258 0.4843, -0.0645 -0.0262 0.4843, -0.0639 -0.0273 0.4843, -0.0289 -0.0209 0.4843, -0.0321 -0.0275 0.4843, -0.0318 -0.0278 0.4843, -0.0489 0.0222 0.4843, -0.0471 0.0147 0.4843, -0.0425 0.023 0.4843, -0.0424 0.0153 0.4843, -0.0372 0.0225 0.4843, -0.038 0.0147 0.4843, -0.0307 0.0202 0.4843, -0.0339 0.0132 0.4843, -0.0303 0.0107 0.4843, -0.0765 0.0101 0.4843, -0.0806 0.0072 0.4843, -0.0761 0.0005 0.4843, -0.0815 0.0064 0.4843, -0.0779 -0.0021 0.4843, -0.0846 0.0024 0.4843, -0.0867 -0.0023 0.4843, -0.0475 -0.029 0.4843, -0.055 -0.0264 0.4843, -0.049 -0.0319 0.4843, -0.0556 -0.0275 0.4843, -0.051 -0.0341 0.4843, -0.0563 -0.0283 0.4843, -0.0535 -0.0359 0.4843, -0.0573 -0.029 0.4843, -0.0564 -0.037 0.4843, -0.0584 -0.0295 0.4843, -0.0595 -0.0374 0.4843, -0.0597 -0.0296 0.4843, -0.06 -0.0374 0.4843, -0.0599 -0.0296 0.4843, -0.0631 -0.0369 0.4843, -0.061 -0.0294 0.4843, -0.0661 -0.0357 0.4843, -0.0622 -0.0289 0.4843, -0.0632 -0.0282 0.4843, -0.0286 -0.021 0.4843, -0.0309 -0.0284 0.4843, -0.0331 -0.0249 0.4843, -0.033 -0.0258 0.4843, -0.0326 -0.0267 0.4843, -0.0301 -0.021 0.4843, -0.031 -0.0213 0.4843, -0.033 -0.0244 0.4843, -0.0318 -0.0219 0.4843, -0.0323 -0.0225 0.4843, -0.0328 -0.0234 0.4843, -0.0291 -0.0209 0.4843, -0.0052 -0.0108 0.4803, -0.0058 -0.0066 0.4803, -0.0062 -0.0055 0.4803, -0.0074 -0.0026 0.4803, -0.0091 -0.0002 0.4803, -0.01 0.001 0.4803, -0.0135 0.004 0.4803, -0.0173 0.0059 0.4803, -0.018 0.0061 0.4803, -0.0207 0.0114 0.4803, -0.0249 0.0163 0.4803, -0.0279 0.0183 0.4803, -0.0307 0.0202 0.4803, -0.0372 0.0225 0.4803, -0.0425 0.023 0.4803, -0.058 0.018 0.4803, -0.0575 0.0183 0.4803, -0.0548 0.0199 0.4803, -0.0489 0.0222 0.4803, -0.061 0.0154 0.4803, -0.0637 0.0123 0.4803, -0.0652 0.0125 0.4803, -0.0666 0.0126 0.4803, -0.0717 0.0119 0.4803, -0.0765 0.0101 0.4803, -0.0806 0.0072 0.4803, -0.0815 0.0064 0.4803, -0.0876 -0.0083 0.4803, -0.0846 0.0024 0.4803, -0.0857 -0.0002 0.4803, -0.0867 -0.0023 0.4803, -0.0872 -0.0055 0.4803, -0.0875 -0.0071 0.4803, -0.0869 -0.0134 0.4803, -0.0851 -0.0182 0.4803, -0.0821 -0.0224 0.4803, -0.0781 -0.0258 0.4803, -0.0734 -0.0281 0.4803, -0.0718 -0.0286 0.4803, -0.0716 -0.029 0.4803, -0.0705 -0.0314 0.4803, -0.0686 -0.0338 0.4803, -0.0661 -0.0357 0.4803, -0.0649 -0.0362 0.4803, -0.0631 -0.0369 0.4803, -0.06 -0.0374 0.4803, -0.0595 -0.0374 0.4803, -0.0466 -0.0245 0.4803, -0.0564 -0.037 0.4803, -0.0542 -0.0362 0.4803, -0.0535 -0.0359 0.4803, -0.051 -0.0341 0.4803, -0.049 -0.0319 0.4803, -0.0475 -0.029 0.4803, -0.0474 -0.029 0.4803, -0.0467 -0.0258 0.4803, -0.0466 -0.0232 0.4803, -0.0286 -0.0136 0.4803, -0.0326 -0.0068 0.4803, -0.0499 -0.0158 0.4803, -0.0521 -0.0138 0.4803, -0.0549 -0.0123 0.4803, -0.058 -0.0115 0.4803, -0.0595 -0.0114 0.4803, -0.0626 -0.0118 0.4803, -0.0655 -0.0129 0.4803, -0.0681 -0.0148 0.4803, -0.0703 -0.0172 0.4803, -0.0717 -0.02 0.4803, -0.0745 -0.0182 0.4803, -0.0768 -0.0158 0.4803, -0.0783 -0.0133 0.4803, -0.0793 -0.0101 0.4803, -0.0794 -0.0081 0.4803, -0.0791 -0.0055 0.4803, -0.079 -0.0049 0.4803, -0.0779 -0.0021 0.4803, -0.0766 -0.0002 0.4803, -0.0761 0.0005 0.4803, -0.0739 0.0025 0.4803, -0.0711 0.004 0.4803, -0.0679 0.0048 0.4803, -0.0665 0.0048 0.4803, -0.0635 0.0044 0.4803, -0.0606 0.0034 0.4803, -0.0597 0.0029 0.4803, -0.0577 0.007 0.4803, -0.0548 0.0104 0.4803, -0.0513 0.013 0.4803, -0.0471 0.0147 0.4803, -0.0424 0.0153 0.4803, -0.0243 -0.0009 0.4803, -0.0245 -0.0002 0.4803, -0.0251 0.0028 0.4803, -0.0271 0.0069 0.4803, -0.03 0.0104 0.4803, -0.0303 0.0107 0.4803, -0.0339 0.0132 0.4803, -0.038 0.0147 0.4803, -0.0233 -0.0009 0.4803, -0.0212 -0.0011 0.4803, -0.0189 -0.0019 0.4803, -0.0168 -0.0032 0.4803, -0.0151 -0.005 0.4803, -0.0149 -0.0055 0.4803, -0.0139 -0.0072 0.4803, -0.0133 -0.0097 0.4803, -0.0132 -0.0109 0.4803, -0.0134 -0.0131 0.4803, -0.0142 -0.0154 0.4803, -0.0156 -0.0175 0.4803, -0.0168 -0.0187 0.4803, -0.0189 -0.0201 0.4803, -0.0213 -0.0208 0.4803, -0.0225 -0.021 0.4803, -0.0283 -0.021 0.4803, -0.0286 -0.021 0.4803, -0.0289 -0.0209 0.4803, -0.0291 -0.0209 0.4803, -0.0301 -0.021 0.4803, -0.031 -0.0213 0.4803, -0.0318 -0.0219 0.4803, -0.0323 -0.0225 0.4803, -0.0328 -0.0234 0.4803, -0.033 -0.0244 0.4803, -0.0331 -0.0249 0.4803, -0.033 -0.0258 0.4803, -0.0326 -0.0267 0.4803, -0.0321 -0.0275 0.4803, -0.0318 -0.0278 0.4803, -0.0309 -0.0284 0.4803, -0.0301 -0.0288 0.4803, -0.0293 -0.0289 0.4803, -0.0217 -0.0289 0.4803, -0.0174 -0.028 0.4803, -0.0135 -0.026 0.4803, -0.01 -0.0231 0.4803, -0.0074 -0.0195 0.4803, -0.0058 -0.0154 0.4803, -0.0597 -0.0196 0.4803, -0.0586 -0.0197 0.4803, -0.0574 -0.0201 0.4803, -0.0564 -0.0208 0.4803, -0.0555 -0.0217 0.4803, -0.055 -0.0228 0.4803, -0.0547 -0.024 0.4803, -0.0547 -0.0252 0.4803, -0.055 -0.0264 0.4803, -0.0556 -0.0275 0.4803, -0.0563 -0.0283 0.4803, -0.0573 -0.029 0.4803, -0.0584 -0.0295 0.4803, -0.0597 -0.0296 0.4803, -0.0599 -0.0296 0.4803, -0.061 -0.0294 0.4803, -0.0622 -0.0289 0.4803, -0.0632 -0.0282 0.4803, -0.0639 -0.0273 0.4803, -0.0645 -0.0262 0.4803, -0.0647 -0.025 0.4803, -0.0646 -0.0237 0.4803, -0.0642 -0.0225 0.4803, -0.0636 -0.0214 0.4803, -0.0631 -0.0209 0.4803, -0.0621 -0.0202 0.4803, -0.0609 -0.0197 0.4803
            ]
        }
        coordIndex [
            0,1,2,-1,3,4,5,-1,5,4,6,-1,7,8,9,-1,10,11,12,-1,13,14,15,-1,12,16,10,-1,10,16,17,-1,10,17,18,-1,19,20,2,-1,2,20,21,-1,2,21,0,-1,9,8,22,-1,6,4,18,-1,18,4,23,-1,18,23,10,-1,3,5,24,-1,24,5,25,-1,24,25,26,-1,27,28,29,-1,29,28,30,-1,29,30,31,-1,31,30,32,-1,31,32,33,-1,33,32,34,-1,33,34,35,-1,35,34,2,-1,35,2,36,-1,36,2,37,-1,38,39,27,-1,27,39,40,-1,27,40,28,-1,13,15,41,-1,41,15,42,-1,41,42,43,-1,43,42,44,-1,43,44,45,-1,8,46,22,-1,22,46,47,-1,22,47,48,-1,48,47,49,-1,48,49,13,-1,13,49,50,-1,13,50,14,-1,51,52,53,-1,53,52,54,-1,53,54,55,-1,11,10,27,-1,27,10,56,-1,27,56,38,-1,57,58,59,-1,59,58,60,-1,59,60,61,-1,61,60,62,-1,61,62,63,-1,63,62,64,-1,63,64,65,-1,65,64,66,-1,65,66,67,-1,67,66,68,-1,67,68,69,-1,69,68,70,-1,69,70,71,-1,71,70,72,-1,71,72,73,-1,73,72,74,-1,73,74,75,-1,75,74,76,-1,75,76,77,-1,77,76,78,-1,77,78,79,-1,79,78,80,-1,79,80,81,-1,81,80,82,-1,81,82,51,-1,51,82,83,-1,51,83,52,-1,84,85,86,-1,86,85,87,-1,86,87,59,-1,59,87,88,-1,59,88,57,-1,89,90,91,-1,91,90,92,-1,91,92,93,-1,93,92,94,-1,93,94,95,-1,95,94,96,-1,95,96,97,-1,97,96,98,-1,97,98,19,-1,19,98,99,-1,19,99,20,-1,37,2,100,-1,100,2,1,-1,100,1,101,-1,102,103,104,-1,45,44,105,-1,105,44,106,-1,105,106,107,-1,107,106,108,-1,107,108,109,-1,109,108,110,-1,109,110,111,-1,111,110,112,-1,111,112,84,-1,84,112,113,-1,84,113,85,-1,9,114,7,-1,7,114,115,-1,7,115,116,-1,116,115,117,-1,116,117,118,-1,118,117,119,-1,118,119,89,-1,89,119,120,-1,89,120,90,-1,26,25,121,-1,121,25,122,-1,121,122,123,-1,123,122,124,-1,123,124,125,-1,125,124,126,-1,125,126,127,-1,127,126,128,-1,127,128,129,-1,129,128,130,-1,129,130,131,-1,131,130,132,-1,131,132,133,-1,133,132,134,-1,133,134,135,-1,135,134,136,-1,135,136,137,-1,137,136,138,-1,137,138,1,-1,1,138,139,-1,1,139,101,-1,54,140,55,-1,55,140,102,-1,55,102,141,-1,141,102,104,-1,142,143,102,-1,102,143,144,-1,102,144,103,-1,145,146,147,-1,146,148,147,-1,147,148,149,-1,147,149,150,-1,142,102,147,-1,147,102,151,-1,147,151,145,-1,71,152,153,-1,71,153,69,-1,69,153,154,-1,69,154,67,-1,154,155,67,-1,67,155,156,-1,67,156,65,-1,156,157,65,-1,65,157,158,-1,65,158,63,-1,63,158,159,-1,63,159,61,-1,61,159,160,-1,61,160,59,-1,59,160,161,-1,59,161,86,-1,86,161,162,-1,86,162,84,-1,84,162,111,-1,111,162,163,-1,163,164,111,-1,111,164,165,-1,111,165,109,-1,109,165,166,-1,109,166,107,-1,167,43,168,-1,168,43,45,-1,168,45,169,-1,169,45,105,-1,169,105,170,-1,170,105,107,-1,170,107,166,-1,43,167,171,-1,43,171,41,-1,41,171,172,-1,41,172,13,-1,13,172,173,-1,13,173,48,-1,48,173,174,-1,48,174,22,-1,22,174,175,-1,22,175,9,-1,9,175,176,-1,9,176,114,-1,114,176,177,-1,114,177,115,-1,115,177,178,-1,115,178,117,-1,179,92,90,-1,117,178,180,-1,181,120,180,-1,180,120,119,-1,180,119,117,-1,181,182,120,-1,120,182,183,-1,120,183,90,-1,90,183,184,-1,90,184,179,-1,92,179,185,-1,92,185,94,-1,94,185,186,-1,94,186,96,-1,96,186,187,-1,96,187,98,-1,98,187,188,-1,98,188,99,-1,99,188,189,-1,99,189,20,-1,20,189,190,-1,20,190,21,-1,21,190,191,-1,21,191,0,-1,191,192,0,-1,0,192,193,-1,0,193,1,-1,1,193,194,-1,1,194,137,-1,137,194,195,-1,137,195,135,-1,195,196,135,-1,135,196,197,-1,135,197,133,-1,133,197,198,-1,133,198,131,-1,199,24,26,-1,131,198,200,-1,131,200,129,-1,129,200,201,-1,129,201,127,-1,201,202,127,-1,127,202,203,-1,127,203,125,-1,125,203,204,-1,125,204,123,-1,123,204,205,-1,123,205,121,-1,121,205,206,-1,121,206,26,-1,26,206,207,-1,26,207,199,-1,3,24,208,-1,208,24,199,-1,4,3,209,-1,209,3,208,-1,23,4,210,-1,210,4,209,-1,10,23,211,-1,211,23,210,-1,10,211,212,-1,10,212,56,-1,56,212,213,-1,56,213,38,-1,38,213,214,-1,38,214,39,-1,39,214,215,-1,39,215,40,-1,40,215,216,-1,40,216,28,-1,28,216,217,-1,28,217,30,-1,30,217,218,-1,30,218,32,-1,32,218,219,-1,32,219,34,-1,34,219,220,-1,34,220,2,-1,2,220,221,-1,2,221,19,-1,19,221,222,-1,19,222,97,-1,97,222,223,-1,97,223,95,-1,95,223,224,-1,95,224,93,-1,93,224,225,-1,93,225,91,-1,225,226,91,-1,91,226,89,-1,226,227,89,-1,89,227,228,-1,89,228,118,-1,118,228,229,-1,118,229,116,-1,229,230,116,-1,116,230,231,-1,116,231,7,-1,7,231,232,-1,7,232,8,-1,8,232,233,-1,8,233,46,-1,46,233,234,-1,46,234,47,-1,47,234,235,-1,47,235,49,-1,49,235,236,-1,49,236,50,-1,50,236,237,-1,50,237,14,-1,14,237,238,-1,14,238,15,-1,15,238,239,-1,15,239,42,-1,42,239,240,-1,42,240,44,-1,44,240,241,-1,44,241,106,-1,106,241,242,-1,106,242,108,-1,243,57,244,-1,244,57,88,-1,244,88,245,-1,245,88,87,-1,245,87,246,-1,246,87,85,-1,246,85,247,-1,247,85,113,-1,247,113,248,-1,248,113,112,-1,248,112,249,-1,249,112,110,-1,249,110,250,-1,250,110,108,-1,250,108,242,-1,58,57,251,-1,251,57,243,-1,58,251,252,-1,58,252,60,-1,60,252,253,-1,60,253,62,-1,62,253,254,-1,62,254,64,-1,64,254,255,-1,64,255,66,-1,66,255,256,-1,66,256,68,-1,256,257,68,-1,68,257,258,-1,68,258,70,-1,70,258,259,-1,70,259,72,-1,72,259,260,-1,72,260,74,-1,74,260,261,-1,74,261,76,-1,76,261,262,-1,76,262,78,-1,78,262,263,-1,78,263,80,-1,80,263,264,-1,80,264,82,-1,82,264,265,-1,82,265,83,-1,83,265,266,-1,83,266,52,-1,54,52,267,-1,267,52,266,-1,54,267,268,-1,54,268,140,-1,140,268,269,-1,140,269,102,-1,102,269,270,-1,102,270,151,-1,151,270,271,-1,151,271,145,-1,145,271,272,-1,145,272,146,-1,146,272,273,-1,146,273,148,-1,148,273,274,-1,148,274,149,-1,149,274,275,-1,149,275,150,-1,150,275,276,-1,150,276,147,-1,147,276,277,-1,147,277,142,-1,142,277,278,-1,142,278,143,-1,143,278,279,-1,143,279,144,-1,144,279,280,-1,144,280,103,-1,103,280,281,-1,103,281,104,-1,104,281,282,-1,104,282,141,-1,141,282,283,-1,141,283,55,-1,55,283,284,-1,55,284,53,-1,51,53,285,-1,285,53,284,-1,51,285,286,-1,51,286,81,-1,81,286,287,-1,81,287,79,-1,79,287,288,-1,79,288,77,-1,77,288,289,-1,77,289,75,-1,75,289,290,-1,75,290,73,-1,73,290,152,-1,73,152,71,-1,11,291,292,-1,11,292,12,-1,12,292,293,-1,12,293,16,-1,16,293,294,-1,16,294,17,-1,17,294,295,-1,17,295,18,-1,18,295,296,-1,18,296,6,-1,6,296,297,-1,6,297,5,-1,5,297,298,-1,5,298,25,-1,25,298,299,-1,25,299,122,-1,122,299,300,-1,122,300,124,-1,124,300,301,-1,124,301,126,-1,126,301,302,-1,126,302,128,-1,128,302,303,-1,128,303,130,-1,130,303,304,-1,130,304,132,-1,132,304,305,-1,132,305,134,-1,134,305,306,-1,134,306,136,-1,136,306,307,-1,136,307,138,-1,138,307,308,-1,138,308,139,-1,139,308,309,-1,139,309,101,-1,101,309,310,-1,101,310,100,-1,100,310,311,-1,100,311,37,-1,37,311,312,-1,37,312,36,-1,36,312,313,-1,36,313,35,-1,35,313,314,-1,35,314,33,-1,33,314,315,-1,33,315,31,-1,31,315,316,-1,31,316,29,-1,29,316,317,-1,29,317,27,-1,27,317,291,-1,27,291,11,-1,
        ]
    }
}
Shape{
    appearance Appearance {
        material  Material 	{
            diffuseColor 0.07058823529411765 0.07058823529411765 0.07058823529411765
            specularColor 0.00392156862745098 0.00392156862745098 0.00392156862745098
            ambientIntensity 0.102
            transparency 0.0
            shininess 0.5
        }
    }
    geometry IndexedFaceSet {
        ccw TRUE
        solid FALSE
        coord DEF co Coordinate {
            point [
                -0.0599 -0.0296 0.4803, -0.0631 -0.0209 0.4803, -0.0636 -0.0214 0.4803, -0.0584 -0.0295 0.4803, -0.0573 -0.029 0.4803, -0.0586 -0.0197 0.4803, -0.0597 -0.0196 0.4803, -0.0609 -0.0197 0.4803, -0.0621 -0.0202 0.4803, -0.0645 -0.0262 0.4803, -0.0639 -0.0273 0.4803, -0.0632 -0.0282 0.4803, -0.0597 -0.0296 0.4803, -0.0642 -0.0225 0.4803, -0.0646 -0.0237 0.4803, -0.0647 -0.025 0.4803, -0.0622 -0.0289 0.4803, -0.061 -0.0294 0.4803, -0.0563 -0.0283 0.4803, -0.0556 -0.0275 0.4803, -0.055 -0.0264 0.4803, -0.0547 -0.0252 0.4803, -0.0547 -0.024 0.4803, -0.055 -0.0228 0.4803, -0.0555 -0.0217 0.4803, -0.0564 -0.0208 0.4803, -0.0574 -0.0201 0.4803
            ]
        }
        coordIndex [
            0,1,2,-1,3,4,5,-1,6,7,0,-1,0,7,8,-1,0,8,1,-1,9,10,2,-1,2,10,11,-1,6,0,5,-1,5,0,12,-1,5,12,3,-1,13,14,2,-1,2,14,15,-1,2,15,9,-1,11,16,2,-1,2,16,17,-1,2,17,0,-1,4,18,5,-1,5,18,19,-1,5,19,20,-1,20,21,5,-1,5,21,22,-1,5,22,23,-1,23,24,5,-1,5,24,25,-1,5,25,26,-1,
        ]
    }
}
Shape{
    appearance Appearance {
        material  Material 	{
            diffuseColor 1.0 1.0 1.0
            specularColor 0.5019607843137255 0.5019607843137255 0.5019607843137255
            ambientIntensity 1.0
            transparency 0.0
            shininess 0.5
        }
    }
    geometry IndexedFaceSet {
        ccw TRUE
        solid FALSE
        coord DEF co Coordinate {
            point [
                0.0613 0.0138 0.4843, 0.0633 0.0149 0.4843, 0.0607 0.0144 0.4843, 0.0625 0.0158 0.4843, 0.0594 0.0153 0.4843, 0.0608 0.0169 0.4843, 0.0578 0.0158 0.4843, 0.0586 0.0178 0.4843, 0.0555 0.0161 0.4843, 0.0556 0.0182 0.4843, 0.0528 0.0161 0.4843, 0.0504 0.0182 0.4843, 0.0528 0.0021 0.4843, 0.0504 0.0 0.4843, 0.0554 0.0021 0.4843, 0.0554 0.0 0.4843, 0.0576 0.0023 0.4843, 0.0585 0.0004 0.4843, 0.0592 0.0028 0.4843, 0.0605 0.0012 0.4843, 0.0604 0.0036 0.4843, 0.0623 0.0024 0.4843, 0.0608 0.004 0.4843, 0.0625 0.0025 0.4843, 0.0617 0.0052 0.4843, 0.0638 0.0041 0.4843, 0.0624 0.0065 0.4843, 0.0647 0.0059 0.4843, 0.0627 0.0082 0.4843, 0.0651 0.008 0.4843, 0.0627 0.0092 0.4843, 0.0652 0.0093 0.4843, 0.0625 0.0114 0.4843, 0.065 0.0115 0.4843, 0.062 0.0127 0.4843, 0.0644 0.0133 0.4843, 0.0625 0.0025 0.4803, 0.0638 0.0041 0.4803, 0.0647 0.0059 0.4803, 0.0651 0.008 0.4803, 0.0652 0.0093 0.4803, 0.065 0.0115 0.4803, 0.0644 0.0133 0.4803, 0.0633 0.0149 0.4803, 0.0625 0.0158 0.4803, 0.0608 0.0169 0.4803, 0.0586 0.0178 0.4803, 0.0556 0.0182 0.4803, 0.0504 0.0182 0.4803, 0.0504 0.0 0.4803, 0.0554 0.0 0.4803, 0.0585 0.0004 0.4803, 0.0605 0.0012 0.4803, 0.0623 0.0024 0.4803, 0.0607 0.0144 0.4803, 0.0613 0.0138 0.4803, 0.062 0.0127 0.4803, 0.0625 0.0114 0.4803, 0.0627 0.0092 0.4803, 0.0555 0.0161 0.4803, 0.0578 0.0158 0.4803, 0.0594 0.0153 0.4803, 0.0528 0.0161 0.4803, 0.0528 0.0021 0.4803, 0.0554 0.0021 0.4803, 0.0608 0.004 0.4803, 0.0604 0.0036 0.4803, 0.0592 0.0028 0.4803, 0.0576 0.0023 0.4803, 0.0627 0.0082 0.4803, 0.0624 0.0065 0.4803, 0.0617 0.0052 0.4803
            ]
        }
        coordIndex [
            0,1,2,-1,2,1,3,-1,2,3,4,-1,4,3,5,-1,4,5,6,-1,6,5,7,-1,6,7,8,-1,8,7,9,-1,8,9,10,-1,10,9,11,-1,10,11,12,-1,12,11,13,-1,12,13,14,-1,14,13,15,-1,14,15,16,-1,16,15,17,-1,16,17,18,-1,18,17,19,-1,18,19,20,-1,20,19,21,-1,20,21,22,-1,22,21,23,-1,22,23,24,-1,24,23,25,-1,24,25,26,-1,26,25,27,-1,26,27,28,-1,28,27,29,-1,28,29,30,-1,30,29,31,-1,30,31,32,-1,32,31,33,-1,32,33,34,-1,34,33,35,-1,34,35,0,-1,0,35,1,-1,23,36,37,-1,23,37,25,-1,25,37,38,-1,25,38,27,-1,27,38,39,-1,27,39,29,-1,29,39,40,-1,29,40,31,-1,31,40,41,-1,31,41,33,-1,33,41,42,-1,33,42,35,-1,35,42,43,-1,35,43,1,-1,1,43,44,-1,1,44,3,-1,3,44,45,-1,3,45,5,-1,5,45,46,-1,5,46,7,-1,7,46,47,-1,7,47,9,-1,11,9,48,-1,48,9,47,-1,13,11,49,-1,49,11,48,-1,15,13,50,-1,50,13,49,-1,15,50,51,-1,15,51,17,-1,17,51,52,-1,17,52,19,-1,19,52,53,-1,19,53,21,-1,21,53,36,-1,21,36,23,-1,2,54,55,-1,2,55,0,-1,0,55,56,-1,0,56,34,-1,34,56,57,-1,34,57,32,-1,32,57,58,-1,32,58,30,-1,8,59,60,-1,8,60,6,-1,6,60,61,-1,6,61,4,-1,4,61,54,-1,4,54,2,-1,8,10,59,-1,59,10,62,-1,10,12,62,-1,62,12,63,-1,12,14,63,-1,63,14,64,-1,22,65,66,-1,22,66,20,-1,20,66,67,-1,20,67,18,-1,18,67,68,-1,18,68,16,-1,16,68,64,-1,16,64,14,-1,30,58,69,-1,30,69,28,-1,28,69,70,-1,28,70,26,-1,26,70,71,-1,26,71,24,-1,24,71,65,-1,24,65,22,-1,
        ]
    }
}
Shape{
    appearance Appearance {
        material  Material 	{
            diffuseColor 0.07058823529411765 0.07058823529411765 0.07058823529411765
            specularColor 0.00392156862745098 0.00392156862745098 0.00392156862745098
            ambientIntensity 0.102
            transparency 0.0
            shininess 0.5
        }
    }
    geometry IndexedFaceSet {
        ccw TRUE
        solid FALSE
        coord DEF co Coordinate {
            point [
                0.0528 0.0161 0.4803, 0.0528 0.0021 0.4803, 0.0555 0.0161 0.4803, 0.0554 0.0021 0.4803, 0.0576 0.0023 0.4803, 0.0592 0.0028 0.4803, 0.0604 0.0036 0.4803, 0.0608 0.004 0.4803, 0.0617 0.0052 0.4803, 0.0624 0.0065 0.4803, 0.0627 0.0082 0.4803, 0.0627 0.0092 0.4803, 0.0625 0.0114 0.4803, 0.062 0.0127 0.4803, 0.0613 0.0138 0.4803, 0.0607 0.0144 0.4803, 0.0578 0.0158 0.4803, 0.0594 0.0153 0.4803
            ]
        }
        coordIndex [
            0,1,2,-1,2,1,3,-1,2,3,4,-1,4,5,2,-1,2,5,6,-1,2,6,7,-1,7,8,2,-1,2,8,9,-1,2,9,10,-1,10,11,2,-1,2,11,12,-1,2,12,13,-1,13,14,2,-1,2,14,15,-1,2,15,16,-1,16,15,17,-1,
        ]
    }
}
Shape{
    appearance Appearance {
        material  Material 	{
            diffuseColor 1.0 1.0 1.0
            specularColor 0.5019607843137255 0.5019607843137255 0.5019607843137255
            ambientIntensity 1.0
            transparency 0.0
            shininess 0.5
        }
    }
    geometry IndexedFaceSet {
        ccw TRUE
        solid FALSE
        coord DEF co Coordinate {
            point [
                0.0289 0.0018 0.4843, 0.0289 0.0018 0.4803, 0.027 0.002 0.4803, 0.027 0.002 0.4843, 0.0258 0.0025 0.4803, 0.0258 0.0025 0.4843, 0.0246 0.0034 0.4803, 0.0246 0.0034 0.4843, 0.0242 0.0037 0.4803, 0.0242 0.0037 0.4843, 0.0233 0.005 0.4803, 0.0233 0.005 0.4843, 0.0227 0.0065 0.4803, 0.0227 0.0065 0.4843, 0.0225 0.0087 0.4803, 0.0225 0.0087 0.4843, 0.0225 0.0089 0.4803, 0.0225 0.0089 0.4843, 0.0227 0.0111 0.4803, 0.0227 0.0111 0.4843, 0.0233 0.0127 0.4803, 0.0233 0.0127 0.4843, 0.0241 0.014 0.4803, 0.0241 0.014 0.4843, 0.0244 0.0143 0.4803, 0.0244 0.0143 0.4843, 0.0255 0.0153 0.4803, 0.0255 0.0153 0.4843, 0.0269 0.016 0.4803, 0.0269 0.016 0.4843, 0.0285 0.0163 0.4803, 0.0285 0.0163 0.4843, 0.0293 0.0163 0.4803, 0.0293 0.0163 0.4843, 0.0336 0.0153 0.4803, 0.0336 0.0153 0.4843, 0.0333 0.0154 0.4843, 0.0314 0.0161 0.4803, 0.0314 0.0161 0.4843, 0.0328 0.0156 0.4803, 0.0333 0.0154 0.4803, 0.0336 0.0177 0.4843, 0.0336 0.0177 0.4803, 0.0293 0.0185 0.4803, 0.0293 0.0185 0.4843, 0.0295 0.0185 0.4843, 0.0328 0.018 0.4803, 0.0318 0.0183 0.4843, 0.0318 0.0183 0.4803, 0.0312 0.0183 0.4803, 0.0295 0.0185 0.4803, 0.0278 0.0183 0.4803, 0.027 0.0182 0.4843, 0.027 0.0182 0.4803, 0.0251 0.0176 0.4803, 0.0251 0.0176 0.4843, 0.0233 0.0164 0.4803, 0.0233 0.0164 0.4843, 0.0226 0.0158 0.4803, 0.0226 0.0158 0.4843, 0.0214 0.0142 0.4803, 0.0214 0.0142 0.4843, 0.0208 0.0129 0.4803, 0.0205 0.0122 0.4843, 0.0205 0.0122 0.4803, 0.02 0.0099 0.4803, 0.02 0.0099 0.4843, 0.02 0.0087 0.4803, 0.02 0.0087 0.4843, 0.0203 0.0058 0.4803, 0.0203 0.0058 0.4843, 0.0208 0.0046 0.4803, 0.0211 0.0039 0.4843, 0.0211 0.0039 0.4803, 0.0222 0.0024 0.4803, 0.0222 0.0024 0.4843, 0.0223 0.0022 0.4803, 0.0223 0.0022 0.4843, 0.0286 -0.0003 0.4803, 0.0286 -0.0003 0.4843, 0.0274 -0.0003 0.4843, 0.0238 0.001 0.4803, 0.0238 0.001 0.4843, 0.0255 0.0002 0.4803, 0.0255 0.0002 0.4843, 0.027 -0.0002 0.4803, 0.0274 -0.0003 0.4803, 0.0336 0.0008 0.4803, 0.0336 0.0008 0.4843, 0.0333 0.0006 0.4843, 0.0302 -0.0002 0.4803, 0.0313 -0.0 0.4843, 0.0313 -0.0 0.4803, 0.0328 0.0004 0.4803, 0.0333 0.0006 0.4803, 0.0336 0.003 0.4843, 0.0336 0.003 0.4803, 0.0328 0.0026 0.4803, 0.0319 0.0022 0.4843, 0.0319 0.0022 0.4803, 0.0298 0.0018 0.4803, 0.0298 0.0018 0.4843, 0.094 -0.0218 0.4843, 0.0933 -0.0238 0.4843, 0.1001 -0.0218 0.4843, 0.1008 -0.0238 0.4843, 0.0967 -0.0142 0.4843, 0.0959 -0.0106 0.4843, 0.089 -0.0288 0.4843, 0.0915 -0.0288 0.4843, 0.0969 -0.0137 0.4843, 0.097 -0.013 0.4843, 0.0984 -0.0106 0.4843, 0.0971 -0.013 0.4843, 0.0972 -0.0137 0.4843, 0.0974 -0.0142 0.4843, 0.1053 -0.0288 0.4843, 0.1027 -0.0288 0.4843, 0.0959 -0.0106 0.4803, 0.0984 -0.0106 0.4803, 0.089 -0.0288 0.4803, 0.0915 -0.0288 0.4803, 0.0933 -0.0238 0.4803, 0.1008 -0.0238 0.4803, 0.1027 -0.0288 0.4803, 0.1053 -0.0288 0.4803, 0.0967 -0.0142 0.4803, 0.0969 -0.0137 0.4803, 0.097 -0.013 0.4803, 0.094 -0.0218 0.4803, 0.1001 -0.0218 0.4803, 0.0974 -0.0142 0.4803, 0.0971 -0.013 0.4803, 0.0972 -0.0137 0.4803
            ]
        }
        coordIndex [
            0,1,2,-1,0,2,3,-1,3,2,4,-1,3,4,5,-1,5,4,6,-1,5,6,7,-1,7,6,8,-1,7,8,9,-1,9,8,10,-1,9,10,11,-1,11,10,12,-1,11,12,13,-1,13,12,14,-1,13,14,15,-1,15,14,16,-1,15,16,17,-1,17,16,18,-1,17,18,19,-1,19,18,20,-1,19,20,21,-1,21,20,22,-1,21,22,23,-1,23,22,24,-1,23,24,25,-1,25,24,26,-1,25,26,27,-1,27,26,28,-1,27,28,29,-1,29,28,30,-1,29,30,31,-1,31,30,32,-1,31,32,33,-1,34,35,36,-1,33,32,37,-1,33,37,38,-1,38,37,39,-1,38,39,36,-1,36,39,40,-1,36,40,34,-1,41,35,42,-1,42,35,34,-1,43,44,45,-1,41,42,46,-1,41,46,47,-1,46,48,47,-1,47,48,49,-1,47,49,45,-1,45,49,50,-1,45,50,43,-1,43,51,44,-1,44,51,52,-1,51,53,52,-1,52,53,54,-1,52,54,55,-1,55,54,56,-1,55,56,57,-1,57,56,58,-1,57,58,59,-1,59,58,60,-1,59,60,61,-1,61,60,62,-1,61,62,63,-1,62,64,63,-1,63,64,65,-1,63,65,66,-1,66,65,67,-1,66,67,68,-1,68,67,69,-1,68,69,70,-1,70,69,71,-1,70,71,72,-1,71,73,72,-1,72,73,74,-1,72,74,75,-1,75,74,76,-1,75,76,77,-1,78,79,80,-1,77,76,81,-1,77,81,82,-1,82,81,83,-1,82,83,84,-1,84,83,85,-1,84,85,80,-1,80,85,86,-1,80,86,78,-1,87,88,89,-1,78,90,79,-1,79,90,91,-1,90,92,91,-1,91,92,93,-1,91,93,89,-1,89,93,94,-1,89,94,87,-1,95,88,96,-1,96,88,87,-1,95,96,97,-1,95,97,98,-1,97,99,98,-1,98,99,100,-1,98,100,101,-1,101,100,1,-1,101,1,0,-1,36,35,41,-1,19,21,61,-1,88,95,89,-1,89,95,98,-1,89,98,91,-1,91,98,101,-1,91,101,79,-1,79,101,0,-1,79,0,80,-1,80,0,3,-1,80,3,84,-1,84,3,5,-1,84,5,82,-1,82,5,7,-1,82,7,77,-1,77,7,9,-1,77,9,75,-1,75,9,11,-1,75,11,72,-1,72,11,70,-1,70,11,13,-1,70,13,68,-1,61,21,59,-1,36,41,38,-1,38,41,47,-1,38,47,33,-1,33,47,45,-1,33,45,31,-1,31,45,44,-1,31,44,29,-1,29,44,52,-1,29,52,27,-1,52,55,27,-1,27,55,57,-1,27,57,25,-1,25,57,59,-1,25,59,23,-1,23,59,21,-1,13,15,68,-1,68,15,17,-1,68,17,66,-1,66,17,19,-1,66,19,63,-1,63,19,61,-1,102,103,104,-1,104,103,105,-1,106,107,102,-1,102,107,108,-1,102,108,103,-1,103,108,109,-1,106,110,107,-1,107,110,111,-1,107,111,112,-1,112,111,113,-1,112,113,114,-1,114,115,112,-1,112,115,104,-1,112,104,116,-1,116,104,105,-1,116,105,117,-1,107,112,118,-1,118,112,119,-1,108,107,120,-1,120,107,118,-1,109,108,121,-1,121,108,120,-1,103,109,122,-1,122,109,121,-1,105,103,123,-1,123,103,122,-1,117,105,124,-1,124,105,123,-1,116,117,125,-1,125,117,124,-1,112,116,119,-1,119,116,125,-1,106,126,127,-1,106,127,110,-1,110,127,128,-1,110,128,111,-1,106,102,126,-1,126,102,129,-1,102,104,129,-1,129,104,130,-1,104,115,130,-1,130,115,131,-1,113,132,133,-1,113,133,114,-1,114,133,131,-1,114,131,115,-1,113,111,132,-1,132,111,128,-1,
        ]
    }
}
Shape{
    appearance Appearance {
        material  Material 	{
            diffuseColor 0.07058823529411765 0.07058823529411765 0.07058823529411765
            specularColor 0.00392156862745098 0.00392156862745098 0.00392156862745098
            ambientIntensity 0.102
            transparency 0.0
            shininess 0.5
        }
    }
    geometry IndexedFaceSet {
        ccw TRUE
        solid FALSE
        coord DEF co Coordinate {
            point [
                0.0971 -0.013 0.4803, 0.097 -0.013 0.4803, 0.0972 -0.0137 0.4803, 0.0969 -0.0137 0.4803, 0.0974 -0.0142 0.4803, 0.0967 -0.0142 0.4803, 0.1001 -0.0218 0.4803, 0.094 -0.0218 0.4803
            ]
        }
        coordIndex [
            0,1,2,-1,2,1,3,-1,2,3,4,-1,4,3,5,-1,4,5,6,-1,6,5,7,-1,
        ]
    }
}
Shape{
    appearance Appearance {
        material  Material 	{
            diffuseColor 1.0 1.0 1.0
            specularColor 0.5019607843137255 0.5019607843137255 0.5019607843137255
            ambientIntensity 1.0
            transparency 0.0
            shininess 0.5
        }
    }
    geometry IndexedFaceSet {
        ccw TRUE
        solid FALSE
        coord DEF co Coordinate {
            point [
                0.0697 -0.0267 0.4843, 0.0697 -0.0267 0.4803, 0.0623 -0.0267 0.4843, 0.0657 -0.0267 0.4803, 0.0623 -0.0267 0.4803, 0.0623 -0.0206 0.4843, 0.0623 -0.0206 0.4803, 0.0688 -0.0206 0.4843, 0.0657 -0.0206 0.4803, 0.0688 -0.0206 0.4803, 0.0688 -0.0185 0.4843, 0.0688 -0.0185 0.4803, 0.0623 -0.0185 0.4803, 0.0623 -0.0185 0.4843, 0.0657 -0.0185 0.4803, 0.0623 -0.0127 0.4843, 0.0623 -0.0127 0.4803, 0.0693 -0.0127 0.4803, 0.0693 -0.0127 0.4843, 0.0657 -0.0127 0.4803, 0.0693 -0.0106 0.4843, 0.0693 -0.0106 0.4803, 0.06 -0.0106 0.4803, 0.06 -0.0106 0.4843, 0.0657 -0.0106 0.4803, 0.06 -0.0288 0.4843, 0.06 -0.0288 0.4803, 0.0697 -0.0288 0.4843, 0.0657 -0.0288 0.4803, 0.0697 -0.0288 0.4803, 0.012 -0.0267 0.4843, 0.0194 -0.0267 0.4843, 0.012 -0.0267 0.4803, 0.0194 -0.0267 0.4803, 0.012 -0.0206 0.4843, 0.012 -0.0206 0.4803, 0.0185 -0.0206 0.4843, 0.0185 -0.0206 0.4803, 0.0185 -0.0185 0.4843, 0.0185 -0.0185 0.4803, 0.012 -0.0185 0.4843, 0.012 -0.0185 0.4803, 0.012 -0.0127 0.4843, 0.012 -0.0127 0.4803, 0.019 -0.0127 0.4843, 0.019 -0.0127 0.4803, 0.019 -0.0106 0.4843, 0.019 -0.0106 0.4803, 0.0097 -0.0106 0.4843, 0.0097 -0.0106 0.4803, 0.0097 -0.0288 0.4843, 0.0097 -0.0288 0.4803, 0.0194 -0.0288 0.4843, 0.0194 -0.0288 0.4803, 0.0713 0.007 0.4843, 0.0705 0.005 0.4843, 0.0774 0.007 0.4843, 0.0781 0.005 0.4843, 0.074 0.0146 0.4843, 0.0731 0.0182 0.4843, 0.0662 0.0 0.4843, 0.0688 0.0 0.4843, 0.0742 0.0151 0.4843, 0.0743 0.0158 0.4843, 0.0756 0.0182 0.4843, 0.0744 0.0158 0.4843, 0.0745 0.0151 0.4843, 0.0746 0.0146 0.4843, 0.0826 0.0 0.4843, 0.08 -0.0 0.4843, 0.0731 0.0182 0.4803, 0.0756 0.0182 0.4803, 0.0662 0.0 0.4803, 0.0714 0.0137 0.4803, 0.0688 0.0 0.4803, 0.0705 0.005 0.4803, 0.0781 0.005 0.4803, 0.0714 0.005 0.4803, 0.08 0.0 0.4803, 0.0826 0.0 0.4803, 0.074 0.0146 0.4803, 0.0742 0.0151 0.4803, 0.0743 0.0158 0.4803, 0.0713 0.007 0.4803, 0.0774 0.007 0.4803, 0.0746 0.0146 0.4803, 0.0744 0.0158 0.4803, 0.0745 0.0151 0.4803
            ]
        }
        coordIndex [
            0,1,2,-1,2,1,3,-1,2,3,4,-1,5,2,6,-1,6,2,4,-1,5,6,7,-1,7,6,8,-1,7,8,9,-1,10,7,11,-1,11,7,9,-1,12,13,14,-1,14,13,10,-1,14,10,11,-1,15,13,16,-1,16,13,12,-1,17,18,19,-1,19,18,15,-1,19,15,16,-1,20,18,21,-1,21,18,17,-1,22,23,24,-1,24,23,20,-1,24,20,21,-1,25,23,26,-1,26,23,22,-1,25,26,27,-1,27,26,28,-1,27,28,29,-1,0,27,1,-1,1,27,29,-1,25,27,0,-1,0,2,25,-1,25,2,5,-1,25,5,23,-1,18,20,15,-1,15,20,23,-1,15,23,13,-1,13,23,5,-1,13,5,10,-1,10,5,7,-1,30,31,32,-1,32,31,33,-1,34,30,35,-1,35,30,32,-1,36,34,37,-1,37,34,35,-1,38,36,39,-1,39,36,37,-1,40,38,41,-1,41,38,39,-1,42,40,43,-1,43,40,41,-1,44,42,45,-1,45,42,43,-1,46,44,47,-1,47,44,45,-1,48,46,49,-1,49,46,47,-1,50,48,51,-1,51,48,49,-1,52,50,53,-1,53,50,51,-1,31,52,33,-1,33,52,53,-1,50,52,31,-1,31,30,50,-1,50,30,34,-1,50,34,48,-1,44,46,42,-1,42,46,48,-1,42,48,40,-1,40,48,34,-1,40,34,38,-1,38,34,36,-1,54,55,56,-1,56,55,57,-1,58,59,54,-1,54,59,60,-1,54,60,55,-1,55,60,61,-1,58,62,59,-1,59,62,63,-1,59,63,64,-1,64,63,65,-1,64,65,66,-1,66,67,64,-1,64,67,56,-1,64,56,68,-1,68,56,57,-1,68,57,69,-1,59,64,70,-1,70,64,71,-1,72,60,73,-1,73,60,59,-1,73,59,70,-1,61,60,74,-1,74,60,72,-1,55,61,75,-1,75,61,74,-1,76,57,77,-1,77,57,55,-1,77,55,75,-1,69,57,78,-1,78,57,76,-1,68,69,79,-1,79,69,78,-1,64,68,71,-1,71,68,79,-1,58,80,81,-1,58,81,62,-1,62,81,82,-1,62,82,63,-1,58,54,80,-1,80,54,83,-1,54,56,83,-1,83,56,84,-1,56,67,84,-1,84,67,85,-1,65,86,87,-1,65,87,66,-1,66,87,85,-1,66,85,67,-1,65,63,86,-1,86,63,82,-1,
        ]
    }
}
Shape{
    appearance Appearance {
        material  Material 	{
            diffuseColor 0.07058823529411765 0.07058823529411765 0.07058823529411765
            specularColor 0.00392156862745098 0.00392156862745098 0.00392156862745098
            ambientIntensity 0.102
            transparency 0.0
            shininess 0.5
        }
    }
    geometry IndexedFaceSet {
        ccw TRUE
        solid FALSE
        coord DEF co Coordinate {
            point [
                0.0744 0.0158 0.4803, 0.0743 0.0158 0.4803, 0.0745 0.0151 0.4803, 0.0742 0.0151 0.4803, 0.0746 0.0146 0.4803, 0.074 0.0146 0.4803, 0.0774 0.007 0.4803, 0.0713 0.007 0.4803
            ]
        }
        coordIndex [
            0,1,2,-1,2,1,3,-1,2,3,4,-1,4,3,5,-1,4,5,6,-1,6,5,7,-1,
        ]
    }
}
Shape{
    appearance Appearance {
        material  Material 	{
            diffuseColor 1.0 1.0 1.0
            specularColor 0.5019607843137255 0.5019607843137255 0.5019607843137255
            ambientIntensity 1.0
            transparency 0.0
            shininess 0.5
        }
    }
    geometry IndexedFaceSet {
        ccw TRUE
        solid FALSE
        coord DEF co Coordinate {
            point [
                0.0396 0.0021 0.4803, 0.0396 0.0021 0.4843, 0.0445 0.0021 0.4803, 0.047 0.0021 0.4843, 0.047 0.0021 0.4803, 0.0396 0.0082 0.4843, 0.0396 0.0082 0.4803, 0.0461 0.0082 0.4803, 0.0461 0.0082 0.4843, 0.0445 0.0082 0.4803, 0.0461 0.0103 0.4843, 0.0461 0.0103 0.4803, 0.0396 0.0103 0.4803, 0.0396 0.0103 0.4843, 0.0445 0.0103 0.4803, 0.0396 0.0161 0.4843, 0.0396 0.0161 0.4803, 0.0466 0.0161 0.4803, 0.0466 0.0161 0.4843, 0.0445 0.0161 0.4803, 0.0466 0.0182 0.4843, 0.0466 0.0182 0.4803, 0.0372 0.0182 0.4803, 0.0372 0.0182 0.4843, 0.0445 0.0182 0.4803, 0.0372 -0.0 0.4843, 0.0372 0.0 0.4803, 0.047 0.0 0.4843, 0.0445 0.0 0.4803, 0.047 0.0 0.4803, 0.012 0.0021 0.4843, 0.0193 0.0021 0.4843, 0.012 0.0021 0.4803, 0.0193 0.0021 0.4803, 0.012 0.0182 0.4843, 0.012 0.0182 0.4803, 0.0097 0.0182 0.4843, 0.0097 0.0182 0.4803, 0.0097 -0.0 0.4843, 0.0097 0.0 0.4803, 0.0193 -0.0 0.4843, 0.0193 0.0 0.4803
            ]
        }
        coordIndex [
            0,1,2,-1,2,1,3,-1,2,3,4,-1,5,1,6,-1,6,1,0,-1,7,8,9,-1,9,8,5,-1,9,5,6,-1,10,8,11,-1,11,8,7,-1,12,13,14,-1,14,13,10,-1,14,10,11,-1,15,13,16,-1,16,13,12,-1,17,18,19,-1,19,18,15,-1,19,15,16,-1,20,18,21,-1,21,18,17,-1,22,23,24,-1,24,23,20,-1,24,20,21,-1,25,23,26,-1,26,23,22,-1,25,26,27,-1,27,26,28,-1,27,28,29,-1,3,27,4,-1,4,27,29,-1,25,27,3,-1,3,1,25,-1,25,1,5,-1,25,5,23,-1,18,20,15,-1,15,20,23,-1,15,23,13,-1,13,23,5,-1,13,5,10,-1,10,5,8,-1,30,31,32,-1,32,31,33,-1,34,30,35,-1,35,30,32,-1,36,34,37,-1,37,34,35,-1,38,36,39,-1,39,36,37,-1,40,38,41,-1,41,38,39,-1,31,40,33,-1,33,40,41,-1,34,36,30,-1,30,36,38,-1,30,38,31,-1,31,38,40,-1,
        ]
    }
}