#VRML V2.0 utf8
# 3D model generated by easyeda2kicad.py (https://github.com/uPesy/easyeda2kicad.py)

Shape{
    appearance Appearance {
        material  Material 	{
            diffuseColor 0.20784313725490197 0.20784313725490197 0.20784313725490197
            specularColor 0.01568627450980392 0.01568627450980392 0.01568627450980392
            ambientIntensity 0.298
            transparency 0.0
            shininess 0.5
        }
    }
    geometry IndexedFaceSet {
        ccw TRUE
        solid FALSE
        coord DEF co Coordinate {
            point [
                -1.0366 0.0766 0.0039, -1.0366 0.3125 0.0039, -0.2257 0.3125 0.0039, -0.2257 1.0237 0.0039, -0.1683 1.0237 0.0039, 0.488 -0.9489 0.0039, 0.4134 -1.0236 0.0039, 0.2773 -1.0236 0.0039, -0.488 -0.9489 0.0039, -0.5315 -0.9489 0.0039, -0.5315 -0.9272 0.0039, 0.1224 -0.1112 0.0039, 0.1203 -0.1226 0.0039, 0.1224 -0.0896 0.0039, 0.1203 0.0766 0.0039, 0.1452 0.0762 0.0039, 0.1224 0.07 0.0039, 0.1224 0.0436 0.0039, 0.1446 0.0531 0.0039, 0.1259 -0.0916 0.0039, 0.1685 0.0562 0.0039, 0.1879 0.054 0.0039, 0.2026 0.0487 0.0039, 0.2163 0.0396 0.0039, 0.2282 0.0265 0.0039, 0.2425 -0.0251 0.0039, 0.2405 -0.0464 0.0039, 0.2351 -0.0633 0.0039, 0.1913 -0.1002 0.0039, 0.1729 -0.1022 0.0039, 0.2057 -0.0949 0.0039, 0.2177 -0.0867 0.0039, 0.227 -0.077 0.0039, 0.1468 -0.0993 0.0039, 0.2363 0.0113 0.0039, 0.2415 -0.0098 0.0039, 0.1514 0.0766 0.0039, 0.1203 0.3125 0.0039, 0.1687 0.0778 0.0039, 0.2358 -0.1046 0.0039, 0.2505 -0.0891 0.0039, 0.2773 -0.1226 0.0039, 0.2773 0.0766 0.0039, 0.2469 0.042 0.0039, 0.2291 0.0591 0.0039, 0.1882 -0.1226 0.0039, 0.2008 -0.1213 0.0039, 0.2199 -0.1147 0.0039, 0.2689 -0.0267 0.0039, 0.266 0.0013 0.0039, 0.2585 0.0236 0.0039, 0.2104 0.0699 0.0039, 0.1885 0.0762 0.0039, 0.1835 0.0766 0.0039, 0.261 -0.0703 0.0039, 0.267 -0.0495 0.0039, 0.1712 -0.1237 0.0039, 0.1203 -0.3592 0.0039, 0.1633 -0.1226 0.0039, 0.1434 -0.1198 0.0039, 0.2773 -0.3592 0.0039, 0.1766 -0.1238 0.0039, -0.1887 0.0498 0.0039, -0.2026 0.0343 0.0039, -0.2257 0.0766 0.0039, -0.2117 0.0174 0.0039, -0.2257 -0.1226 0.0039, -0.2086 -0.0675 0.0039, -0.1973 -0.0851 0.0039, -0.217 -0.002 0.0039, -0.2185 -0.0205 0.0039, -0.2157 -0.0469 0.0039, -0.1136 -0.1214 0.0039, -0.06 -0.1214 0.0039, -0.0408 -0.1226 0.0039, -0.1811 -0.1006 0.0039, -0.1683 -0.1081 0.0039, -0.1683 -0.1226 0.0039, -0.1606 -0.1125 0.0039, -0.1379 -0.1193 0.0039, -0.144 0.0724 0.0039, -0.167 0.0643 0.0039, -0.1683 0.0766 0.0039, -0.1683 0.0635 0.0039, -0.1885 0.0499 0.0039, -0.1156 0.0754 0.0039, -0.0408 0.0766 0.0039, -0.06 0.0754 0.0039, 0.5315 -0.9489 0.0039, 0.5315 -0.9272 0.0039, 0.2773 -0.9272 0.0039, 0.5315 -0.9252 0.0039, 0.8464 -0.4174 0.0039, 1.0366 -0.3592 0.0039, 0.8464 -0.9252 0.0039, 1.0366 -0.9272 0.0039, 0.5315 -0.4174 0.0039, 1.0366 -0.9489 0.0039, 0.8464 -0.9489 0.0039, 0.8464 -0.9272 0.0039, 0.3658 1.0237 0.0039, 0.488 0.9014 0.0039, 0.2773 0.3125 0.0039, 0.8464 0.9014 0.0039, 1.0366 0.9014 0.0039, 0.8464 0.8777 0.0039, 1.0366 0.3125 0.0039, 0.8464 0.37 0.0039, 0.5315 0.37 0.0039, 0.5315 0.8777 0.0039, 0.5315 0.9014 0.0039, -1.0366 0.63 0.0039, -0.6429 1.0237 0.0039, -0.2257 -0.9272 0.0039, -0.5315 -0.9252 0.0039, -0.2257 -0.3592 0.0039, -0.8465 -0.9489 0.0039, -1.0366 -0.9489 0.0039, -0.8465 -0.9272 0.0039, -1.0366 -0.9272 0.0039, -0.8465 -0.9252 0.0039, -1.0366 -0.3592 0.0039, -0.8465 -0.4174 0.0039, -0.5315 -0.4174 0.0039, -0.0408 -0.6029 0.0039, -0.0591 -0.6104 0.0039, -0.1683 -0.3592 0.0039, -0.0835 -0.6292 0.0039, -0.1023 -0.6537 0.0039, -0.0408 -0.8226 0.0039, -0.0408 -0.9272 0.0039, -0.0591 -0.815 0.0039, -0.1683 -0.9272 0.0039, -0.0835 -0.7962 0.0039, -0.1023 -0.7718 0.0039, -0.1141 -0.6822 0.0039, -0.1181 -0.7127 0.0039, -0.1141 -0.7433 0.0039, 0.0306 -0.5986 0.0039, -0.0 -0.5946 0.0039, -0.0408 -0.3592 0.0039, -0.0306 -0.5986 0.0039, 0.1023 -0.6537 0.0039, 0.1011 -0.6521 0.0039, 0.1011 -0.3592 0.0039, 0.0835 -0.6292 0.0039, 0.059 -0.6104 0.0039, 0.1203 -0.9272 0.0039, 0.1141 -0.7433 0.0039, 0.1181 -0.7127 0.0039, 0.059 -0.815 0.0039, 0.0835 -0.7962 0.0039, 0.1011 -0.9272 0.0039, 0.1011 -0.7734 0.0039, 0.1023 -0.7718 0.0039, -0.0306 -0.8268 0.0039, -0.0 -0.8308 0.0039, 0.0306 -0.8268 0.0039, -0.0591 0.7675 0.0039, -0.0408 0.7751 0.0039, -0.0408 1.0237 0.0039, -0.0306 0.7793 0.0039, -0.1181 0.6652 0.0039, -0.1141 0.6347 0.0039, -0.1683 0.3125 0.0039, -0.0408 0.5554 0.0039, -0.0408 0.3125 0.0039, -0.0591 0.5629 0.0039, -0.1023 0.6062 0.0039, -0.0835 0.5817 0.0039, -0.0835 0.7487 0.0039, -0.1023 0.7243 0.0039, -0.1141 0.6958 0.0039, 0.1011 1.0237 0.0039, 0.1011 0.7259 0.0039, 0.0835 0.7487 0.0039, 0.059 0.7675 0.0039, 0.0306 0.7793 0.0039, -0.0 0.7833 0.0039, 0.1011 0.6046 0.0039, 0.1023 0.6062 0.0039, 0.1141 0.6347 0.0039, 0.1181 0.6652 0.0039, 0.1023 0.7243 0.0039, 0.1203 1.0237 0.0039, 0.1141 0.6958 0.0039, 0.1011 0.3125 0.0039, 0.059 0.5629 0.0039, 0.0835 0.5817 0.0039, -0.0306 0.5511 0.0039, -0.0 0.5471 0.0039, 0.0306 0.5511 0.0039, 0.2773 1.0237 0.0039, 0.1011 0.0766 0.0039, 1.0366 0.0766 0.0039, -0.4105 -0.1214 0.0039, -0.3817 -0.1214 0.0039, -0.3337 0.0754 0.0039, -1.0366 -0.1226 0.0039, -0.3618 -0.0662 0.0039, -0.2805 -0.0662 0.0039, -0.2617 -0.1214 0.0039, -0.2329 -0.1214 0.0039, -0.3073 0.0754 0.0039, -0.0216 -0.0998 0.0039, -0.0216 -0.1214 0.0039, 0.084 -0.1214 0.0039, 0.1011 -0.1226 0.0039, 0.084 0.0754 0.0039, -0.0168 0.0754 0.0039, -0.0168 0.0538 0.0039, 0.0576 -0.0326 0.0039, 0.0576 -0.0998 0.0039, -0.012 -0.0326 0.0039, -0.012 -0.011 0.0039, 0.0576 -0.011 0.0039, 0.0576 0.0538 0.0039, 0.2857 -0.0998 0.0039, 0.2857 -0.1214 0.0039, 0.3601 -0.0998 0.0039, 0.3601 0.0754 0.0039, 0.3865 0.0754 0.0039, 0.3865 -0.1214 0.0039, 1.0366 -0.1226 0.0039, 0.1141 -0.6822 0.0039, 0.1203 -1.0236 0.0039, 0.1011 -1.0236 0.0039, -0.0408 -1.0236 0.0039, -0.1683 -1.0236 0.0039, -0.2257 -1.0236 0.0039, -0.4134 -1.0236 0.0039, -0.5315 -0.9489 0.0984, -0.5315 -0.9489 0.4724, -0.488 -0.9489 0.6535, -0.8465 -0.9489 0.4724, -1.0366 -0.9489 0.6535, -0.8465 -0.9489 0.0984, 0.5315 0.9014 0.0984, 0.5315 0.9014 0.4724, 0.488 0.9014 0.6535, 0.8464 0.9014 0.4724, 1.0366 0.9014 0.6535, 0.8464 0.9014 0.0984, 0.5315 -0.9489 0.0984, 0.5315 -0.9489 0.4724, 0.488 -0.9489 0.6535, 1.0366 -0.9489 0.6535, 0.8464 -0.9489 0.4724, 0.8464 -0.9489 0.0984, 1.0366 0.9014 0.7913, 1.0366 -0.9489 0.7913, 0.488 -0.9489 0.7913, 0.4134 -1.0236 0.7913, 0.4134 -1.0236 0.6535, -0.4134 -1.0236 0.7913, -0.4134 -1.0236 0.6535, -0.488 -0.9489 0.7913, -1.0366 -0.9489 0.7913, -1.0366 0.63 0.7913, -1.0366 0.63 0.6535, -0.6429 1.0237 0.7913, -0.6429 1.0237 0.6535, 0.488 0.9014 0.7913, 0.3658 1.0237 0.7913, 0.3658 1.0237 0.6535, -0.5349 0.1246 0.7913, -0.4049 0.1417 0.7913, -0.4492 0.1475 0.7913, -0.4936 0.1417 0.7913, -0.2838 -0.0681 0.7913, -0.3009 -0.1094 0.7913, -0.278 -0.0237 0.7913, -0.2838 0.0206 0.7913, -0.3636 0.1246 0.7913, -0.3281 0.0974 0.7913, -0.3009 0.0619 0.7913, -0.3281 -0.1448 0.7913, -0.3636 -0.1721 0.7913, -0.4049 -0.1892 0.7913, -0.5703 -0.1448 0.7913, -0.5975 -0.1094 0.7913, -0.6147 -0.0681 0.7913, -0.6205 -0.0237 0.7913, -0.6147 0.0206 0.7913, -0.5975 0.0619 0.7913, -0.5703 0.0974 0.7913, -0.4492 -0.195 0.7913, -0.4936 -0.1892 0.7913, -0.5349 -0.1721 0.7913
            ]
        }
        coordIndex [
            0,1,2,-1,2,3,4,-1,5,6,7,-1,8,9,10,-1,11,12,13,-1,13,12,14,-1,15,16,14,-1,14,16,17,-1,14,17,13,-1,13,17,18,-1,13,18,19,-1,19,18,20,-1,19,20,21,-1,21,22,19,-1,19,22,23,-1,19,23,24,-1,25,26,19,-1,19,26,27,-1,28,29,30,-1,30,29,31,-1,27,32,19,-1,19,32,31,-1,19,31,33,-1,33,31,29,-1,24,34,19,-1,19,34,35,-1,19,35,25,-1,15,14,36,-1,36,14,37,-1,36,37,38,-1,39,40,41,-1,42,43,44,-1,45,46,41,-1,41,46,47,-1,41,47,39,-1,48,49,42,-1,42,49,50,-1,42,50,43,-1,44,51,42,-1,42,51,52,-1,42,52,53,-1,40,54,41,-1,41,54,55,-1,41,55,48,-1,56,57,58,-1,58,57,12,-1,58,12,59,-1,59,12,11,-1,41,60,45,-1,45,60,57,-1,45,57,61,-1,61,57,56,-1,62,63,64,-1,64,63,65,-1,66,67,68,-1,65,69,64,-1,64,69,70,-1,64,70,66,-1,66,70,71,-1,66,71,67,-1,72,73,74,-1,75,76,77,-1,77,76,78,-1,77,78,79,-1,80,81,82,-1,82,81,83,-1,82,83,64,-1,64,83,84,-1,64,84,62,-1,80,82,85,-1,85,82,86,-1,85,86,87,-1,88,5,89,-1,89,5,90,-1,89,90,91,-1,92,93,94,-1,94,93,95,-1,60,96,91,-1,97,98,95,-1,95,98,99,-1,95,99,94,-1,100,101,102,-1,103,104,105,-1,105,104,106,-1,105,106,107,-1,107,106,108,-1,108,106,102,-1,108,102,109,-1,109,102,101,-1,109,101,110,-1,1,111,2,-1,2,111,112,-1,2,112,3,-1,8,10,113,-1,113,10,114,-1,113,114,115,-1,116,117,118,-1,118,117,119,-1,118,119,120,-1,120,119,121,-1,120,121,122,-1,122,121,123,-1,124,125,126,-1,126,125,127,-1,126,127,128,-1,129,130,131,-1,131,130,132,-1,131,132,133,-1,133,132,134,-1,128,135,126,-1,126,135,136,-1,126,136,132,-1,132,136,137,-1,132,137,134,-1,138,139,140,-1,140,139,141,-1,142,143,144,-1,144,143,145,-1,144,145,146,-1,147,148,149,-1,150,151,152,-1,152,151,153,-1,152,153,147,-1,147,153,154,-1,147,154,148,-1,129,155,130,-1,130,155,156,-1,130,156,152,-1,152,156,157,-1,152,157,150,-1,158,4,159,-1,159,4,160,-1,159,160,161,-1,162,163,164,-1,165,166,167,-1,167,166,164,-1,163,168,164,-1,164,168,169,-1,164,169,167,-1,158,170,4,-1,4,170,171,-1,4,171,172,-1,173,174,175,-1,175,176,173,-1,173,176,177,-1,173,177,160,-1,160,177,178,-1,160,178,161,-1,179,180,37,-1,37,180,181,-1,37,181,182,-1,174,173,183,-1,183,173,184,-1,183,184,185,-1,186,187,188,-1,165,189,166,-1,166,189,190,-1,166,190,186,-1,186,190,191,-1,186,191,187,-1,100,102,192,-1,192,102,37,-1,192,37,184,-1,184,37,182,-1,184,182,185,-1,64,164,82,-1,82,164,166,-1,82,166,86,-1,86,166,186,-1,86,186,193,-1,38,37,53,-1,53,37,102,-1,53,102,42,-1,42,102,106,-1,42,106,194,-1,195,196,66,-1,172,162,4,-1,4,162,164,-1,4,164,2,-1,2,164,64,-1,2,64,0,-1,0,64,197,-1,0,197,198,-1,199,200,196,-1,196,200,201,-1,196,201,66,-1,66,201,202,-1,66,202,64,-1,64,202,203,-1,64,203,197,-1,204,74,86,-1,86,74,73,-1,86,73,87,-1,205,206,207,-1,207,206,193,-1,206,208,193,-1,193,208,209,-1,193,209,86,-1,86,209,210,-1,86,210,204,-1,211,212,213,-1,213,212,204,-1,213,204,214,-1,214,204,210,-1,214,210,215,-1,215,210,216,-1,48,42,41,-1,41,42,217,-1,41,217,218,-1,219,217,220,-1,220,217,42,-1,220,42,221,-1,221,42,194,-1,221,194,222,-1,222,194,223,-1,197,195,198,-1,198,195,66,-1,198,66,121,-1,121,66,115,-1,121,115,123,-1,123,115,114,-1,79,72,77,-1,77,72,74,-1,77,74,126,-1,126,74,140,-1,126,140,124,-1,124,140,141,-1,204,205,74,-1,74,205,207,-1,74,207,140,-1,140,207,144,-1,140,144,138,-1,138,144,146,-1,188,179,186,-1,186,179,37,-1,186,37,193,-1,193,37,14,-1,193,14,207,-1,207,14,12,-1,207,12,144,-1,144,12,57,-1,144,57,142,-1,142,57,224,-1,218,222,41,-1,41,222,223,-1,41,223,60,-1,60,223,93,-1,60,93,96,-1,96,93,92,-1,68,75,66,-1,66,75,77,-1,66,77,115,-1,115,77,126,-1,115,126,113,-1,113,126,132,-1,91,90,60,-1,60,90,147,-1,60,147,57,-1,57,147,149,-1,57,149,224,-1,5,7,90,-1,90,7,225,-1,90,225,147,-1,147,225,226,-1,147,226,152,-1,152,226,227,-1,152,227,130,-1,130,227,228,-1,130,228,132,-1,132,228,229,-1,132,229,113,-1,113,229,230,-1,113,230,8,-1,231,9,8,-1,231,8,232,-1,232,8,233,-1,232,233,234,-1,234,233,235,-1,234,235,236,-1,236,235,117,-1,236,117,116,-1,237,110,101,-1,237,101,238,-1,238,101,239,-1,238,239,240,-1,240,239,241,-1,240,241,242,-1,242,241,104,-1,242,104,103,-1,88,243,5,-1,5,243,244,-1,5,244,245,-1,245,244,246,-1,246,244,247,-1,246,247,97,-1,97,247,248,-1,97,248,98,-1,249,250,241,-1,241,250,246,-1,250,251,246,-1,246,251,245,-1,251,252,245,-1,245,252,253,-1,252,254,253,-1,253,254,255,-1,254,256,255,-1,255,256,233,-1,256,257,233,-1,233,257,235,-1,257,258,235,-1,235,258,259,-1,258,260,259,-1,259,260,261,-1,262,249,239,-1,239,249,241,-1,263,262,264,-1,264,262,239,-1,260,263,261,-1,261,263,264,-1,119,117,235,-1,259,111,1,-1,1,0,259,-1,259,0,198,-1,259,198,235,-1,235,198,121,-1,235,121,119,-1,233,8,255,-1,255,8,230,-1,255,230,229,-1,229,228,255,-1,255,228,227,-1,255,227,253,-1,253,227,226,-1,226,225,253,-1,253,225,7,-1,253,7,6,-1,253,6,245,-1,245,6,5,-1,106,104,241,-1,246,97,95,-1,95,93,246,-1,246,93,223,-1,246,223,241,-1,241,223,194,-1,241,194,106,-1,239,101,264,-1,264,101,100,-1,3,112,261,-1,100,192,264,-1,264,192,184,-1,184,173,264,-1,264,173,160,-1,264,160,261,-1,261,160,4,-1,261,4,3,-1,261,112,259,-1,259,112,111,-1,251,250,249,-1,260,258,265,-1,266,262,267,-1,267,262,268,-1,254,269,256,-1,256,269,270,-1,254,252,269,-1,269,252,251,-1,269,251,271,-1,271,251,249,-1,271,249,272,-1,266,273,262,-1,262,273,274,-1,262,274,249,-1,249,274,275,-1,249,275,272,-1,270,276,256,-1,256,276,277,-1,256,277,278,-1,279,280,257,-1,257,280,281,-1,257,281,258,-1,258,281,282,-1,258,282,283,-1,283,284,258,-1,258,284,285,-1,258,285,265,-1,268,262,265,-1,265,262,263,-1,265,263,260,-1,278,286,256,-1,256,286,287,-1,256,287,257,-1,257,287,288,-1,257,288,279,-1,
        ]
    }
}
Shape{
    appearance Appearance {
        material  Material 	{
            diffuseColor 0.2235294117647059 0.2235294117647059 0.2235294117647059
            specularColor 0.1803921568627451 0.1803921568627451 0.1803921568627451
            ambientIntensity 0.2235
            transparency 0.0
            shininess 0.5
        }
    }
    geometry IndexedFaceSet {
        ccw TRUE
        solid FALSE
        coord DEF co Coordinate {
            point [
                -0.278 -0.0237 0.6535, -0.278 -0.0237 0.7913, -0.2838 0.0206 0.6535, -0.2838 0.0206 0.7913, -0.3009 0.0619 0.6535, -0.3009 0.0619 0.7913, -0.3281 0.0974 0.6535, -0.3281 0.0974 0.7913, -0.3636 0.1246 0.6535, -0.3636 0.1246 0.7913, -0.4049 0.1417 0.6535, -0.4049 0.1417 0.7913, -0.4492 0.1475 0.6535, -0.4492 0.1475 0.7913, -0.4936 0.1417 0.6535, -0.4936 0.1417 0.7913, -0.5349 0.1246 0.6535, -0.5349 0.1246 0.7913, -0.5703 0.0974 0.6535, -0.5703 0.0974 0.7913, -0.5975 0.0619 0.6535, -0.5975 0.0619 0.7913, -0.6147 0.0206 0.6535, -0.6147 0.0206 0.7913, -0.6205 -0.0237 0.6535, -0.6205 -0.0237 0.7913, -0.6147 -0.0681 0.6535, -0.6147 -0.0681 0.7913, -0.5975 -0.1094 0.6535, -0.5975 -0.1094 0.7913, -0.5703 -0.1448 0.6535, -0.5703 -0.1448 0.7913, -0.5349 -0.1721 0.6535, -0.5349 -0.1721 0.7913, -0.4936 -0.1892 0.6535, -0.4936 -0.1892 0.7913, -0.4492 -0.195 0.6535, -0.4492 -0.195 0.7913, -0.4049 -0.1892 0.6535, -0.4049 -0.1892 0.7913, -0.3636 -0.1721 0.6535, -0.3636 -0.1721 0.7913, -0.3281 -0.1448 0.6535, -0.3281 -0.1448 0.7913, -0.3009 -0.1094 0.6535, -0.3009 -0.1094 0.7913, -0.2838 -0.0681 0.6535, -0.2838 -0.0681 0.7913
            ]
        }
        coordIndex [
            0,1,2,-1,2,1,3,-1,2,3,4,-1,4,3,5,-1,4,5,6,-1,6,5,7,-1,6,7,8,-1,8,7,9,-1,8,9,10,-1,10,9,11,-1,10,11,12,-1,12,11,13,-1,12,13,14,-1,14,13,15,-1,14,15,16,-1,16,15,17,-1,16,17,18,-1,18,17,19,-1,18,19,20,-1,20,19,21,-1,20,21,22,-1,22,21,23,-1,22,23,24,-1,24,23,25,-1,24,25,26,-1,26,25,27,-1,26,27,28,-1,28,27,29,-1,28,29,30,-1,30,29,31,-1,30,31,32,-1,32,31,33,-1,32,33,34,-1,34,33,35,-1,34,35,36,-1,36,35,37,-1,36,37,38,-1,38,37,39,-1,38,39,40,-1,40,39,41,-1,40,41,42,-1,42,41,43,-1,42,43,44,-1,44,43,45,-1,44,45,46,-1,46,45,47,-1,46,47,0,-1,0,47,1,-1,
        ]
    }
}
Shape{
    appearance Appearance {
        material  Material 	{
            diffuseColor 0.8509803921568627 0.8509803921568627 0.8509803921568627
            specularColor 0.4235294117647059 0.4235294117647059 0.4235294117647059
            ambientIntensity 0.851
            transparency 0.0
            shininess 0.5
        }
    }
    geometry IndexedFaceSet {
        ccw TRUE
        solid FALSE
        coord DEF co Coordinate {
            point [
                -0.3009 -0.1094 0.6535, -0.2838 -0.0681 0.6535, -0.4492 -0.0237 0.6535, -0.278 -0.0237 0.6535, -0.2838 0.0206 0.6535, -0.4049 -0.1892 0.6535, -0.3636 -0.1721 0.6535, -0.3281 -0.1448 0.6535, -0.5349 -0.1721 0.6535, -0.4936 -0.1892 0.6535, -0.4492 -0.195 0.6535, -0.6147 -0.0681 0.6535, -0.5975 -0.1094 0.6535, -0.5703 -0.1448 0.6535, -0.5975 0.0619 0.6535, -0.6147 0.0206 0.6535, -0.6205 -0.0237 0.6535, -0.4936 0.1417 0.6535, -0.5349 0.1246 0.6535, -0.5703 0.0974 0.6535, -0.3636 0.1246 0.6535, -0.4049 0.1417 0.6535, -0.4492 0.1475 0.6535, -0.3009 0.0619 0.6535, -0.3281 0.0974 0.6535
            ]
        }
        coordIndex [
            0,1,2,-1,2,1,3,-1,2,3,4,-1,5,6,2,-1,2,6,7,-1,2,7,0,-1,8,9,2,-1,2,9,10,-1,2,10,5,-1,11,12,2,-1,2,12,13,-1,2,13,8,-1,14,15,2,-1,2,15,16,-1,2,16,11,-1,17,18,2,-1,2,18,19,-1,2,19,14,-1,20,21,2,-1,2,21,22,-1,2,22,17,-1,4,23,2,-1,2,23,24,-1,2,24,20,-1,
        ]
    }
}
Shape{
    appearance Appearance {
        material  Material 	{
            diffuseColor 0.2235294117647059 0.2235294117647059 0.2235294117647059
            specularColor 0.1803921568627451 0.1803921568627451 0.1803921568627451
            ambientIntensity 0.2235
            transparency 0.0
            shininess 0.5
        }
    }
    geometry IndexedFaceSet {
        ccw TRUE
        solid FALSE
        coord DEF co Coordinate {
            point [
                -0.0591 -0.6104 0.1417, -0.0408 -0.6029 0.0039, -0.0306 -0.5986 0.1417, -0.0306 -0.5986 0.0039, -0.0 -0.5946 0.1417, -0.0 -0.5946 0.0039, 0.0306 -0.5986 0.1417, 0.0306 -0.5986 0.0039, 0.059 -0.6104 0.1417, 0.059 -0.6104 0.0039, 0.0835 -0.6292 0.1417, 0.0835 -0.6292 0.0039, 0.1011 -0.6521 0.0039, 0.1023 -0.6537 0.1417, 0.1023 -0.6537 0.0039, 0.1141 -0.6822 0.1417, 0.1141 -0.6822 0.0039, 0.1181 -0.7127 0.1417, 0.1181 -0.7127 0.0039, 0.1141 -0.7433 0.1417, 0.1141 -0.7433 0.0039, 0.1023 -0.7718 0.1417, 0.1023 -0.7718 0.0039, 0.1011 -0.7734 0.0039, 0.0835 -0.7962 0.1417, 0.0835 -0.7962 0.0039, 0.059 -0.815 0.1417, 0.059 -0.815 0.0039, 0.0306 -0.8268 0.1417, 0.0306 -0.8268 0.0039, -0.0 -0.8308 0.1417, -0.0 -0.8308 0.0039, -0.0306 -0.8268 0.1417, -0.0306 -0.8268 0.0039, -0.0408 -0.8226 0.0039, -0.0591 -0.815 0.1417, -0.0591 -0.815 0.0039, -0.0835 -0.7962 0.1417, -0.0835 -0.7962 0.0039, -0.1023 -0.7718 0.1417, -0.1023 -0.7718 0.0039, -0.1141 -0.7433 0.1417, -0.1141 -0.7433 0.0039, -0.1181 -0.7127 0.1417, -0.1181 -0.7127 0.0039, -0.1141 -0.6822 0.1417, -0.1141 -0.6822 0.0039, -0.1023 -0.6537 0.1417, -0.1023 -0.6537 0.0039, -0.0835 -0.6292 0.1417, -0.0835 -0.6292 0.0039, -0.0591 -0.6104 0.0039
            ]
        }
        coordIndex [
            0,1,2,-1,2,1,3,-1,2,3,4,-1,4,3,5,-1,4,5,6,-1,6,5,7,-1,6,7,8,-1,8,7,9,-1,8,9,10,-1,9,11,10,-1,10,11,12,-1,10,12,13,-1,13,12,14,-1,13,14,15,-1,15,14,16,-1,15,16,17,-1,17,16,18,-1,17,18,19,-1,19,18,20,-1,19,20,21,-1,20,22,21,-1,21,22,23,-1,21,23,24,-1,24,23,25,-1,24,25,26,-1,26,25,27,-1,26,27,28,-1,28,27,29,-1,28,29,30,-1,30,29,31,-1,30,31,32,-1,31,33,32,-1,32,33,34,-1,32,34,35,-1,35,34,36,-1,35,36,37,-1,37,36,38,-1,37,38,39,-1,39,38,40,-1,39,40,41,-1,41,40,42,-1,41,42,43,-1,43,42,44,-1,43,44,45,-1,45,44,46,-1,45,46,47,-1,47,46,48,-1,47,48,49,-1,49,48,50,-1,49,50,0,-1,0,50,51,-1,0,51,1,-1,
        ]
    }
}
Shape{
    appearance Appearance {
        material  Material 	{
            diffuseColor 0.8509803921568627 0.8509803921568627 0.8509803921568627
            specularColor 0.4235294117647059 0.4235294117647059 0.4235294117647059
            ambientIntensity 0.851
            transparency 0.0
            shininess 0.5
        }
    }
    geometry IndexedFaceSet {
        ccw TRUE
        solid FALSE
        coord DEF co Coordinate {
            point [
                -0.1023 -0.7718 0.1417, -0.1141 -0.7433 0.1417, -0.0 -0.7127 0.1417, -0.1181 -0.7127 0.1417, -0.1141 -0.6822 0.1417, -0.0306 -0.8268 0.1417, -0.0591 -0.815 0.1417, -0.0835 -0.7962 0.1417, 0.059 -0.815 0.1417, 0.0306 -0.8268 0.1417, -0.0 -0.8308 0.1417, 0.1141 -0.7433 0.1417, 0.1023 -0.7718 0.1417, 0.0835 -0.7962 0.1417, 0.1023 -0.6537 0.1417, 0.1141 -0.6822 0.1417, 0.1181 -0.7127 0.1417, 0.0306 -0.5986 0.1417, 0.059 -0.6104 0.1417, 0.0835 -0.6292 0.1417, -0.0591 -0.6104 0.1417, -0.0306 -0.5986 0.1417, -0.0 -0.5946 0.1417, -0.1023 -0.6537 0.1417, -0.0835 -0.6292 0.1417
            ]
        }
        coordIndex [
            0,1,2,-1,2,1,3,-1,2,3,4,-1,5,6,2,-1,2,6,7,-1,2,7,0,-1,8,9,2,-1,2,9,10,-1,2,10,5,-1,11,12,2,-1,2,12,13,-1,2,13,8,-1,14,15,2,-1,2,15,16,-1,2,16,11,-1,17,18,2,-1,2,18,19,-1,2,19,14,-1,20,21,2,-1,2,21,22,-1,2,22,17,-1,4,23,2,-1,2,23,24,-1,2,24,20,-1,
        ]
    }
}
Shape{
    appearance Appearance {
        material  Material 	{
            diffuseColor 0.2235294117647059 0.2235294117647059 0.2235294117647059
            specularColor 0.1803921568627451 0.1803921568627451 0.1803921568627451
            ambientIntensity 0.2235
            transparency 0.0
            shininess 0.5
        }
    }
    geometry IndexedFaceSet {
        ccw TRUE
        solid FALSE
        coord DEF co Coordinate {
            point [
                -0.0591 0.7675 0.1417, -0.0408 0.7751 0.0039, -0.0306 0.7793 0.1417, -0.0306 0.7793 0.0039, -0.0 0.7833 0.1417, -0.0 0.7833 0.0039, 0.0306 0.7793 0.1417, 0.0306 0.7793 0.0039, 0.059 0.7675 0.1417, 0.059 0.7675 0.0039, 0.0835 0.7487 0.1417, 0.0835 0.7487 0.0039, 0.1011 0.7259 0.0039, 0.1023 0.7243 0.1417, 0.1023 0.7243 0.0039, 0.1141 0.6958 0.1417, 0.1141 0.6958 0.0039, 0.1181 0.6652 0.1417, 0.1181 0.6652 0.0039, 0.1141 0.6347 0.1417, 0.1141 0.6347 0.0039, 0.1023 0.6062 0.1417, 0.1023 0.6062 0.0039, 0.1011 0.6046 0.0039, 0.0835 0.5817 0.1417, 0.0835 0.5817 0.0039, 0.059 0.5629 0.1417, 0.059 0.5629 0.0039, 0.0306 0.5511 0.1417, 0.0306 0.5511 0.0039, -0.0 0.5471 0.1417, -0.0 0.5471 0.0039, -0.0306 0.5511 0.1417, -0.0306 0.5511 0.0039, -0.0408 0.5554 0.0039, -0.0591 0.5629 0.1417, -0.0591 0.5629 0.0039, -0.0835 0.5817 0.1417, -0.0835 0.5817 0.0039, -0.1023 0.6062 0.1417, -0.1023 0.6062 0.0039, -0.1141 0.6347 0.1417, -0.1141 0.6347 0.0039, -0.1181 0.6652 0.1417, -0.1181 0.6652 0.0039, -0.1141 0.6958 0.1417, -0.1141 0.6958 0.0039, -0.1023 0.7243 0.1417, -0.1023 0.7243 0.0039, -0.0835 0.7487 0.1417, -0.0835 0.7487 0.0039, -0.0591 0.7675 0.0039
            ]
        }
        coordIndex [
            0,1,2,-1,2,1,3,-1,2,3,4,-1,4,3,5,-1,4,5,6,-1,6,5,7,-1,6,7,8,-1,8,7,9,-1,8,9,10,-1,9,11,10,-1,10,11,12,-1,10,12,13,-1,13,12,14,-1,13,14,15,-1,15,14,16,-1,15,16,17,-1,17,16,18,-1,17,18,19,-1,19,18,20,-1,19,20,21,-1,20,22,21,-1,21,22,23,-1,21,23,24,-1,24,23,25,-1,24,25,26,-1,26,25,27,-1,26,27,28,-1,28,27,29,-1,28,29,30,-1,30,29,31,-1,30,31,32,-1,31,33,32,-1,32,33,34,-1,32,34,35,-1,35,34,36,-1,35,36,37,-1,37,36,38,-1,37,38,39,-1,39,38,40,-1,39,40,41,-1,41,40,42,-1,41,42,43,-1,43,42,44,-1,43,44,45,-1,45,44,46,-1,45,46,47,-1,47,46,48,-1,47,48,49,-1,49,48,50,-1,49,50,0,-1,0,50,51,-1,0,51,1,-1,
        ]
    }
}
Shape{
    appearance Appearance {
        material  Material 	{
            diffuseColor 0.8509803921568627 0.8509803921568627 0.8509803921568627
            specularColor 0.4235294117647059 0.4235294117647059 0.4235294117647059
            ambientIntensity 0.851
            transparency 0.0
            shininess 0.5
        }
    }
    geometry IndexedFaceSet {
        ccw TRUE
        solid FALSE
        coord DEF co Coordinate {
            point [
                -0.1023 0.6062 0.1417, -0.1141 0.6347 0.1417, -0.0 0.6652 0.1417, -0.1181 0.6652 0.1417, -0.1141 0.6958 0.1417, -0.0306 0.5511 0.1417, -0.0591 0.5629 0.1417, -0.0835 0.5817 0.1417, 0.059 0.5629 0.1417, 0.0306 0.5511 0.1417, -0.0 0.5471 0.1417, 0.1141 0.6347 0.1417, 0.1023 0.6062 0.1417, 0.0835 0.5817 0.1417, 0.1023 0.7243 0.1417, 0.1141 0.6958 0.1417, 0.1181 0.6652 0.1417, 0.0306 0.7793 0.1417, 0.059 0.7675 0.1417, 0.0835 0.7487 0.1417, -0.0591 0.7675 0.1417, -0.0306 0.7793 0.1417, -0.0 0.7833 0.1417, -0.1023 0.7243 0.1417, -0.0835 0.7487 0.1417, 0.5315 -0.9489 0.4724, 0.5315 -1.0236 0.4724, 0.8464 -0.9489 0.4724, 0.8464 -1.0236 0.4724, 0.8464 -0.9489 0.0984, 0.8464 -1.0236 0.0984, 0.5315 -0.9489 0.0984, 0.5315 -1.0236 0.0984, 0.8464 -1.0104 0.0492, 0.8464 -1.0202 0.073, 0.8464 -0.9948 0.0288, 0.8464 -0.9744 0.0132, 0.8464 -0.9489 0.0039, 0.8464 -0.9506 0.0034, 0.8464 -0.9272 0.0039, 0.8464 -0.9252 0.0, 0.8464 -0.9252 0.0039, 0.5315 -0.9272 0.0039, 0.5315 -0.9252 0.0039, 0.5315 -0.9252 0.0, 0.5315 -0.9948 0.0288, 0.5315 -1.0104 0.0492, 0.5315 -1.0202 0.073, 0.5315 -0.9489 0.0039, 0.5315 -0.9506 0.0034, 0.5315 -0.9744 0.0132, 0.8464 -0.4174 0.0039, 0.8464 -0.4174 0.0, 0.5315 -0.4174 0.0039, 0.5315 -0.4174 0.0, 0.8464 0.9014 0.4724, 0.8464 0.9761 0.4724, 0.5315 0.9014 0.4724, 0.5315 0.9761 0.4724, 0.5315 0.9014 0.0984, 0.5315 0.9761 0.0984, 0.8464 0.9014 0.0984, 0.8464 0.9761 0.0984, 0.5315 0.37 0.0039, 0.5315 0.37 0.0, 0.8464 0.37 0.0039, 0.8464 0.37 0.0, 0.5315 0.8777 0.0, 0.5315 0.8777 0.0039, 0.8464 0.8777 0.0, 0.8464 0.8777 0.0039, 0.5315 0.9629 0.0492, 0.5315 0.9727 0.073, 0.5315 0.9031 0.0034, 0.5315 0.9014 0.0039, 0.5315 0.9269 0.0132, 0.5315 0.9473 0.0288, 0.8464 0.9727 0.073, 0.8464 0.9629 0.0492, 0.8464 0.9473 0.0288, 0.8464 0.9269 0.0132, 0.8464 0.9031 0.0034, 0.8464 0.9014 0.0039, -0.8465 -0.9489 0.4724, -0.8465 -1.0236 0.4724, -0.5315 -0.9489 0.4724, -0.5315 -1.0236 0.4724, -0.5315 -0.9489 0.0984, -0.5315 -1.0236 0.0984, -0.8465 -0.9489 0.0984, -0.8465 -1.0236 0.0984, -0.5315 -0.4174 0.0039, -0.5315 -0.4174 0.0, -0.8465 -0.4174 0.0039, -0.8465 -0.4174 0.0, -0.5315 -0.9252 0.0, -0.5315 -0.9252 0.0039, -0.8465 -0.9252 0.0, -0.8465 -0.9252 0.0039, -0.5315 -1.0104 0.0492, -0.5315 -1.0202 0.073, -0.5315 -0.9948 0.0288, -0.5315 -0.9744 0.0132, -0.5315 -0.9489 0.0039, -0.5315 -0.9506 0.0034, -0.5315 -0.9272 0.0039, -0.8465 -1.0202 0.073, -0.8465 -1.0104 0.0492, -0.8465 -0.9948 0.0288, -0.8465 -0.9744 0.0132, -0.8465 -0.9506 0.0034, -0.8465 -0.9272 0.0039, -0.8465 -0.9489 0.0039
            ]
        }
        coordIndex [
            0,1,2,-1,2,1,3,-1,2,3,4,-1,5,6,2,-1,2,6,7,-1,2,7,0,-1,8,9,2,-1,2,9,10,-1,2,10,5,-1,11,12,2,-1,2,12,13,-1,2,13,8,-1,14,15,2,-1,2,15,16,-1,2,16,11,-1,17,18,2,-1,2,18,19,-1,2,19,14,-1,20,21,2,-1,2,21,22,-1,2,22,17,-1,4,23,2,-1,2,23,24,-1,2,24,20,-1,25,26,27,-1,27,26,28,-1,27,28,29,-1,29,28,30,-1,31,32,25,-1,25,32,26,-1,33,29,34,-1,34,29,30,-1,33,35,29,-1,29,35,36,-1,29,36,37,-1,37,36,38,-1,37,38,39,-1,39,38,40,-1,39,40,41,-1,42,43,44,-1,45,46,31,-1,31,46,47,-1,31,47,32,-1,42,44,48,-1,48,44,49,-1,48,49,31,-1,31,49,50,-1,31,50,45,-1,51,52,53,-1,53,52,54,-1,40,52,41,-1,41,52,51,-1,52,40,54,-1,54,40,44,-1,54,44,53,-1,53,44,43,-1,30,32,47,-1,30,47,34,-1,34,47,46,-1,34,46,33,-1,33,46,45,-1,33,45,35,-1,35,45,50,-1,35,50,36,-1,36,50,49,-1,36,49,38,-1,38,49,44,-1,38,44,40,-1,30,28,32,-1,32,28,26,-1,55,56,57,-1,57,56,58,-1,57,58,59,-1,59,58,60,-1,61,62,55,-1,55,62,56,-1,63,64,65,-1,65,64,66,-1,67,64,68,-1,68,64,63,-1,64,67,66,-1,66,67,69,-1,66,69,65,-1,65,69,70,-1,71,59,72,-1,72,59,60,-1,67,68,73,-1,73,68,74,-1,73,74,75,-1,75,74,59,-1,75,59,76,-1,76,59,71,-1,60,62,77,-1,60,77,72,-1,72,77,78,-1,72,78,71,-1,71,78,79,-1,71,79,76,-1,76,79,80,-1,76,80,75,-1,75,80,81,-1,75,81,73,-1,73,81,69,-1,73,69,67,-1,79,78,61,-1,61,78,77,-1,61,77,62,-1,70,69,82,-1,82,69,81,-1,82,81,61,-1,61,81,80,-1,61,80,79,-1,60,58,62,-1,62,58,56,-1,83,84,85,-1,85,84,86,-1,85,86,87,-1,87,86,88,-1,89,90,83,-1,83,90,84,-1,91,92,93,-1,93,92,94,-1,95,92,96,-1,96,92,91,-1,92,95,94,-1,94,95,97,-1,94,97,93,-1,93,97,98,-1,99,87,100,-1,100,87,88,-1,99,101,87,-1,87,101,102,-1,87,102,103,-1,103,102,104,-1,103,104,105,-1,105,104,95,-1,105,95,96,-1,88,90,106,-1,88,106,100,-1,100,106,107,-1,100,107,99,-1,99,107,108,-1,99,108,101,-1,101,108,109,-1,101,109,102,-1,102,109,110,-1,102,110,104,-1,104,110,97,-1,104,97,95,-1,111,98,97,-1,108,107,89,-1,89,107,106,-1,89,106,90,-1,111,97,112,-1,112,97,110,-1,112,110,89,-1,89,110,109,-1,89,109,108,-1,88,86,90,-1,90,86,84,-1,
        ]
    }
}
Shape{
    appearance Appearance {
        material  Material 	{
            diffuseColor 0.6470588235294118 0.6470588235294118 0.6470588235294118
            specularColor 0.3215686274509804 0.3215686274509804 0.3215686274509804
            ambientIntensity 0.6471
            transparency 0.0
            shininess 0.5
        }
    }
    geometry IndexedFaceSet {
        ccw TRUE
        solid FALSE
        coord DEF co Coordinate {
            point [
                -0.3337 0.0754 0.0079, -0.4105 -0.1214 0.0079, -0.3337 0.0754 0.0039, -0.4105 -0.1214 0.0039, -0.3817 -0.1214 0.0079, -0.3817 -0.1214 0.0039, -0.3618 -0.0662 0.0079, -0.3618 -0.0662 0.0039, -0.2805 -0.0662 0.0079, -0.2805 -0.0662 0.0039, -0.2617 -0.1214 0.0079, -0.2617 -0.1214 0.0039, -0.2329 -0.1214 0.0079, -0.2329 -0.1214 0.0039, -0.3073 0.0754 0.0079, -0.3073 0.0754 0.0039, -0.2871 -0.0446 0.0079, -0.3529 -0.0446 0.0079, -0.3165 0.0376 0.0079, -0.3184 0.0444 0.0079, -0.3196 0.0514 0.0079, -0.3203 0.0514 0.0079, -0.3216 0.0445 0.0079, -0.3233 0.0376 0.0079, -0.2871 -0.0446 0.0039, -0.3529 -0.0446 0.0039, -0.3165 0.0376 0.0039, -0.3184 0.0444 0.0039, -0.3196 0.0514 0.0039, -0.3203 0.0514 0.0039, -0.3216 0.0445 0.0039, -0.3233 0.0376 0.0039, -0.1136 -0.1214 0.0079, -0.06 -0.1214 0.0079, -0.1136 -0.1214 0.0039, -0.06 -0.1214 0.0039, -0.06 0.0754 0.0079, -0.06 0.0754 0.0039, -0.1156 0.0754 0.0079, -0.1156 0.0754 0.0039, -0.2185 -0.0205 0.0079, -0.2185 -0.0205 0.0039, -0.217 -0.002 0.0039, -0.217 -0.002 0.0079, -0.2117 0.0174 0.0039, -0.2117 0.0174 0.0079, -0.2026 0.0343 0.0039, -0.2026 0.0343 0.0079, -0.1887 0.0498 0.0039, -0.1887 0.0498 0.0079, -0.1885 0.0499 0.0039, -0.1885 0.0499 0.0079, -0.1683 0.0635 0.0039, -0.167 0.0643 0.0079, -0.167 0.0643 0.0039, -0.144 0.0724 0.0039, -0.144 0.0724 0.0079, -0.1379 -0.1193 0.0039, -0.1379 -0.1193 0.0079, -0.1606 -0.1125 0.0039, -0.1606 -0.1125 0.0079, -0.1683 -0.1081 0.0039, -0.1811 -0.1006 0.0079, -0.1811 -0.1006 0.0039, -0.1973 -0.0851 0.0039, -0.1973 -0.0851 0.0079, -0.2086 -0.0675 0.0039, -0.2086 -0.0675 0.0079, -0.2157 -0.0469 0.0039, -0.2157 -0.0469 0.0079, -0.179 0.0262 0.0079, -0.1694 0.0364 0.0079, -0.155 0.0457 0.0079, -0.1388 0.0513 0.0079, -0.1155 0.0538 0.0079, -0.0864 0.0538 0.0079, -0.0864 -0.0998 0.0079, -0.1144 -0.0998 0.0079, -0.1351 -0.0979 0.0079, -0.1517 -0.0927 0.0079, -0.1651 -0.0847 0.0079, -0.1762 -0.0738 0.0079, -0.1845 -0.0603 0.0079, -0.1903 -0.0418 0.0079, -0.1921 -0.0211 0.0079, -0.1904 -0.0015 0.0079, -0.1858 0.0141 0.0079, -0.1155 0.0538 0.0039, -0.0864 0.0538 0.0039, -0.1388 0.0513 0.0039, -0.155 0.0457 0.0039, -0.1694 0.0364 0.0039, -0.179 0.0262 0.0039, -0.1858 0.0141 0.0039, -0.1904 -0.0015 0.0039, -0.1921 -0.0211 0.0039, -0.1903 -0.0418 0.0039, -0.1845 -0.0603 0.0039, -0.1762 -0.0738 0.0039, -0.1651 -0.0847 0.0039, -0.1517 -0.0927 0.0039, -0.1351 -0.0979 0.0039, -0.1144 -0.0998 0.0039, -0.0864 -0.0998 0.0039, -0.0216 -0.0998 0.0079, -0.0216 -0.1214 0.0079, -0.0216 -0.0998 0.0039, -0.0216 -0.1214 0.0039, 0.084 -0.1214 0.0079, 0.084 -0.1214 0.0039, 0.084 0.0754 0.0079, 0.084 0.0754 0.0039, -0.0168 0.0754 0.0079, -0.0168 0.0754 0.0039, -0.0168 0.0538 0.0079, -0.0168 0.0538 0.0039, 0.0576 0.0538 0.0079, 0.0576 0.0538 0.0039, 0.0576 -0.011 0.0079, 0.0576 -0.011 0.0039, -0.012 -0.011 0.0079, -0.012 -0.011 0.0039, -0.012 -0.0326 0.0079, -0.012 -0.0326 0.0039, 0.0576 -0.0326 0.0079, 0.0576 -0.0326 0.0039, 0.0576 -0.0998 0.0079, 0.0576 -0.0998 0.0039, 0.1224 -0.0896 0.0079, 0.1224 -0.1112 0.0079, 0.1224 -0.0896 0.0039, 0.1224 -0.1112 0.0039, 0.1434 -0.1198 0.0079, 0.1766 -0.1238 0.0079, 0.1766 -0.1238 0.0039, 0.1712 -0.1237 0.0039, 0.1712 -0.1237 0.0079, 0.1633 -0.1226 0.0039, 0.1434 -0.1198 0.0039, 0.2689 -0.0267 0.0079, 0.2689 -0.0267 0.0039, 0.267 -0.0495 0.0039, 0.267 -0.0495 0.0079, 0.261 -0.0703 0.0039, 0.261 -0.0703 0.0079, 0.2505 -0.0891 0.0039, 0.2505 -0.0891 0.0079, 0.2358 -0.1046 0.0039, 0.2358 -0.1046 0.0079, 0.2199 -0.1147 0.0039, 0.2199 -0.1147 0.0079, 0.2008 -0.1213 0.0039, 0.2008 -0.1213 0.0079, 0.1882 -0.1226 0.0039, 0.1687 0.0778 0.0079, 0.1687 0.0778 0.0039, 0.1885 0.0762 0.0079, 0.1835 0.0766 0.0039, 0.1885 0.0762 0.0039, 0.2104 0.0699 0.0039, 0.2104 0.0699 0.0079, 0.2291 0.0591 0.0039, 0.2291 0.0591 0.0079, 0.2469 0.042 0.0039, 0.2469 0.042 0.0079, 0.2585 0.0236 0.0039, 0.2585 0.0236 0.0079, 0.266 0.0013 0.0039, 0.266 0.0013 0.0079, 0.1514 0.0766 0.0039, 0.1452 0.0762 0.0079, 0.1452 0.0762 0.0039, 0.1224 0.07 0.0079, 0.1224 0.07 0.0039, 0.1224 0.0436 0.0079, 0.1224 0.0436 0.0039, 0.1685 0.0562 0.0079, 0.1685 0.0562 0.0039, 0.1446 0.0531 0.0039, 0.1446 0.0531 0.0079, 0.2425 -0.0251 0.0079, 0.2425 -0.0251 0.0039, 0.2415 -0.0098 0.0039, 0.2415 -0.0098 0.0079, 0.2363 0.0113 0.0039, 0.2363 0.0113 0.0079, 0.2282 0.0265 0.0039, 0.2282 0.0265 0.0079, 0.2163 0.0396 0.0039, 0.2163 0.0396 0.0079, 0.2026 0.0487 0.0039, 0.2026 0.0487 0.0079, 0.1879 0.054 0.0039, 0.1879 0.054 0.0079, 0.1729 -0.1022 0.0079, 0.1729 -0.1022 0.0039, 0.1913 -0.1002 0.0039, 0.1913 -0.1002 0.0079, 0.2057 -0.0949 0.0039, 0.2057 -0.0949 0.0079, 0.2177 -0.0867 0.0039, 0.2177 -0.0867 0.0079, 0.227 -0.077 0.0039, 0.227 -0.077 0.0079, 0.2351 -0.0633 0.0039, 0.2351 -0.0633 0.0079, 0.2405 -0.0464 0.0039, 0.2405 -0.0464 0.0079, 0.1259 -0.0916 0.0039, 0.1259 -0.0916 0.0079, 0.1468 -0.0993 0.0039, 0.1468 -0.0993 0.0079, 0.2857 -0.0998 0.0079, 0.2857 -0.1214 0.0079, 0.2857 -0.0998 0.0039, 0.2857 -0.1214 0.0039, 0.3865 -0.1214 0.0079, 0.3865 -0.1214 0.0039, 0.3865 0.0754 0.0079, 0.3865 0.0754 0.0039, 0.3601 0.0754 0.0079, 0.3601 0.0754 0.0039, 0.3601 -0.0998 0.0079, 0.3601 -0.0998 0.0039
            ]
        }
        coordIndex [
            0,1,2,-1,2,1,3,-1,1,4,3,-1,3,4,5,-1,4,6,5,-1,5,6,7,-1,6,8,7,-1,7,8,9,-1,8,10,9,-1,9,10,11,-1,10,12,11,-1,11,12,13,-1,12,14,13,-1,13,14,15,-1,14,0,15,-1,15,0,2,-1,16,8,17,-1,17,8,6,-1,18,14,16,-1,16,14,12,-1,16,12,8,-1,8,12,10,-1,18,19,14,-1,14,19,20,-1,14,20,0,-1,0,20,21,-1,0,21,22,-1,22,23,0,-1,0,23,17,-1,0,17,1,-1,1,17,6,-1,1,6,4,-1,16,17,24,-1,24,17,25,-1,18,16,26,-1,26,16,24,-1,18,26,27,-1,18,27,19,-1,19,27,28,-1,19,28,20,-1,21,20,29,-1,29,20,28,-1,21,29,30,-1,21,30,22,-1,22,30,31,-1,22,31,23,-1,17,23,25,-1,25,23,31,-1,32,33,34,-1,34,33,35,-1,33,36,35,-1,35,36,37,-1,36,38,37,-1,37,38,39,-1,40,41,42,-1,40,42,43,-1,43,42,44,-1,43,44,45,-1,45,44,46,-1,45,46,47,-1,47,46,48,-1,47,48,49,-1,49,48,50,-1,49,50,51,-1,51,50,52,-1,51,52,53,-1,52,54,53,-1,53,54,55,-1,53,55,56,-1,56,55,39,-1,56,39,38,-1,32,34,57,-1,32,57,58,-1,58,57,59,-1,58,59,60,-1,60,59,61,-1,60,61,62,-1,61,63,62,-1,62,63,64,-1,62,64,65,-1,65,64,66,-1,65,66,67,-1,67,66,68,-1,67,68,69,-1,69,68,41,-1,69,41,40,-1,45,47,70,-1,70,47,49,-1,70,49,71,-1,71,49,51,-1,71,51,72,-1,72,51,53,-1,72,53,73,-1,73,53,56,-1,73,56,74,-1,74,56,38,-1,74,38,75,-1,75,38,36,-1,75,36,76,-1,76,36,33,-1,76,33,77,-1,77,33,32,-1,77,32,78,-1,78,32,58,-1,78,58,79,-1,79,58,60,-1,79,60,80,-1,80,60,62,-1,80,62,81,-1,81,62,65,-1,81,65,82,-1,82,65,67,-1,82,67,83,-1,83,67,69,-1,83,69,84,-1,84,69,40,-1,84,40,85,-1,85,40,43,-1,85,43,86,-1,86,43,45,-1,86,45,70,-1,74,75,87,-1,87,75,88,-1,74,87,89,-1,74,89,73,-1,73,89,90,-1,73,90,72,-1,72,90,91,-1,72,91,71,-1,71,91,92,-1,71,92,70,-1,70,92,93,-1,70,93,86,-1,86,93,94,-1,86,94,85,-1,85,94,95,-1,85,95,84,-1,84,95,96,-1,84,96,83,-1,83,96,97,-1,83,97,82,-1,82,97,98,-1,82,98,81,-1,81,98,99,-1,81,99,80,-1,80,99,100,-1,80,100,79,-1,79,100,101,-1,79,101,78,-1,78,101,102,-1,78,102,77,-1,76,77,103,-1,103,77,102,-1,75,76,88,-1,88,76,103,-1,104,105,106,-1,106,105,107,-1,105,108,107,-1,107,108,109,-1,108,110,109,-1,109,110,111,-1,110,112,111,-1,111,112,113,-1,112,114,113,-1,113,114,115,-1,114,116,115,-1,115,116,117,-1,116,118,117,-1,117,118,119,-1,118,120,119,-1,119,120,121,-1,120,122,121,-1,121,122,123,-1,122,124,123,-1,123,124,125,-1,124,126,125,-1,125,126,127,-1,126,104,127,-1,127,104,106,-1,108,105,104,-1,104,126,108,-1,108,126,124,-1,108,124,110,-1,114,112,116,-1,116,112,110,-1,116,110,118,-1,118,110,124,-1,118,124,120,-1,120,124,122,-1,128,129,130,-1,130,129,131,-1,131,129,132,-1,133,134,135,-1,133,135,136,-1,136,135,137,-1,136,137,132,-1,132,137,138,-1,132,138,131,-1,139,140,141,-1,139,141,142,-1,142,141,143,-1,142,143,144,-1,144,143,145,-1,144,145,146,-1,146,145,147,-1,146,147,148,-1,148,147,149,-1,148,149,150,-1,150,149,151,-1,150,151,152,-1,152,151,133,-1,133,151,153,-1,133,153,134,-1,154,155,156,-1,156,155,157,-1,157,158,156,-1,156,158,159,-1,156,159,160,-1,160,159,161,-1,160,161,162,-1,162,161,163,-1,162,163,164,-1,164,163,165,-1,164,165,166,-1,166,165,167,-1,166,167,168,-1,168,167,140,-1,168,140,139,-1,155,154,169,-1,169,154,170,-1,169,170,171,-1,171,170,172,-1,171,172,173,-1,172,174,173,-1,173,174,175,-1,176,177,178,-1,176,178,179,-1,179,178,175,-1,179,175,174,-1,180,181,182,-1,180,182,183,-1,183,182,184,-1,183,184,185,-1,185,184,186,-1,185,186,187,-1,187,186,188,-1,187,188,189,-1,189,188,190,-1,189,190,191,-1,191,190,192,-1,191,192,193,-1,193,192,177,-1,193,177,176,-1,194,195,196,-1,194,196,197,-1,197,196,198,-1,197,198,199,-1,199,198,200,-1,199,200,201,-1,201,200,202,-1,201,202,203,-1,203,202,204,-1,203,204,205,-1,205,204,206,-1,205,206,207,-1,207,206,181,-1,207,181,180,-1,128,130,208,-1,128,208,209,-1,209,208,210,-1,209,210,211,-1,211,210,195,-1,211,195,194,-1,197,133,194,-1,194,133,136,-1,194,136,211,-1,211,136,132,-1,211,132,209,-1,209,132,129,-1,209,129,128,-1,174,172,179,-1,179,172,170,-1,179,170,176,-1,176,170,154,-1,176,154,193,-1,193,154,156,-1,193,156,191,-1,191,156,160,-1,191,160,189,-1,189,160,162,-1,189,162,187,-1,187,162,164,-1,187,164,185,-1,185,164,166,-1,185,166,183,-1,183,166,168,-1,183,168,180,-1,180,168,139,-1,180,139,207,-1,207,139,142,-1,207,142,205,-1,205,142,144,-1,205,144,203,-1,203,144,146,-1,203,146,201,-1,201,146,148,-1,201,148,199,-1,199,148,150,-1,199,150,197,-1,197,150,152,-1,197,152,133,-1,212,213,214,-1,214,213,215,-1,213,216,215,-1,215,216,217,-1,216,218,217,-1,217,218,219,-1,218,220,219,-1,219,220,221,-1,220,222,221,-1,221,222,223,-1,222,212,223,-1,223,212,214,-1,220,218,222,-1,222,218,216,-1,222,216,212,-1,212,216,213,-1,
        ]
    }
}
Shape{
    appearance Appearance {
        material  Material 	{
            diffuseColor 0.20784313725490197 0.20784313725490197 0.20784313725490197
            specularColor 0.01568627450980392 0.01568627450980392 0.01568627450980392
            ambientIntensity 0.298
            transparency 0.0
            shininess 0.5
        }
    }
    geometry IndexedFaceSet {
        ccw TRUE
        solid FALSE
        coord DEF co Coordinate {
            point [
                -0.2871 -0.0446 0.0039, -0.3529 -0.0446 0.0039, -0.3165 0.0376 0.0039, -0.3233 0.0376 0.0039, -0.3184 0.0444 0.0039, -0.3216 0.0445 0.0039, -0.3196 0.0514 0.0039, -0.3203 0.0514 0.0039, -0.0864 0.0538 0.0039, -0.0864 -0.0998 0.0039, -0.1155 0.0538 0.0039, -0.1144 -0.0998 0.0039, -0.1351 -0.0979 0.0039, -0.1921 -0.0211 0.0039, -0.1904 -0.0015 0.0039, -0.1858 0.0141 0.0039, -0.1388 0.0513 0.0039, -0.1517 -0.0927 0.0039, -0.1651 -0.0847 0.0039, -0.1762 -0.0738 0.0039, -0.1845 -0.0603 0.0039, -0.1903 -0.0418 0.0039, -0.179 0.0262 0.0039, -0.1694 0.0364 0.0039, -0.155 0.0457 0.0039
            ]
        }
        coordIndex [
            0,1,2,-1,2,1,3,-1,2,3,4,-1,4,3,5,-1,4,5,6,-1,6,5,7,-1,8,9,10,-1,10,9,11,-1,10,11,12,-1,13,14,10,-1,10,14,15,-1,10,15,16,-1,12,17,10,-1,10,17,18,-1,10,18,19,-1,19,20,10,-1,10,20,21,-1,10,21,13,-1,22,23,15,-1,15,23,24,-1,15,24,16,-1,
        ]
    }
}